<?xml version="1.0" standalone="no"?>
<!DOCTYPE svg PUBLIC "-//W3C//DTD SVG 1.1//EN" "http://www.w3.org/Graphics/SVG/1.1/DTD/svg11.dtd" >
<svg xmlns="http://www.w3.org/2000/svg" xmlns:xlink="http://www.w3.org/1999/xlink" version="1.1">
<metadata>
Created by FontForge 20190801 at Tue Jul 14 11:43:20 2020
 By root
Copyright 2020, Kris Sowersby, Klim Type Foundry.
</metadata>
<defs>
<font id="Signifier-Regular" horiz-adv-x="600" >
  <font-face 
    font-family="Signifier"
    font-weight="400"
    font-stretch="normal"
    units-per-em="1000"
    panose-1="2 11 8 3 4 5 4 4 2 4"
    ascent="800"
    descent="-200"
    x-height="450"
    cap-height="690"
    bbox="-184 -290 1155 973"
    underline-thickness="42"
    underline-position="-130"
    stemh="39"
    stemv="88"
    unicode-range="U+0020-FB04"
  />
<missing-glyph horiz-adv-x="1036" 
d="M664 354l51 -3v-197l-39 170l-12 23v-275l-168 -11l-85 -21l-3 -21l-308 -19l310 41l33 326l-126 8l-140 35v128l188 173l108 -43l4 43l29 -57l158 -63v-237zM936 338l-221 13v22zM436 -104l-28 118v4l28 2v-124z" />
    <glyph glyph-name="f_b" unicode="fb" horiz-adv-x="872" 
d="M401 713c-13 12 -31 19 -54 19c-107 0 -161 -125 -161 -295h144l-30 -50h-114v-347h102v-40h-262v40h72v321l-87 48l87 51c22 185 135 320 287 320c34 0 67 -6 104 -19v-355h19c36 28 83 54 135 54c117 0 196 -91 196 -220c0 -151 -124 -250 -264 -250
c-58 0 -133 17 -174 43v680zM489 360v-276c16 -32 55 -52 103 -52c80 0 152 54 152 183c0 117 -67 186 -167 186c-40 0 -76 -20 -88 -41z" />
    <glyph glyph-name="f_f_b" unicode="ffb" horiz-adv-x="1175" 
d="M1142 240c0 -151 -124 -250 -264 -250c-58 0 -133 17 -174 43v680c-13 12 -31 19 -54 19c-107 0 -161 -125 -161 -295h144l-30 -50h-114v-347h102v-40h-262v40h72v347h-215v-347h72v-40h-232v40h72v321l-87 48l87 51c22 170 116 300 236 300c49 0 76 -24 76 -57
c0 -29 -23 -52 -55 -52l-68 63c-72 -31 -101 -132 -101 -277h215v23c22 185 135 320 287 320c34 0 67 -6 104 -19v-355h19c36 28 83 54 135 54c117 0 196 -91 196 -220zM792 360v-276c16 -32 55 -52 103 -52c80 0 152 54 152 183c0 117 -67 186 -167 186
c-40 0 -76 -20 -88 -41z" />
    <glyph glyph-name="ff" unicode="ff" horiz-adv-x="620" 
d="M98 40v321l-87 48l87 51c22 170 116 300 236 300c49 0 76 -24 76 -57c0 -29 -23 -52 -55 -52l-68 63c-72 -31 -101 -132 -101 -277h215v23c22 185 135 320 277 320c48 0 81 -26 81 -61c0 -30 -24 -53 -57 -53l-80 67c-90 -28 -133 -136 -133 -296h144l-30 -50h-114v-347
h102v-40h-262v40h72v347h-215v-347h72v-40h-232v40h72z" />
    <glyph glyph-name="f_h" unicode="fh" horiz-adv-x="870" 
d="M330 437l-30 -50h-114v-347h72v-40h-232v40h72v321l-87 48l87 51c22 185 135 320 287 320c44 0 67 -6 104 -19v-377h23c35 34 81 76 148 76c82 0 120 -60 120 -147v-273h72v-40h-232v40h72v248c0 67 -36 102 -98 102c-41 0 -79 -28 -105 -53v-297h72v-40h-232v40h72v673
c-13 12 -31 19 -54 19c-107 0 -161 -125 -161 -295h144z" />
    <glyph glyph-name="f_f_h" unicode="ffh" horiz-adv-x="1173" 
d="M704 40v673c-13 12 -31 19 -54 19c-107 0 -161 -125 -161 -295h144l-30 -50h-114v-347h72v-40h-232v40h72v347h-215v-347h72v-40h-232v40h72v321l-87 48l87 51c22 170 116 300 236 300c49 0 76 -24 76 -57c0 -29 -23 -52 -55 -52l-68 63c-72 -31 -101 -132 -101 -277h215
v23c22 185 135 320 287 320c44 0 67 -6 104 -19v-377h23c35 34 81 76 148 76c82 0 120 -60 120 -147v-273h72v-40h-232v40h72v248c0 67 -36 102 -98 102c-41 0 -79 -28 -105 -53v-297h72v-40h-232v40h72z" />
    <glyph glyph-name="fi" unicode="fi" horiz-adv-x="583" 
d="M98 40v321l-87 48l87 51c22 185 145 320 296 320c53 0 87 -26 87 -65c0 -32 -31 -61 -66 -61l-84 82c-91 -32 -145 -147 -145 -299h218l85 33v-430h72v-40h-232v40h72v347h-215v-347h72v-40h-232v40h72z" />
    <glyph glyph-name="f_idieresis" unicode="f&#xef;" horiz-adv-x="583" 
d="M98 460c18 168 96 320 216 320c49 0 76 -24 76 -57c0 -29 -23 -52 -55 -52l-68 65c-62 -51 -81 -154 -81 -299h218l85 33v-430h72v-40h-232v40h72v347h-215v-347h72v-40h-232v40h72v321l-87 48zM473 634c0 31 24 55 56 55s57 -24 57 -55s-25 -55 -57 -55s-56 24 -56 55z
" />
    <glyph glyph-name="ffi" unicode="ffi" horiz-adv-x="886" 
d="M401 40v347h-215v-347h72v-40h-232v40h72v321l-87 48l87 51c22 170 116 300 236 300c49 0 76 -24 76 -57c0 -29 -23 -52 -55 -52l-68 63c-72 -31 -101 -132 -101 -277h215v23c22 185 145 320 296 320c53 0 87 -26 87 -65c0 -32 -31 -61 -66 -61l-84 82
c-91 -32 -145 -147 -145 -299h218l85 33v-430h72v-40h-232v40h72v347h-215v-347h72v-40h-232v40h72z" />
    <glyph glyph-name="f_f_idieresis" unicode="ff&#xef;" horiz-adv-x="886" 
d="M401 460c18 168 96 320 216 320c49 0 76 -24 76 -57c0 -29 -23 -52 -55 -52l-68 65c-62 -51 -81 -154 -81 -299h218l85 33v-430h72v-40h-232v40h72v347h-215v-347h72v-40h-232v40h72v347h-215v-347h72v-40h-232v40h72v321l-87 48l87 51c22 170 116 300 236 300
c49 0 76 -24 76 -57c0 -29 -23 -52 -55 -52l-68 63c-72 -31 -101 -132 -101 -277h215v23zM776 634c0 31 24 55 56 55s57 -24 57 -55s-25 -55 -57 -55s-56 24 -56 55z" />
    <glyph glyph-name="f_j" unicode="fj" horiz-adv-x="563" 
d="M404 437l85 33v-522c-36 -99 -153 -238 -229 -238c-35 0 -56 27 -56 55c0 19 9 38 30 50l94 -34c34 30 73 86 73 180v426h-215v-347h102v-40h-262v40h72v321l-87 48l87 51c22 185 145 320 296 320c53 0 87 -26 87 -65c0 -32 -31 -61 -66 -61l-84 82
c-91 -32 -145 -147 -145 -299h218z" />
    <glyph glyph-name="f_f_j" unicode="ffj" horiz-adv-x="866" 
d="M707 437l85 33v-522c-36 -99 -153 -238 -229 -238c-35 0 -56 27 -56 55c0 19 9 38 30 50l94 -34c34 30 73 86 73 180v426h-215v-347h102v-40h-262v40h72v347h-215v-347h72v-40h-232v40h72v321l-87 48l87 51c22 170 116 300 236 300c49 0 76 -24 76 -57
c0 -29 -23 -52 -55 -52l-68 63c-72 -31 -101 -132 -101 -277h215v23c22 185 145 320 296 320c53 0 87 -26 87 -65c0 -32 -31 -61 -66 -61l-84 82c-91 -32 -145 -147 -145 -299h218z" />
    <glyph glyph-name="f_k" unicode="fk" horiz-adv-x="852" 
d="M330 437l-30 -50h-114v-347h72v-40h-232v40h72v321l-87 48l87 51c22 185 135 320 287 320c44 0 67 -6 104 -19v-493h34l165 132v10h-83v40h222v-40h-61l-183 -143l269 -267h-124l-239 253v-213h72v-40h-232v40h72v673c-13 12 -31 19 -54 19c-107 0 -161 -125 -161 -295
h144z" />
    <glyph glyph-name="f_f_k" unicode="ffk" horiz-adv-x="1155" 
d="M704 40v673c-13 12 -31 19 -54 19c-107 0 -161 -125 -161 -295h144l-30 -50h-114v-347h72v-40h-232v40h72v347h-215v-347h72v-40h-232v40h72v321l-87 48l87 51c22 170 116 300 236 300c49 0 76 -24 76 -57c0 -29 -23 -52 -55 -52l-68 63c-72 -31 -101 -132 -101 -277h215
v23c22 185 135 320 287 320c44 0 67 -6 104 -19v-493h34l165 132v10h-83v40h222v-40h-61l-183 -143l269 -267h-124l-239 253v-213h72v-40h-232v40h72z" />
    <glyph glyph-name="fl" unicode="fl" horiz-adv-x="584" 
d="M330 437l-30 -50h-114v-347h72v-40h-232v40h72v321l-87 48l87 51c22 185 135 320 287 320c44 0 67 -6 104 -19v-721h72v-40h-232v40h72v673c-13 12 -31 19 -54 19c-107 0 -161 -125 -161 -295h144z" />
    <glyph glyph-name="ffl" unicode="ffl" horiz-adv-x="887" 
d="M704 40v673c-13 12 -31 19 -54 19c-107 0 -161 -125 -161 -295h144l-30 -50h-114v-347h72v-40h-232v40h72v347h-215v-347h72v-40h-232v40h72v321l-87 48l87 51c22 170 116 300 236 300c49 0 76 -24 76 -57c0 -29 -23 -52 -55 -52l-68 63c-72 -31 -101 -132 -101 -277h215
v23c22 185 135 320 287 320c44 0 67 -6 104 -19v-721h72v-40h-232v40h72z" />
    <glyph glyph-name=".notdef" horiz-adv-x="1036" 
d="M664 354l51 -3v-197l-39 170l-12 23v-275l-168 -11l-85 -21l-3 -21l-308 -19l310 41l33 326l-126 8l-140 35v128l188 173l108 -43l4 43l29 -57l158 -63v-237zM936 338l-221 13v22zM436 -104l-28 118v4l28 2v-124z" />
    <glyph glyph-name=".null" horiz-adv-x="500" 
 />
    <glyph glyph-name="CR" horiz-adv-x="500" 
 />
    <glyph glyph-name="uni00A0" unicode="&#xa0;" horiz-adv-x="200" 
 />
    <glyph glyph-name="space" unicode=" " horiz-adv-x="200" 
 />
    <glyph glyph-name="A" unicode="A" horiz-adv-x="774" 
d="M309 690h98l264 -646h83v-44h-309v44h123l-87 217h-238l-88 -217h123v-44h-258v44h83l236 570zM261 305h202l-100 251z" />
    <glyph glyph-name="B" unicode="B" horiz-adv-x="662" 
d="M34 690h265c158 0 263 -54 263 -166c0 -81 -76 -145 -171 -160c95 -6 222 -60 222 -171c0 -114 -112 -193 -275 -193h-304v44h103v602h-103v44zM289 646h-56v-271h57c93 0 175 49 175 139c0 94 -73 132 -176 132zM233 44h96c107 0 184 49 184 150c0 103 -96 139 -192 139
h-88v-289z" />
    <glyph glyph-name="C" unicode="C" horiz-adv-x="682" 
d="M46 329c0 223 177 371 347 371c77 0 132 -25 172 -52l67 52v-225c-59 94 -129 177 -249 177c-124 0 -242 -110 -242 -279c0 -198 138 -307 284 -307c96 0 166 36 227 98c-34 -94 -136 -174 -269 -174c-178 0 -337 131 -337 339z" />
    <glyph glyph-name="D" unicode="D" horiz-adv-x="789" 
d="M295 690c259 0 448 -120 448 -326c0 -220 -193 -364 -438 -364h-271v44h103v602h-103v44h261zM287 646h-54v-602h56c215 0 346 128 346 319c0 180 -132 283 -348 283z" />
    <glyph glyph-name="E" unicode="E" horiz-adv-x="654" 
d="M380 375l79 107v-259l-79 108h-147v-287h251l142 169l-42 -213h-550v44h103v602h-103v44h479l54 29v-212l-103 139h-231v-271h147z" />
    <glyph glyph-name="F" unicode="F" horiz-adv-x="610" 
d="M380 375l79 107v-259l-79 108h-147v-287h128v-44h-327v44h103v602h-103v44h479l54 29v-212l-103 139h-231v-271h147z" />
    <glyph glyph-name="G" unicode="G" horiz-adv-x="774" 
d="M558 261h-113v44h300v-44h-93v-165h66c-63 -66 -169 -106 -293 -106c-198 0 -374 129 -374 346c0 220 183 364 353 364c81 0 146 -25 189 -52l70 52v-225c-60 95 -136 177 -262 177c-136 0 -243 -114 -243 -290c0 -201 147 -322 301 -322c35 0 71 4 99 14v207z" />
    <glyph glyph-name="H" unicode="H" horiz-adv-x="860" 
d="M34 690h302v-44h-103v-271h394v271h-103v44h302v-44h-103v-602h103v-44h-302v44h103v287h-394v-287h103v-44h-302v44h103v602h-103v44z" />
    <glyph glyph-name="I" unicode="I" horiz-adv-x="370" 
d="M34 690h302v-44h-103v-602h103v-44h-302v44h103v602h-103v44z" />
    <glyph glyph-name="J" unicode="J" horiz-adv-x="370" 
d="M137 48v598h-103v44h302v-44h-103v-613c-38 -109 -161 -263 -245 -263c-38 0 -62 26 -62 58c0 21 10 45 32 58l107 -40c36 33 72 105 72 202z" />
    <glyph glyph-name="K" unicode="K" horiz-adv-x="724" 
d="M34 690h302v-44h-103v-260h37l278 260h-106v44h263v-44h-92l-278 -256l385 -390h-128l-359 371v-327h103v-44h-302v44h103v602h-103v44z" />
    <glyph glyph-name="L" unicode="L" horiz-adv-x="631" 
d="M137 646h-103v44h302v-44h-103v-602h241l142 169l-42 -213h-540v44h103v602z" />
    <glyph glyph-name="M" unicode="M" horiz-adv-x="962" 
d="M752 44l-53 607l-240 -692l-244 692l-46 -607h113v-44h-258v44h93l51 602h-91v44h226l178 -531l184 531h220v-44h-91l51 -602h93v-44h-299v44h113z" />
    <glyph glyph-name="N" unicode="N" horiz-adv-x="774" 
d="M276 0h-258v44h103v529l-102 117h122l458 -534v490h-103v44h258v-44h-103v-679l-478 547v-470h103v-44z" />
    <glyph glyph-name="O" unicode="O" horiz-adv-x="808" 
d="M762 345c0 -205 -173 -355 -358 -355s-358 150 -358 355s173 355 358 355s358 -150 358 -355zM154 345c0 -181 124 -309 250 -309s250 128 250 309s-124 308 -250 308s-250 -127 -250 -308z" />
    <glyph glyph-name="P" unicode="P" horiz-adv-x="629" 
d="M34 646v44h274c168 0 287 -64 287 -200c0 -122 -120 -187 -228 -187l-77 37c146 0 207 59 207 153c0 107 -79 153 -190 153h-74v-602h128v-44h-327v44h103v602h-103z" />
    <glyph glyph-name="Q" unicode="Q" horiz-adv-x="808" 
d="M762 345c0 -185 -144 -325 -305 -342v-22l465 -164l-187 -35l-470 234c-123 61 -219 175 -219 329c0 205 173 355 358 355s358 -150 358 -355zM154 345c0 -181 124 -309 250 -309s250 128 250 309s-124 308 -250 308s-250 -127 -250 -308z" />
    <glyph glyph-name="R" unicode="R" horiz-adv-x="703" 
d="M336 44v-44h-302v44h103v602h-103v44h273c166 0 287 -52 287 -177c0 -98 -84 -157 -191 -178l304 -335h-124l-284 326h-66v-282h103zM233 646v-279h73c109 0 187 46 187 142s-78 137 -187 137h-73z" />
    <glyph glyph-name="S" unicode="S" horiz-adv-x="555" 
d="M263 652c-68 0 -115 -46 -115 -110c0 -158 352 -125 352 -337c0 -127 -111 -215 -248 -215c-73 0 -154 29 -202 73v167c50 -120 125 -191 224 -191c75 0 137 45 137 126c0 184 -343 129 -343 343c0 104 83 192 199 192c58 0 111 -24 139 -50l69 52v-225
c-52 94 -118 175 -212 175z" />
    <glyph glyph-name="T" unicode="T" horiz-adv-x="724" 
d="M143 646l-103 -149v222l54 -29h536l54 29v-222l-103 149h-171v-602h113v-44h-322v44h113v602h-171z" />
    <glyph glyph-name="U" unicode="U" horiz-adv-x="780" 
d="M609 269v377h-103v44h258v-44h-103v-392c0 -167 -123 -264 -265 -264c-127 0 -277 79 -277 261v395h-103v44h302v-44h-103v-376c0 -144 80 -217 198 -217s196 73 196 216z" />
    <glyph glyph-name="V" unicode="V" horiz-adv-x="754" 
d="M206 646l193 -511l198 511h-123v44h260v-44h-83l-274 -687l-274 687h-83v44h309v-44h-123z" />
    <glyph glyph-name="W" unicode="W" horiz-adv-x="1074" 
d="M202 646l191 -500l128 336l-58 164h-73v44h294v-44h-123l170 -498l188 498h-123v44h258v-44h-83l-264 -687l-163 460l-177 -460l-264 687h-83v44h285v-44h-103z" />
    <glyph glyph-name="X" unicode="X" horiz-adv-x="809" 
d="M48 690h315v-44h-107l157 -219l156 219h-107v44h267v-44h-99l-187 -262l243 -340h103v-44h-315v44h103l-197 275l-196 -275h103v-44h-267v44h103l227 318l-203 284h-99v44z" />
    <glyph glyph-name="Y" unicode="Y" horiz-adv-x="754" 
d="M538 0h-322v44h113v289l-226 313h-83v44h318v-44h-123l186 -271l193 271h-123v44h263v-44h-83l-226 -313v-289h113v-44z" />
    <glyph glyph-name="Z" unicode="Z" horiz-adv-x="657" 
d="M489 44l142 169l-42 -213h-562l451 646h-298l-103 -149v222l54 -29h482l-448 -646h324z" />
    <glyph glyph-name="Aacute" unicode="&#xc1;" horiz-adv-x="774" 
d="M309 690h98l264 -646h83v-44h-309v44h123l-87 217h-238l-88 -217h123v-44h-258v44h83l236 570zM261 305h202l-100 251zM538 847l-276 -108l177 157z" />
    <glyph glyph-name="Abreve" unicode="&#x102;" horiz-adv-x="774" 
d="M309 690h98l264 -646h83v-44h-309v44h123l-87 217h-238l-88 -217h123v-44h-258v44h83l236 570zM261 305h202l-100 251zM370 739c-80 0 -161 69 -161 185c40 -78 91 -119 161 -119s121 41 161 119c0 -116 -81 -185 -161 -185z" />
    <glyph glyph-name="Acircumflex" unicode="&#xc2;" horiz-adv-x="774" 
d="M309 690h98l264 -646h83v-44h-309v44h123l-87 217h-238l-88 -217h123v-44h-258v44h83l236 570zM261 305h202l-100 251zM334 903h88l132 -173l-176 111l-176 -111z" />
    <glyph glyph-name="Adieresis" unicode="&#xc4;" horiz-adv-x="774" 
d="M309 690h98l264 -646h83v-44h-309v44h123l-87 217h-238l-88 -217h123v-44h-258v44h83l236 570zM261 305h202l-100 251zM475 754c-32 0 -56 24 -56 55s24 55 56 55s57 -24 57 -55s-25 -55 -57 -55zM280 754c-32 0 -56 24 -56 55s24 55 56 55s57 -24 57 -55
s-25 -55 -57 -55z" />
    <glyph glyph-name="Agrave" unicode="&#xc0;" horiz-adv-x="774" 
d="M309 690h98l264 -646h83v-44h-309v44h123l-87 217h-238l-88 -217h123v-44h-258v44h83l236 570zM261 305h202l-100 251zM205 847l99 49l177 -157z" />
    <glyph glyph-name="Amacron" unicode="&#x100;" horiz-adv-x="774" 
d="M309 690h98l264 -646h83v-44h-309v44h123l-87 217h-238l-88 -217h123v-44h-258v44h83l236 570zM261 305h202l-100 251zM243 823h312l-48 -59h-312z" />
    <glyph glyph-name="Aogonek" unicode="&#x104;" horiz-adv-x="774" 
d="M309 690h98l264 -646h83v-44h-290c-53 -44 -101 -108 -101 -157c0 -39 21 -57 68 -57h45c-34 -32 -60 -53 -96 -53c-43 0 -78 27 -78 78c0 61 68 141 143 195v38h123l-87 217h-238l-88 -217h123v-44h-258v44h83l236 570zM261 305h202l-100 251z" />
    <glyph glyph-name="Aring" unicode="&#xc5;" horiz-adv-x="774" 
d="M309 690h98l264 -646h83v-44h-309v44h123l-87 217h-238l-88 -217h123v-44h-258v44h83l236 570zM261 305h202l-100 251zM369 941c60 0 110 -50 110 -110c0 -59 -50 -109 -110 -109s-110 50 -110 109c0 60 50 110 110 110zM369 900c-42 0 -69 -27 -69 -69
c0 -41 27 -68 69 -68s69 27 69 68c0 42 -27 69 -69 69z" />
    <glyph glyph-name="Atilde" unicode="&#xc3;" horiz-adv-x="774" 
d="M309 690h98l264 -646h83v-44h-309v44h123l-87 217h-238l-88 -217h123v-44h-258v44h83l236 570zM261 305h202l-100 251zM504 767l-175 47c-32 0 -78 -41 -125 -91l75 164l175 -47c32 0 78 41 125 91z" />
    <glyph glyph-name="AE" unicode="&#xc6;" horiz-adv-x="1054" 
d="M780 375l79 107v-259l-79 108h-147v-287h251l142 169l-42 -213h-550v44h103v217h-240l-137 -217h123v-44h-263v44h83l384 602h-103v44h529l54 29v-212l-103 139h-231v-271h147zM325 305h212v336z" />
    <glyph glyph-name="AEacute" unicode="&#x1fc;" horiz-adv-x="1054" 
d="M780 375l79 107v-259l-79 108h-147v-287h251l142 169l-42 -213h-550v44h103v217h-240l-137 -217h123v-44h-263v44h83l384 602h-103v44h529l54 29v-212l-103 139h-231v-271h147zM325 305h212v336zM876 847l-276 -108l177 157z" />
    <glyph glyph-name="Cacute" unicode="&#x106;" horiz-adv-x="682" 
d="M46 329c0 223 177 371 347 371c77 0 132 -25 172 -52l67 52v-225c-59 94 -129 177 -249 177c-124 0 -242 -110 -242 -279c0 -198 138 -307 284 -307c96 0 166 36 227 98c-34 -94 -136 -174 -269 -174c-178 0 -337 131 -337 339zM581 847l-276 -108l177 157z" />
    <glyph glyph-name="Ccaron" unicode="&#x10c;" horiz-adv-x="682" 
d="M46 329c0 223 177 371 347 371c77 0 132 -25 172 -52l67 52v-225c-59 94 -129 177 -249 177c-124 0 -242 -110 -242 -279c0 -198 138 -307 284 -307c96 0 166 36 227 98c-34 -94 -136 -174 -269 -174c-178 0 -337 131 -337 339zM349 739l-132 173l176 -111l176 111
l-132 -173h-88z" />
    <glyph glyph-name="Ccedilla" unicode="&#xc7;" horiz-adv-x="682" 
d="M46 329c0 223 177 371 347 371c77 0 132 -25 172 -52l67 52v-225c-59 94 -129 177 -249 177c-124 0 -242 -110 -242 -279c0 -198 138 -307 284 -307c96 0 166 36 227 98c-34 -94 -136 -174 -269 -174h-11l-4 -47c46 -20 91 -43 91 -94c0 -59 -86 -116 -148 -116
c-35 0 -57 17 -57 40c0 25 21 42 46 42l41 -58c27 5 62 33 62 65c0 37 -46 60 -101 74l57 95c-168 11 -313 140 -313 338z" />
    <glyph glyph-name="Ccircumflex" unicode="&#x108;" horiz-adv-x="682" 
d="M46 329c0 223 177 371 347 371c77 0 132 -25 172 -52l67 52v-225c-59 94 -129 177 -249 177c-124 0 -242 -110 -242 -279c0 -198 138 -307 284 -307c96 0 166 36 227 98c-34 -94 -136 -174 -269 -174c-178 0 -337 131 -337 339zM349 903h88l132 -173l-176 111l-176 -111z
" />
    <glyph glyph-name="Cdotaccent" unicode="&#x10a;" horiz-adv-x="682" 
d="M46 329c0 223 177 371 347 371c77 0 132 -25 172 -52l67 52v-225c-59 94 -129 177 -249 177c-124 0 -242 -110 -242 -279c0 -198 138 -307 284 -307c96 0 166 36 227 98c-34 -94 -136 -174 -269 -174c-178 0 -337 131 -337 339zM385 747c-33 0 -58 25 -58 58s25 59 58 59
s59 -26 59 -59s-26 -58 -59 -58z" />
    <glyph glyph-name="Dcaron" unicode="&#x10e;" horiz-adv-x="789" 
d="M295 690c259 0 448 -120 448 -326c0 -220 -193 -364 -438 -364h-271v44h103v602h-103v44h261zM287 646h-54v-602h56c215 0 346 128 346 319c0 180 -132 283 -348 283zM316 739l-132 173l176 -111l176 111l-132 -173h-88z" />
    <glyph glyph-name="Dcroat" unicode="&#x110;" horiz-adv-x="802" 
d="M47 331l20 44h83v271h-103v44h261c259 0 448 -120 448 -326c0 -220 -193 -364 -438 -364h-271v44h103v287h-103zM300 646h-54v-271h179l-20 -44h-159v-287h56c215 0 346 128 346 319c0 180 -132 283 -348 283z" />
    <glyph glyph-name="Eacute" unicode="&#xc9;" horiz-adv-x="654" 
d="M380 375l79 107v-259l-79 108h-147v-287h251l142 169l-42 -213h-550v44h103v602h-103v44h479l54 29v-212l-103 139h-231v-271h147zM514 847l-276 -108l177 157z" />
    <glyph glyph-name="Ebreve" unicode="&#x114;" horiz-adv-x="654" 
d="M380 375l79 107v-259l-79 108h-147v-287h251l142 169l-42 -213h-550v44h103v602h-103v44h479l54 29v-212l-103 139h-231v-271h147zM326 739c-80 0 -161 69 -161 185c40 -78 91 -119 161 -119s121 41 161 119c0 -116 -81 -185 -161 -185z" />
    <glyph glyph-name="Ecaron" unicode="&#x11a;" horiz-adv-x="654" 
d="M380 375l79 107v-259l-79 108h-147v-287h251l142 169l-42 -213h-550v44h103v602h-103v44h479l54 29v-212l-103 139h-231v-271h147zM282 739l-132 173l176 -111l176 111l-132 -173h-88z" />
    <glyph glyph-name="Ecircumflex" unicode="&#xca;" horiz-adv-x="654" 
d="M380 375l79 107v-259l-79 108h-147v-287h251l142 169l-42 -213h-550v44h103v602h-103v44h479l54 29v-212l-103 139h-231v-271h147zM282 903h88l132 -173l-176 111l-176 -111z" />
    <glyph glyph-name="Edieresis" unicode="&#xcb;" horiz-adv-x="654" 
d="M380 375l79 107v-259l-79 108h-147v-287h251l142 169l-42 -213h-550v44h103v602h-103v44h479l54 29v-212l-103 139h-231v-271h147zM413 754c-32 0 -56 24 -56 55s24 55 56 55s57 -24 57 -55s-25 -55 -57 -55zM218 754c-32 0 -56 24 -56 55s24 55 56 55s57 -24 57 -55
s-25 -55 -57 -55z" />
    <glyph glyph-name="Edotaccent" unicode="&#x116;" horiz-adv-x="654" 
d="M380 375l79 107v-259l-79 108h-147v-287h251l142 169l-42 -213h-550v44h103v602h-103v44h479l54 29v-212l-103 139h-231v-271h147zM326 747c-33 0 -58 25 -58 58s25 59 58 59s59 -26 59 -59s-26 -58 -59 -58z" />
    <glyph glyph-name="Egrave" unicode="&#xc8;" horiz-adv-x="654" 
d="M380 375l79 107v-259l-79 108h-147v-287h251l142 169l-42 -213h-550v44h103v602h-103v44h479l54 29v-212l-103 139h-231v-271h147zM181 847l99 49l177 -157z" />
    <glyph glyph-name="Emacron" unicode="&#x112;" horiz-adv-x="654" 
d="M380 375l79 107v-259l-79 108h-147v-287h251l142 169l-42 -213h-550v44h103v602h-103v44h479l54 29v-212l-103 139h-231v-271h147zM194 823h312l-48 -59h-312z" />
    <glyph glyph-name="Eogonek" unicode="&#x118;" horiz-adv-x="654" 
d="M380 375l79 107v-259l-79 108h-147v-287h251l142 169l-42 -213h-108c-53 -44 -101 -108 -101 -157c0 -39 21 -57 68 -57h45c-34 -32 -60 -53 -96 -53c-43 0 -78 27 -78 78c0 58 63 135 134 189h-414v44h103v602h-103v44h479l54 29v-212l-103 139h-231v-271h147z" />
    <glyph glyph-name="Eth" unicode="&#xd0;" horiz-adv-x="802" 
d="M47 331l20 44h83v271h-103v44h261c259 0 448 -120 448 -326c0 -220 -193 -364 -438 -364h-271v44h103v287h-103zM300 646h-54v-271h179l-20 -44h-159v-287h56c215 0 346 128 346 319c0 180 -132 283 -348 283z" />
    <glyph glyph-name="Gbreve" unicode="&#x11e;" horiz-adv-x="774" 
d="M558 261h-113v44h300v-44h-93v-165h66c-63 -66 -169 -106 -293 -106c-198 0 -374 129 -374 346c0 220 183 364 353 364c81 0 146 -25 189 -52l70 52v-225c-60 95 -136 177 -262 177c-136 0 -243 -114 -243 -290c0 -201 147 -322 301 -322c35 0 71 4 99 14v207zM403 739
c-80 0 -161 69 -161 185c40 -78 91 -119 161 -119s121 41 161 119c0 -116 -81 -185 -161 -185z" />
    <glyph glyph-name="Gcircumflex" unicode="&#x11c;" horiz-adv-x="774" 
d="M558 261h-113v44h300v-44h-93v-165h66c-63 -66 -169 -106 -293 -106c-198 0 -374 129 -374 346c0 220 183 364 353 364c81 0 146 -25 189 -52l70 52v-225c-60 95 -136 177 -262 177c-136 0 -243 -114 -243 -290c0 -201 147 -322 301 -322c35 0 71 4 99 14v207zM357 903
h88l132 -173l-176 111l-176 -111z" />
    <glyph glyph-name="Gcommaaccent" unicode="&#x122;" horiz-adv-x="774" 
d="M558 261h-113v44h300v-44h-93v-165h66c-63 -66 -169 -106 -293 -106c-198 0 -374 129 -374 346c0 220 183 364 353 364c81 0 146 -25 189 -52l70 52v-225c-60 95 -136 177 -262 177c-136 0 -243 -114 -243 -290c0 -201 147 -322 301 -322c35 0 71 4 99 14v207zM366 -118
c0 27 23 53 61 53c45 0 71 -35 71 -74c0 -70 -76 -129 -157 -129c57 28 96 73 101 110h-56c-13 8 -20 23 -20 40z" />
    <glyph glyph-name="Gdotaccent" unicode="&#x120;" horiz-adv-x="774" 
d="M558 261h-113v44h300v-44h-93v-165h66c-63 -66 -169 -106 -293 -106c-198 0 -374 129 -374 346c0 220 183 364 353 364c81 0 146 -25 189 -52l70 52v-225c-60 95 -136 177 -262 177c-136 0 -243 -114 -243 -290c0 -201 147 -322 301 -322c35 0 71 4 99 14v207zM405 747
c-33 0 -58 25 -58 58s25 59 58 59s59 -26 59 -59s-26 -58 -59 -58z" />
    <glyph glyph-name="Hbar" unicode="&#x126;" horiz-adv-x="886" 
d="M47 451l20 44h83v151h-103v44h302v-44h-103v-151h394v151h-103v44h302v-44h-103v-151h103l-20 -44h-83v-407h103v-44h-302v44h103v247h-394v-247h103v-44h-302v44h103v407h-103zM246 335h394v116h-394v-116z" />
    <glyph glyph-name="Hcircumflex" unicode="&#x124;" horiz-adv-x="860" 
d="M34 690h302v-44h-103v-271h394v271h-103v44h302v-44h-103v-602h103v-44h-302v44h103v287h-394v-287h103v-44h-302v44h103v602h-103v44zM386 903h88l132 -173l-176 111l-176 -111z" />
    <glyph glyph-name="Iacute" unicode="&#xcd;" horiz-adv-x="370" 
d="M34 690h302v-44h-103v-602h103v-44h-302v44h103v602h-103v44zM355 847l-276 -108l177 157z" />
    <glyph glyph-name="Ibreve" unicode="&#x12c;" horiz-adv-x="370" 
d="M34 690h302v-44h-103v-602h103v-44h-302v44h103v602h-103v44zM185 739c-80 0 -161 69 -161 185c40 -78 91 -119 161 -119s121 41 161 119c0 -116 -81 -185 -161 -185z" />
    <glyph glyph-name="Icircumflex" unicode="&#xce;" horiz-adv-x="370" 
d="M34 690h302v-44h-103v-602h103v-44h-302v44h103v602h-103v44zM141 903h88l132 -173l-176 111l-176 -111z" />
    <glyph glyph-name="Idieresis" unicode="&#xcf;" horiz-adv-x="370" 
d="M34 690h302v-44h-103v-602h103v-44h-302v44h103v602h-103v44zM282 754c-32 0 -56 24 -56 55s24 55 56 55s57 -24 57 -55s-25 -55 -57 -55zM87 754c-32 0 -56 24 -56 55s24 55 56 55s57 -24 57 -55s-25 -55 -57 -55z" />
    <glyph glyph-name="Idotaccent" unicode="&#x130;" horiz-adv-x="370" 
d="M34 690h302v-44h-103v-602h103v-44h-302v44h103v602h-103v44zM185 747c-33 0 -58 25 -58 58s25 59 58 59s59 -26 59 -59s-26 -58 -59 -58z" />
    <glyph glyph-name="Igrave" unicode="&#xcc;" horiz-adv-x="370" 
d="M34 690h302v-44h-103v-602h103v-44h-302v44h103v602h-103v44zM15 847l99 49l177 -157z" />
    <glyph glyph-name="Imacron" unicode="&#x12a;" horiz-adv-x="370" 
d="M34 690h302v-44h-103v-602h103v-44h-302v44h103v602h-103v44zM53 823h312l-48 -59h-312z" />
    <glyph glyph-name="Iogonek" unicode="&#x12e;" horiz-adv-x="370" 
d="M34 690h302v-44h-103v-602h103v-44h-106c-53 -44 -101 -108 -101 -157c0 -39 21 -57 68 -57h45c-34 -32 -60 -53 -96 -53c-43 0 -78 27 -78 78c0 58 63 135 134 189h-168v44h103v602h-103v44z" />
    <glyph glyph-name="Itilde" unicode="&#x128;" horiz-adv-x="370" 
d="M34 690h302v-44h-103v-602h103v-44h-302v44h103v602h-103v44zM307 767l-175 47c-32 0 -78 -41 -125 -91l75 164l175 -47c32 0 78 41 125 91z" />
    <glyph glyph-name="Jcircumflex" unicode="&#x134;" horiz-adv-x="370" 
d="M137 48v598h-103v44h302v-44h-103v-613c-38 -109 -161 -263 -245 -263c-38 0 -62 26 -62 58c0 21 10 45 32 58l107 -40c36 33 72 105 72 202zM136 903h88l132 -173l-176 111l-176 -111z" />
    <glyph glyph-name="Kcommaaccent" unicode="&#x136;" horiz-adv-x="724" 
d="M34 690h302v-44h-103v-260h37l278 260h-106v44h263v-44h-92l-278 -256l385 -390h-128l-359 371v-327h103v-44h-302v44h103v602h-103v44zM320 -118c0 27 23 53 61 53c45 0 71 -35 71 -74c0 -70 -76 -129 -157 -129c57 28 96 73 101 110h-56c-13 8 -20 23 -20 40z" />
    <glyph glyph-name="Lacute" unicode="&#x139;" horiz-adv-x="631" 
d="M137 646h-103v44h302v-44h-103v-602h241l142 169l-42 -213h-540v44h103v602zM413 847l-276 -108l177 157z" />
    <glyph glyph-name="Lcaron" unicode="&#x13d;" horiz-adv-x="631" 
d="M137 646h-103v44h302v-44h-103v-602h241l142 169l-42 -213h-540v44h103v602zM513 690l-134 -263l44 263h90z" />
    <glyph glyph-name="Lcommaaccent" unicode="&#x13b;" horiz-adv-x="631" 
d="M137 646h-103v44h302v-44h-103v-602h241l142 169l-42 -213h-540v44h103v602zM256 -118c0 27 23 53 61 53c45 0 71 -35 71 -74c0 -70 -76 -129 -157 -129c57 28 96 73 101 110h-56c-13 8 -20 23 -20 40z" />
    <glyph glyph-name="Ldot" unicode="&#x13f;" horiz-adv-x="631" 
d="M137 646h-103v44h302v-44h-103v-602h241l142 169l-42 -213h-540v44h103v602zM476 335c-34 0 -61 27 -61 60s27 60 61 60s61 -27 61 -60s-27 -60 -61 -60z" />
    <glyph glyph-name="Lslash" unicode="&#x141;" horiz-adv-x="644" 
d="M47 215v47l103 60v324h-103v44h302v-44h-103v-275l159 94v-47l-159 -94v-280h241l142 169l-42 -213h-540v44h103v231z" />
    <glyph glyph-name="Nacute" unicode="&#x143;" horiz-adv-x="774" 
d="M276 0h-258v44h103v529l-102 117h122l458 -534v490h-103v44h258v-44h-103v-679l-478 547v-470h103v-44zM560 847l-276 -108l177 157z" />
    <glyph glyph-name="Ncaron" unicode="&#x147;" horiz-adv-x="774" 
d="M276 0h-258v44h103v529l-102 117h122l458 -534v490h-103v44h258v-44h-103v-679l-478 547v-470h103v-44zM338 739l-132 173l176 -111l176 111l-132 -173h-88z" />
    <glyph glyph-name="Ncommaaccent" unicode="&#x145;" horiz-adv-x="774" 
d="M276 0h-258v44h103v529l-102 117h122l458 -534v490h-103v44h258v-44h-103v-679l-478 547v-470h103v-44zM323 -118c0 27 23 53 61 53c45 0 71 -35 71 -74c0 -70 -76 -129 -157 -129c57 28 96 73 101 110h-56c-13 8 -20 23 -20 40z" />
    <glyph glyph-name="Ntilde" unicode="&#xd1;" horiz-adv-x="774" 
d="M276 0h-258v44h103v529l-102 117h122l458 -534v490h-103v44h258v-44h-103v-679l-478 547v-470h103v-44zM506 767l-175 47c-32 0 -78 -41 -125 -91l75 164l175 -47c32 0 78 41 125 91z" />
    <glyph glyph-name="Eng" unicode="&#x14a;" horiz-adv-x="774" 
d="M276 0h-258v44h103v529l-102 117h122l458 -534v490h-103v44h258v-44h-103v-698c-36 -99 -116 -238 -193 -238c-35 0 -56 27 -56 55c0 19 9 38 30 50l89 -34c34 30 78 116 78 210v35l-426 488v-470h103v-44z" />
    <glyph glyph-name="Oacute" unicode="&#xd3;" horiz-adv-x="808" 
d="M762 345c0 -205 -173 -355 -358 -355s-358 150 -358 355s173 355 358 355s358 -150 358 -355zM154 345c0 -181 124 -309 250 -309s250 128 250 309s-124 308 -250 308s-250 -127 -250 -308zM562 847l-276 -108l177 157z" />
    <glyph glyph-name="Obreve" unicode="&#x14e;" horiz-adv-x="808" 
d="M762 345c0 -205 -173 -355 -358 -355s-358 150 -358 355s173 355 358 355s358 -150 358 -355zM154 345c0 -181 124 -309 250 -309s250 128 250 309s-124 308 -250 308s-250 -127 -250 -308zM404 739c-80 0 -161 69 -161 185c40 -78 91 -119 161 -119s121 41 161 119
c0 -116 -81 -185 -161 -185z" />
    <glyph glyph-name="Ocircumflex" unicode="&#xd4;" horiz-adv-x="808" 
d="M762 345c0 -205 -173 -355 -358 -355s-358 150 -358 355s173 355 358 355s358 -150 358 -355zM154 345c0 -181 124 -309 250 -309s250 128 250 309s-124 308 -250 308s-250 -127 -250 -308zM360 903h88l132 -173l-176 111l-176 -111z" />
    <glyph glyph-name="Odieresis" unicode="&#xd6;" horiz-adv-x="808" 
d="M762 345c0 -205 -173 -355 -358 -355s-358 150 -358 355s173 355 358 355s358 -150 358 -355zM154 345c0 -181 124 -309 250 -309s250 128 250 309s-124 308 -250 308s-250 -127 -250 -308zM501 754c-32 0 -56 24 -56 55s24 55 56 55s57 -24 57 -55s-25 -55 -57 -55z
M306 754c-32 0 -56 24 -56 55s24 55 56 55s57 -24 57 -55s-25 -55 -57 -55z" />
    <glyph glyph-name="Ograve" unicode="&#xd2;" horiz-adv-x="808" 
d="M762 345c0 -205 -173 -355 -358 -355s-358 150 -358 355s173 355 358 355s358 -150 358 -355zM154 345c0 -181 124 -309 250 -309s250 128 250 309s-124 308 -250 308s-250 -127 -250 -308zM246 847l99 49l177 -157z" />
    <glyph glyph-name="Ohungarumlaut" unicode="&#x150;" horiz-adv-x="808" 
d="M762 345c0 -205 -173 -355 -358 -355s-358 150 -358 355s173 355 358 355s358 -150 358 -355zM154 345c0 -181 124 -309 250 -309s250 128 250 309s-124 308 -250 308s-250 -127 -250 -308zM569 895l113 -20l-226 -136zM375 895l113 -20l-226 -136z" />
    <glyph glyph-name="Omacron" unicode="&#x14c;" horiz-adv-x="808" 
d="M762 345c0 -205 -173 -355 -358 -355s-358 150 -358 355s173 355 358 355s358 -150 358 -355zM154 345c0 -181 124 -309 250 -309s250 128 250 309s-124 308 -250 308s-250 -127 -250 -308zM272 823h312l-48 -59h-312z" />
    <glyph glyph-name="Oslash" unicode="&#xd8;" horiz-adv-x="808" 
d="M762 345c0 -205 -173 -355 -358 -355c-64 0 -127 18 -182 50l-70 -98h-53l88 122c-84 64 -141 163 -141 281c0 205 173 355 358 355c70 0 138 -21 196 -59l57 79h53l-75 -105c76 -64 127 -159 127 -270zM154 345c0 -89 30 -166 76 -220l330 459c-45 44 -100 69 -156 69
c-126 0 -250 -127 -250 -308zM654 345c0 82 -26 153 -65 206l-328 -458c42 -36 92 -57 143 -57c126 0 250 128 250 309z" />
    <glyph glyph-name="Oslashacute" unicode="&#x1fe;" horiz-adv-x="808" 
d="M762 345c0 -205 -173 -355 -358 -355c-64 0 -127 18 -182 50l-70 -98h-53l88 122c-84 64 -141 163 -141 281c0 205 173 355 358 355c70 0 138 -21 196 -59l57 79h53l-75 -105c76 -64 127 -159 127 -270zM154 345c0 -89 30 -166 76 -220l330 459c-45 44 -100 69 -156 69
c-126 0 -250 -127 -250 -308zM654 345c0 82 -26 153 -65 206l-328 -458c42 -36 92 -57 143 -57c126 0 250 128 250 309zM562 847l-276 -108l177 157z" />
    <glyph glyph-name="Otilde" unicode="&#xd5;" horiz-adv-x="808" 
d="M762 345c0 -205 -173 -355 -358 -355s-358 150 -358 355s173 355 358 355s358 -150 358 -355zM154 345c0 -181 124 -309 250 -309s250 128 250 309s-124 308 -250 308s-250 -127 -250 -308zM516 767l-175 47c-32 0 -78 -41 -125 -91l75 164l175 -47c32 0 78 41 125 91z
" />
    <glyph glyph-name="OE" unicode="&#x152;" horiz-adv-x="1087" 
d="M494 0c-259 0 -448 120 -448 326c0 220 193 364 438 364h448l54 29v-212l-103 139h-231v-271h147l79 107v-259l-79 108h-147v-287h251l142 169l-42 -213h-509zM502 44h54v602h-56c-215 0 -346 -128 -346 -319c0 -180 132 -283 348 -283z" />
    <glyph glyph-name="Racute" unicode="&#x154;" horiz-adv-x="703" 
d="M336 44v-44h-302v44h103v602h-103v44h273c166 0 287 -52 287 -177c0 -98 -84 -157 -191 -178l304 -335h-124l-284 326h-66v-282h103zM233 646v-279h73c109 0 187 46 187 142s-78 137 -187 137h-73zM515 847l-276 -108l177 157z" />
    <glyph glyph-name="Rcaron" unicode="&#x158;" horiz-adv-x="703" 
d="M336 44v-44h-302v44h103v602h-103v44h273c166 0 287 -52 287 -177c0 -98 -84 -157 -191 -178l304 -335h-124l-284 326h-66v-282h103zM233 646v-279h73c109 0 187 46 187 142s-78 137 -187 137h-73zM263 739l-132 173l176 -111l176 111l-132 -173h-88z" />
    <glyph glyph-name="Rcommaaccent" unicode="&#x156;" horiz-adv-x="703" 
d="M336 44v-44h-302v44h103v602h-103v44h273c166 0 287 -52 287 -177c0 -98 -84 -157 -191 -178l304 -335h-124l-284 326h-66v-282h103zM233 646v-279h73c109 0 187 46 187 142s-78 137 -187 137h-73zM298 -118c0 27 23 53 61 53c45 0 71 -35 71 -74
c0 -70 -76 -129 -157 -129c57 28 96 73 101 110h-56c-13 8 -20 23 -20 40z" />
    <glyph glyph-name="Sacute" unicode="&#x15a;" horiz-adv-x="555" 
d="M263 652c-68 0 -115 -46 -115 -110c0 -158 352 -125 352 -337c0 -127 -111 -215 -248 -215c-73 0 -154 29 -202 73v167c50 -120 125 -191 224 -191c75 0 137 45 137 126c0 184 -343 129 -343 343c0 104 83 192 199 192c58 0 111 -24 139 -50l69 52v-225
c-52 94 -118 175 -212 175zM467 847l-276 -108l177 157z" />
    <glyph glyph-name="Scaron" unicode="&#x160;" horiz-adv-x="555" 
d="M263 652c-68 0 -115 -46 -115 -110c0 -158 352 -125 352 -337c0 -127 -111 -215 -248 -215c-73 0 -154 29 -202 73v167c50 -120 125 -191 224 -191c75 0 137 45 137 126c0 184 -343 129 -343 343c0 104 83 192 199 192c58 0 111 -24 139 -50l69 52v-225
c-52 94 -118 175 -212 175zM225 739l-132 173l176 -111l176 111l-132 -173h-88z" />
    <glyph glyph-name="Scedilla" unicode="&#x15e;" horiz-adv-x="555" 
d="M197 -267c-35 0 -57 17 -57 40c0 25 21 42 46 42l41 -58c27 5 62 33 62 65c0 37 -46 60 -101 74l56 94c-71 2 -148 31 -194 73v167c50 -120 125 -191 224 -191c75 0 137 45 137 126c0 184 -343 129 -343 343c0 104 83 192 199 192c58 0 111 -24 139 -50l69 52v-225
c-52 94 -118 175 -212 175c-68 0 -115 -46 -115 -110c0 -158 352 -125 352 -337c0 -125 -108 -212 -242 -215l-4 -47c46 -20 91 -43 91 -94c0 -59 -86 -116 -148 -116z" />
    <glyph glyph-name="Scircumflex" unicode="&#x15c;" horiz-adv-x="555" 
d="M263 652c-68 0 -115 -46 -115 -110c0 -158 352 -125 352 -337c0 -127 -111 -215 -248 -215c-73 0 -154 29 -202 73v167c50 -120 125 -191 224 -191c75 0 137 45 137 126c0 184 -343 129 -343 343c0 104 83 192 199 192c58 0 111 -24 139 -50l69 52v-225
c-52 94 -118 175 -212 175zM234 903h88l132 -173l-176 111l-176 -111z" />
    <glyph glyph-name="Scommaaccent" unicode="&#x218;" horiz-adv-x="555" 
d="M263 652c-68 0 -115 -46 -115 -110c0 -158 352 -125 352 -337c0 -127 -111 -215 -248 -215c-73 0 -154 29 -202 73v167c50 -120 125 -191 224 -191c75 0 137 45 137 126c0 184 -343 129 -343 343c0 104 83 192 199 192c58 0 111 -24 139 -50l69 52v-225
c-52 94 -118 175 -212 175zM200 -118c0 27 23 53 61 53c45 0 71 -35 71 -74c0 -70 -76 -129 -157 -129c57 28 96 73 101 110h-56c-13 8 -20 23 -20 40z" />
    <glyph glyph-name="Germandbls" unicode="&#x1e9e;" horiz-adv-x="763" 
d="M508 37c75 0 134 53 134 141c0 101 -94 169 -229 194l153 197c-33 52 -101 92 -172 92c-131 0 -181 -120 -181 -239v-422h-199v44h103v377c0 168 114 279 289 279c81 0 156 -21 207 -42l93 24l-194 -251c106 -29 214 -99 214 -220c0 -113 -90 -221 -226 -221
c-77 0 -141 27 -187 68v165c48 -119 116 -186 195 -186z" />
    <glyph glyph-name="Tbar" unicode="&#x166;" horiz-adv-x="724" 
d="M174 331l20 44h120v271h-171l-103 -149v222l54 -29h536l54 29v-222l-103 149h-171v-271h140l-20 -44h-120v-287h113v-44h-322v44h113v287h-140z" />
    <glyph glyph-name="Tcaron" unicode="&#x164;" horiz-adv-x="724" 
d="M143 646l-103 -149v222l54 -29h536l54 29v-222l-103 149h-171v-602h113v-44h-322v44h113v602h-171zM318 739h88l132 173l-176 -111l-176 111z" />
    <glyph glyph-name="Tcommaaccent" unicode="&#x162;" horiz-adv-x="724" 
d="M301 -267c-35 0 -57 17 -57 40c0 25 21 42 46 42l41 -58c27 5 62 33 62 65c0 37 -46 60 -101 74l62 104h-153v44h113v602h-171l-103 -149v222l54 -29h536l54 29v-222l-103 149h-171v-602h113v-44h-160l-5 -57c46 -20 91 -43 91 -94c0 -59 -86 -116 -148 -116z" />
    <glyph glyph-name="uni021A" unicode="&#x21a;" horiz-adv-x="724" 
d="M143 646l-103 -149v222l54 -29h536l54 29v-222l-103 149h-171v-602h113v-44h-322v44h113v602h-171zM304 -118c0 27 23 53 61 53c45 0 71 -35 71 -74c0 -70 -76 -129 -157 -129c57 28 96 73 101 110h-56c-13 8 -20 23 -20 40z" />
    <glyph glyph-name="Thorn" unicode="&#xde;" horiz-adv-x="629" 
d="M34 44h103v602h-103v44h302v-44h-103v-101h75c168 0 287 -64 287 -200c0 -122 -120 -187 -228 -187l-77 37c146 0 207 59 207 153c0 107 -79 153 -190 153h-74v-457h128v-44h-327v44z" />
    <glyph glyph-name="Uacute" unicode="&#xda;" horiz-adv-x="780" 
d="M609 269v377h-103v44h258v-44h-103v-392c0 -167 -123 -264 -265 -264c-127 0 -277 79 -277 261v395h-103v44h302v-44h-103v-376c0 -144 80 -217 198 -217s196 73 196 216zM572 847l-276 -108l177 157z" />
    <glyph glyph-name="Ubreve" unicode="&#x16c;" horiz-adv-x="780" 
d="M609 269v377h-103v44h258v-44h-103v-392c0 -167 -123 -264 -265 -264c-127 0 -277 79 -277 261v395h-103v44h302v-44h-103v-376c0 -144 80 -217 198 -217s196 73 196 216zM409 739c-80 0 -161 69 -161 185c40 -78 91 -119 161 -119s121 41 161 119
c0 -116 -81 -185 -161 -185z" />
    <glyph glyph-name="Ucircumflex" unicode="&#xdb;" horiz-adv-x="780" 
d="M609 269v377h-103v44h258v-44h-103v-392c0 -167 -123 -264 -265 -264c-127 0 -277 79 -277 261v395h-103v44h302v-44h-103v-376c0 -144 80 -217 198 -217s196 73 196 216zM365 903h88l132 -173l-176 111l-176 -111z" />
    <glyph glyph-name="Udieresis" unicode="&#xdc;" horiz-adv-x="780" 
d="M609 269v377h-103v44h258v-44h-103v-392c0 -167 -123 -264 -265 -264c-127 0 -277 79 -277 261v395h-103v44h302v-44h-103v-376c0 -144 80 -217 198 -217s196 73 196 216zM512 754c-32 0 -56 24 -56 55s24 55 56 55s57 -24 57 -55s-25 -55 -57 -55zM317 754
c-32 0 -56 24 -56 55s24 55 56 55s57 -24 57 -55s-25 -55 -57 -55z" />
    <glyph glyph-name="Ugrave" unicode="&#xd9;" horiz-adv-x="780" 
d="M609 269v377h-103v44h258v-44h-103v-392c0 -167 -123 -264 -265 -264c-127 0 -277 79 -277 261v395h-103v44h302v-44h-103v-376c0 -144 80 -217 198 -217s196 73 196 216zM225 847l99 49l177 -157z" />
    <glyph glyph-name="Uhungarumlaut" unicode="&#x170;" horiz-adv-x="780" 
d="M609 269v377h-103v44h258v-44h-103v-392c0 -167 -123 -264 -265 -264c-127 0 -277 79 -277 261v395h-103v44h302v-44h-103v-376c0 -144 80 -217 198 -217s196 73 196 216zM578 895l113 -20l-226 -136zM384 895l113 -20l-226 -136z" />
    <glyph glyph-name="Umacron" unicode="&#x16a;" horiz-adv-x="780" 
d="M609 269v377h-103v44h258v-44h-103v-392c0 -167 -123 -264 -265 -264c-127 0 -277 79 -277 261v395h-103v44h302v-44h-103v-376c0 -144 80 -217 198 -217s196 73 196 216zM293 823h312l-48 -59h-312z" />
    <glyph glyph-name="Uogonek" unicode="&#x172;" horiz-adv-x="780" 
d="M609 269v377h-103v44h258v-44h-103v-392c0 -117 -64 -194 -145 -241c-64 -37 -118 -116 -118 -170c0 -39 21 -57 68 -57h45c-34 -32 -60 -53 -96 -53c-43 0 -78 27 -78 78c0 57 60 133 130 187c-23 -5 -47 -8 -71 -8c-127 0 -277 79 -277 261v395h-103v44h302v-44h-103
v-376c0 -144 80 -217 198 -217s196 73 196 216z" />
    <glyph glyph-name="Uring" unicode="&#x16e;" horiz-adv-x="780" 
d="M609 269v377h-103v44h258v-44h-103v-392c0 -167 -123 -264 -265 -264c-127 0 -277 79 -277 261v395h-103v44h302v-44h-103v-376c0 -144 80 -217 198 -217s196 73 196 216zM410 941c60 0 110 -50 110 -110c0 -59 -50 -109 -110 -109s-110 50 -110 109c0 60 50 110 110 110
zM410 900c-42 0 -69 -27 -69 -69c0 -41 27 -68 69 -68s69 27 69 68c0 42 -27 69 -69 69z" />
    <glyph glyph-name="Utilde" unicode="&#x168;" horiz-adv-x="780" 
d="M609 269v377h-103v44h258v-44h-103v-392c0 -167 -123 -264 -265 -264c-127 0 -277 79 -277 261v395h-103v44h302v-44h-103v-376c0 -144 80 -217 198 -217s196 73 196 216zM544 767l-175 47c-32 0 -78 -41 -125 -91l75 164l175 -47c32 0 78 41 125 91z" />
    <glyph glyph-name="Wacute" unicode="&#x1e82;" horiz-adv-x="1074" 
d="M202 646l191 -500l128 336l-58 164h-73v44h294v-44h-123l170 -498l188 498h-123v44h258v-44h-83l-264 -687l-163 460l-177 -460l-264 687h-83v44h285v-44h-103zM696 847l-276 -108l177 157z" />
    <glyph glyph-name="Wcircumflex" unicode="&#x174;" horiz-adv-x="1074" 
d="M202 646l191 -500l128 336l-58 164h-73v44h294v-44h-123l170 -498l188 498h-123v44h258v-44h-83l-264 -687l-163 460l-177 -460l-264 687h-83v44h285v-44h-103zM488 903h88l132 -173l-176 111l-176 -111z" />
    <glyph glyph-name="Wgrave" unicode="&#x1e80;" horiz-adv-x="1074" 
d="M202 646l191 -500l128 336l-58 164h-73v44h294v-44h-123l170 -498l188 498h-123v44h258v-44h-83l-264 -687l-163 460l-177 -460l-264 687h-83v44h285v-44h-103zM373 847l99 49l177 -157z" />
    <glyph glyph-name="Wdieresis" unicode="&#x1e84;" horiz-adv-x="1074" 
d="M202 646l191 -500l128 336l-58 164h-73v44h294v-44h-123l170 -498l188 498h-123v44h258v-44h-83l-264 -687l-163 460l-177 -460l-264 687h-83v44h285v-44h-103zM633 754c-32 0 -56 24 -56 55s24 55 56 55s57 -24 57 -55s-25 -55 -57 -55zM438 754c-32 0 -56 24 -56 55
s24 55 56 55s57 -24 57 -55s-25 -55 -57 -55z" />
    <glyph glyph-name="Yacute" unicode="&#xdd;" horiz-adv-x="754" 
d="M538 0h-322v44h113v289l-226 313h-83v44h318v-44h-123l186 -271l193 271h-123v44h263v-44h-83l-226 -313v-289h113v-44zM576 847l-99 49l-177 -157z" />
    <glyph glyph-name="Ycircumflex" unicode="&#x176;" horiz-adv-x="754" 
d="M538 0h-322v44h113v289l-226 313h-83v44h318v-44h-123l186 -271l193 271h-123v44h263v-44h-83l-226 -313v-289h113v-44zM348 903h88l132 -173l-176 111l-176 -111z" />
    <glyph glyph-name="Ydieresis" unicode="&#x178;" horiz-adv-x="754" 
d="M538 0h-322v44h113v289l-226 313h-83v44h318v-44h-123l186 -271l193 271h-123v44h263v-44h-83l-226 -313v-289h113v-44zM496 754c-32 0 -56 24 -56 55s24 55 56 55s57 -24 57 -55s-25 -55 -57 -55zM301 754c-32 0 -56 24 -56 55s24 55 56 55s57 -24 57 -55
s-25 -55 -57 -55z" />
    <glyph glyph-name="Ygrave" unicode="&#x1ef2;" horiz-adv-x="754" 
d="M538 0h-322v44h113v289l-226 313h-83v44h318v-44h-123l186 -271l193 271h-123v44h263v-44h-83l-226 -313v-289h113v-44zM203 847l99 49l177 -157z" />
    <glyph glyph-name="Zacute" unicode="&#x179;" horiz-adv-x="657" 
d="M489 44l142 169l-42 -213h-562l451 646h-298l-103 -149v222l54 -29h482l-448 -646h324zM513 847l-276 -108l177 157z" />
    <glyph glyph-name="Zcaron" unicode="&#x17d;" horiz-adv-x="657" 
d="M489 44l142 169l-42 -213h-562l451 646h-298l-103 -149v222l54 -29h482l-448 -646h324zM301 739l-132 173l176 -111l176 111l-132 -173h-88z" />
    <glyph glyph-name="Zdotaccent" unicode="&#x17b;" horiz-adv-x="657" 
d="M489 44l142 169l-42 -213h-562l451 646h-298l-103 -149v222l54 -29h482l-448 -646h324zM335 747c-33 0 -58 25 -58 58s25 59 58 59s59 -26 59 -59s-26 -58 -59 -58z" />
    <glyph glyph-name="a" unicode="a" horiz-adv-x="452" 
d="M272 317c0 53 -28 108 -134 78v-92h-109c35 86 135 157 224 157c55 0 101 -39 101 -113v-231c0 -39 19 -56 47 -56c19 0 37 7 51 23c0 -54 -46 -91 -96 -91c-46 0 -72 27 -83 61h-18c-26 -24 -69 -60 -124 -60c-48 0 -95 35 -95 93c0 65 61 102 122 126l114 45v60z
M272 225l-57 -24c-60 -25 -92 -46 -92 -92c0 -35 27 -54 63 -54c34 0 62 15 86 38v132z" />
    <glyph glyph-name="b" unicode="b" horiz-adv-x="548" 
d="M77 666l-98 46l186 68v-374h19c36 28 83 54 135 54c117 0 196 -91 196 -220c0 -151 -124 -250 -264 -250c-58 0 -133 17 -174 43v633zM165 360v-276c16 -32 55 -52 103 -52c80 0 152 54 152 183c0 117 -67 186 -167 186c-40 0 -76 -20 -88 -41z" />
    <glyph glyph-name="c" unicode="c" horiz-adv-x="435" 
d="M333 323l-55 98c-88 0 -165 -75 -165 -182c0 -108 69 -173 161 -173c56 0 104 28 132 68c-10 -81 -78 -144 -170 -144c-112 0 -203 91 -203 218c0 143 116 252 247 252c75 0 119 -34 119 -78c0 -33 -31 -59 -66 -59z" />
    <glyph glyph-name="d" unicode="d" horiz-adv-x="564" 
d="M471 85l88 -46l-176 -58v60h-23c-36 -28 -79 -51 -131 -51c-113 0 -196 91 -196 220c0 151 126 250 252 250c29 0 64 -5 98 -19v225l-98 46l186 68v-695zM383 90v275c-13 30 -54 53 -103 53c-80 0 -152 -54 -152 -183c0 -117 71 -186 167 -186c40 0 76 20 88 41z" />
    <glyph glyph-name="e" unicode="e" horiz-adv-x="454" 
d="M418 139c-17 -100 -90 -149 -176 -149c-119 0 -209 97 -209 230c0 125 97 240 215 240c110 0 176 -86 176 -188h-320c-1 -6 -1 -12 -1 -19c0 -110 78 -184 170 -184c60 0 107 19 145 70zM233 411c-55 0 -105 -36 -123 -102h222c0 62 -40 102 -99 102z" />
    <glyph glyph-name="f" unicode="f" horiz-adv-x="317" 
d="M98 40v321l-87 48l87 51c22 185 135 320 277 320c48 0 81 -26 81 -61c0 -30 -24 -53 -57 -53l-80 67c-90 -28 -133 -136 -133 -296h144l-30 -50h-114v-347h102v-40h-262v40h72z" />
    <glyph glyph-name="g" unicode="g" horiz-adv-x="519" 
d="M146 44h207c94 0 157 -38 157 -115c0 -128 -154 -219 -307 -219c-108 0 -199 42 -199 119c0 61 67 104 123 129v18c-30 11 -59 36 -59 78c0 40 27 77 66 108c-50 28 -85 77 -85 136c0 93 89 162 187 162c50 0 98 -18 133 -48l139 61v-91h-112c17 -24 27 -53 27 -84
c0 -94 -89 -162 -187 -162c-32 0 -63 7 -90 20v-112zM141 298c0 -70 40 -125 95 -125s95 55 95 125s-40 125 -95 125s-95 -55 -95 -125zM313 -36h-137c-42 -18 -84 -52 -84 -109c0 -56 55 -99 157 -99c95 0 185 53 185 133c0 56 -49 75 -121 75z" />
    <glyph glyph-name="h" unicode="h" horiz-adv-x="562" 
d="M93 666l-98 46l186 68v-396h23c35 34 81 76 148 76c82 0 120 -60 120 -147v-273h72v-40h-232v40h72v248c0 67 -36 102 -98 102c-41 0 -79 -28 -105 -53v-297h72v-40h-232v40h72v626z" />
    <glyph glyph-name="i" unicode="i" horiz-adv-x="280" 
d="M133 585c-34 0 -61 27 -61 60s27 60 61 60s61 -27 61 -60s-27 -60 -61 -60zM98 40v306l-88 56l176 68v-430h72v-40h-232v40h72z" />
    <glyph glyph-name="j" unicode="j" horiz-adv-x="254" 
d="M127 585c-34 0 -61 27 -61 60s27 60 61 60s61 -27 61 -60s-27 -60 -61 -60zM-49 -290c-35 0 -56 27 -56 55c0 19 9 38 30 50l94 -34c34 30 73 86 73 180v385l-88 56l176 68v-522c-36 -99 -153 -238 -229 -238z" />
    <glyph glyph-name="k" unicode="k" horiz-adv-x="544" 
d="M93 40v626l-98 46l186 68v-512h34l165 132v10h-83v40h222v-40h-61l-183 -143l269 -267h-124l-239 253v-213h72v-40h-232v40h72z" />
    <glyph glyph-name="l" unicode="l" horiz-adv-x="276" 
d="M93 40v626l-98 46l186 68v-740h72v-40h-232v40h72z" />
    <glyph glyph-name="m" unicode="m" horiz-adv-x="858" 
d="M98 346l-88 56l176 68v-86h23c35 34 81 76 148 76c61 0 96 -34 115 -81h18c35 34 91 81 158 81c82 0 120 -60 120 -147v-273h72v-40h-232v40h72v248c0 67 -36 102 -98 102c-41 0 -79 -28 -105 -53v-297h72v-40h-232v40h72v248c0 67 -36 102 -98 102
c-41 0 -79 -28 -105 -53v-297h72v-40h-232v40h72v306z" />
    <glyph glyph-name="n" unicode="n" horiz-adv-x="567" 
d="M98 346l-88 56l176 68v-86h23c35 34 81 76 148 76c82 0 120 -60 120 -147v-273h72v-40h-232v40h72v248c0 67 -36 102 -98 102c-41 0 -79 -28 -105 -53v-297h72v-40h-232v40h72v306z" />
    <glyph glyph-name="o" unicode="o" horiz-adv-x="538" 
d="M33 225c0 138 113 235 236 235s236 -97 236 -235s-113 -235 -236 -235s-236 97 -236 235zM130 225c0 -114 66 -196 139 -196s139 82 139 196s-66 196 -139 196s-139 -84 -139 -196z" />
    <glyph glyph-name="p" unicode="p" horiz-adv-x="563" 
d="M92 346l-88 56l176 68v-64h19c36 28 83 54 135 54c117 0 196 -91 196 -220c0 -151 -126 -250 -244 -250c-37 0 -72 5 -106 19v-249h102v-40h-262v40h72v586zM180 84c16 -32 55 -52 103 -52c80 0 152 54 152 183c0 117 -67 186 -167 186c-40 0 -76 -20 -88 -41v-276z" />
    <glyph glyph-name="q" unicode="q" horiz-adv-x="544" 
d="M383 -240v281h-23c-36 -28 -79 -51 -131 -51c-113 0 -196 91 -196 220c0 151 126 250 252 250c43 0 86 -10 120 -24l66 37v-713h72v-40h-262v40h102zM383 90v275c-13 30 -54 53 -103 53c-80 0 -152 -54 -152 -183c0 -117 71 -186 167 -186c40 0 76 20 88 41z" />
    <glyph glyph-name="r" unicode="r" horiz-adv-x="400" 
d="M98 346l-88 56l176 68v-88h21c46 42 83 78 126 78c32 0 57 -22 57 -54c0 -27 -20 -51 -47 -62l-78 47l-79 -59v-292h102v-40h-262v40h72v306z" />
    <glyph glyph-name="s" unicode="s" horiz-adv-x="389" 
d="M39 41v124c39 -91 97 -129 151 -129c42 0 77 25 77 71c0 108 -218 74 -218 221c0 80 69 132 141 132c35 0 70 -16 90 -35l50 35v-167c-42 71 -90 123 -142 123c-36 0 -64 -22 -64 -61c0 -101 222 -73 222 -222c0 -81 -75 -143 -167 -143c-58 0 -113 23 -140 51z" />
    <glyph glyph-name="t" unicode="t" horiz-adv-x="369" 
d="M7 406l166 140v-109h173l-30 -50h-143v-236c0 -67 38 -94 84 -94c38 0 70 13 102 44c-24 -73 -79 -111 -148 -111c-66 0 -122 42 -122 123l4 260z" />
    <glyph glyph-name="u" unicode="u" horiz-adv-x="555" 
d="M373 -19v62h-23c-36 -28 -79 -53 -128 -53c-85 0 -132 60 -132 147v268h-78v40l166 11v-294c0 -74 45 -113 107 -113c40 0 76 20 88 41v315h-78v40l166 11v-371l88 -46z" />
    <glyph glyph-name="v" unicode="v" horiz-adv-x="496" 
d="M395 410h-83v40h177v-40h-46l-194 -440l-196 440h-46v40h223v-40h-80l120 -296z" />
    <glyph glyph-name="w" unicode="w" horiz-adv-x="711" 
d="M610 410h-83v40h177v-40h-46l-184 -440l-110 293l-130 -293l-181 440h-46v40h201v-40h-61l111 -294l87 196l-37 98h-46v40h211v-40h-80l102 -292z" />
    <glyph glyph-name="x" unicode="x" horiz-adv-x="516" 
d="M66 40l152 187l-139 183h-53v40h223v-40h-73l104 -136l109 136h-77v40h177v-40h-49l-138 -166l155 -204h53v-40h-223v40h73l-118 156l-125 -156h89v-40h-199v40h59z" />
    <glyph glyph-name="y" unicode="y" horiz-adv-x="496" 
d="M395 410h-83v40h177v-40h-46l-251 -614c-19 -46 -44 -86 -98 -86c-41 0 -65 30 -65 61c0 17 7 34 22 48l91 -33l75 185l-164 439h-46v40h223v-40h-80l115 -336z" />
    <glyph glyph-name="z" unicode="z" horiz-adv-x="457" 
d="M140 37h186l111 153l-23 -190h-399l290 413h-149l-124 -122l40 199l38 -40h314z" />
    <glyph glyph-name="aacute" unicode="&#xe1;" horiz-adv-x="452" 
d="M272 317c0 53 -28 108 -134 78v-92h-109c35 86 135 157 224 157c55 0 101 -39 101 -113v-231c0 -39 19 -56 47 -56c19 0 37 7 51 23c0 -54 -46 -91 -96 -91c-46 0 -72 27 -83 61h-18c-26 -24 -69 -60 -124 -60c-48 0 -95 35 -95 93c0 65 61 102 122 126l114 45v60z
M272 225l-57 -24c-60 -25 -92 -46 -92 -92c0 -35 27 -54 63 -54c34 0 62 15 86 38v132zM360 755l-174 -263l74 263h100z" />
    <glyph glyph-name="abreve" unicode="&#x103;" horiz-adv-x="452" 
d="M272 317c0 53 -28 108 -134 78v-92h-109c35 86 135 157 224 157c55 0 101 -39 101 -113v-231c0 -39 19 -56 47 -56c19 0 37 7 51 23c0 -54 -46 -91 -96 -91c-46 0 -72 27 -83 61h-18c-26 -24 -69 -60 -124 -60c-48 0 -95 35 -95 93c0 65 61 102 122 126l114 45v60z
M272 225l-57 -24c-60 -25 -92 -46 -92 -92c0 -35 27 -54 63 -54c34 0 62 15 86 38v132zM218 578c59 0 94 73 121 190c20 -132 -31 -256 -121 -256s-141 124 -121 256c27 -117 62 -190 121 -190z" />
    <glyph glyph-name="acircumflex" unicode="&#xe2;" horiz-adv-x="452" 
d="M272 317c0 53 -28 108 -134 78v-92h-109c35 86 135 157 224 157c55 0 101 -39 101 -113v-231c0 -39 19 -56 47 -56c19 0 37 7 51 23c0 -54 -46 -91 -96 -91c-46 0 -72 27 -83 61h-18c-26 -24 -69 -60 -124 -60c-48 0 -95 35 -95 93c0 65 61 102 122 126l114 45v60z
M272 225l-57 -24c-60 -25 -92 -46 -92 -92c0 -35 27 -54 63 -54c34 0 62 15 86 38v132zM217 681l-134 -189l100 263h68l100 -263z" />
    <glyph glyph-name="adieresis" unicode="&#xe4;" horiz-adv-x="452" 
d="M272 317c0 53 -28 108 -134 78v-92h-109c35 86 135 157 224 157c55 0 101 -39 101 -113v-231c0 -39 19 -56 47 -56c19 0 37 7 51 23c0 -54 -46 -91 -96 -91c-46 0 -72 27 -83 61h-18c-26 -24 -69 -60 -124 -60c-48 0 -95 35 -95 93c0 65 61 102 122 126l114 45v60z
M272 225l-57 -24c-60 -25 -92 -46 -92 -92c0 -35 27 -54 63 -54c34 0 62 15 86 38v132zM311 579c-32 0 -56 24 -56 55s24 55 56 55s57 -24 57 -55s-25 -55 -57 -55zM126 579c-32 0 -56 24 -56 55s24 55 56 55s57 -24 57 -55s-25 -55 -57 -55z" />
    <glyph glyph-name="agrave" unicode="&#xe0;" horiz-adv-x="452" 
d="M272 317c0 53 -28 108 -134 78v-92h-109c35 86 135 157 224 157c55 0 101 -39 101 -113v-231c0 -39 19 -56 47 -56c19 0 37 7 51 23c0 -54 -46 -91 -96 -91c-46 0 -72 27 -83 61h-18c-26 -24 -69 -60 -124 -60c-48 0 -95 35 -95 93c0 65 61 102 122 126l114 45v60z
M272 225l-57 -24c-60 -25 -92 -46 -92 -92c0 -35 27 -54 63 -54c34 0 62 15 86 38v132zM101 755h100l74 -263z" />
    <glyph glyph-name="amacron" unicode="&#x101;" horiz-adv-x="452" 
d="M272 317c0 53 -28 108 -134 78v-92h-109c35 86 135 157 224 157c55 0 101 -39 101 -113v-231c0 -39 19 -56 47 -56c19 0 37 7 51 23c0 -54 -46 -91 -96 -91c-46 0 -72 27 -83 61h-18c-26 -24 -69 -60 -124 -60c-48 0 -95 35 -95 93c0 65 61 102 122 126l114 45v60z
M272 225l-57 -24c-60 -25 -92 -46 -92 -92c0 -35 27 -54 63 -54c34 0 62 15 86 38v132zM118 638h249l-43 -54h-249z" />
    <glyph glyph-name="aogonek" unicode="&#x105;" horiz-adv-x="452" 
d="M272 317c0 53 -28 108 -134 78v-92h-109c35 86 135 157 224 157c55 0 101 -39 101 -113v-231c0 -39 19 -56 47 -56c19 0 37 7 51 23c0 -41 -30 -67 -65 -96c-46 -38 -88 -90 -88 -144c0 -39 21 -57 68 -57h45c-34 -32 -60 -53 -96 -53c-43 0 -78 27 -78 78
c0 55 57 128 124 181c-48 0 -78 26 -89 61h-18c-26 -24 -69 -60 -124 -60c-48 0 -95 35 -95 93c0 65 61 102 122 126l114 45v60zM272 225l-57 -24c-60 -25 -92 -46 -92 -92c0 -35 27 -54 63 -54c34 0 62 15 86 38v132z" />
    <glyph glyph-name="aring" unicode="&#xe5;" horiz-adv-x="452" 
d="M272 317c0 53 -28 108 -134 78v-92h-109c35 86 135 157 224 157c55 0 101 -39 101 -113v-231c0 -39 19 -56 47 -56c19 0 37 7 51 23c0 -54 -46 -91 -96 -91c-46 0 -72 27 -83 61h-18c-26 -24 -69 -60 -124 -60c-48 0 -95 35 -95 93c0 65 61 102 122 126l114 45v60z
M272 225l-57 -24c-60 -25 -92 -46 -92 -92c0 -35 27 -54 63 -54c34 0 62 15 86 38v132zM215 731c55 0 100 -45 100 -100c0 -54 -45 -99 -100 -99s-100 45 -100 99c0 55 45 100 100 100zM215 693c-35 0 -62 -27 -62 -62c0 -34 27 -61 62 -61s62 27 62 61c0 35 -27 62 -62 62z
" />
    <glyph glyph-name="atilde" unicode="&#xe3;" horiz-adv-x="452" 
d="M272 317c0 53 -28 108 -134 78v-92h-109c35 86 135 157 224 157c55 0 101 -39 101 -113v-231c0 -39 19 -56 47 -56c19 0 37 7 51 23c0 -54 -46 -91 -96 -91c-46 0 -72 27 -83 61h-18c-26 -24 -69 -60 -124 -60c-48 0 -95 35 -95 93c0 65 61 102 122 126l114 45v60z
M272 225l-57 -24c-60 -25 -92 -46 -92 -92c0 -35 27 -54 63 -54c34 0 62 15 86 38v132zM323 571l-155 47c-32 0 -78 -41 -125 -91l75 164l155 -47c32 0 78 41 125 91z" />
    <glyph glyph-name="ae" unicode="&#xe6;" horiz-adv-x="679" 
d="M649 139c-17 -100 -90 -149 -176 -149c-69 0 -129 33 -167 87h-15c-29 -47 -84 -84 -145 -84c-63 0 -110 44 -110 103c0 76 58 118 187 145l43 9c3 22 8 43 16 63c-2 52 -40 114 -144 82v-92h-109c35 86 135 157 224 157c39 0 73 -19 90 -57c37 35 85 57 136 57
c110 0 168 -73 173 -162l-317 -67c10 -98 83 -162 169 -162c60 0 107 19 145 70zM563 312c0 59 -40 99 -99 99c-66 0 -125 -52 -130 -147zM121 120c0 -37 27 -65 67 -65c36 0 75 16 102 49c-17 34 -26 73 -26 113l-36 -8c-77 -16 -107 -43 -107 -89z" />
    <glyph glyph-name="aeacute" unicode="&#x1fd;" horiz-adv-x="679" 
d="M649 139c-17 -100 -90 -149 -176 -149c-69 0 -129 33 -167 87h-15c-29 -47 -84 -84 -145 -84c-63 0 -110 44 -110 103c0 76 58 118 187 145l43 9c3 22 8 43 16 63c-2 52 -40 114 -144 82v-92h-109c35 86 135 157 224 157c39 0 73 -19 90 -57c37 35 85 57 136 57
c110 0 168 -73 173 -162l-317 -67c10 -98 83 -162 169 -162c60 0 107 19 145 70zM563 312c0 59 -40 99 -99 99c-66 0 -125 -52 -130 -147zM121 120c0 -37 27 -65 67 -65c36 0 75 16 102 49c-17 34 -26 73 -26 113l-36 -8c-77 -16 -107 -43 -107 -89zM513 755l-174 -263
l74 263h100z" />
    <glyph glyph-name="cacute" unicode="&#x107;" horiz-adv-x="435" 
d="M333 323l-55 98c-88 0 -165 -75 -165 -182c0 -108 69 -173 161 -173c56 0 104 28 132 68c-10 -81 -78 -144 -170 -144c-112 0 -203 91 -203 218c0 143 116 252 247 252c75 0 119 -34 119 -78c0 -33 -31 -59 -66 -59zM381 755l-174 -263l74 263h100z" />
    <glyph glyph-name="ccaron" unicode="&#x10d;" horiz-adv-x="435" 
d="M333 323l-55 98c-88 0 -165 -75 -165 -182c0 -108 69 -173 161 -173c56 0 104 28 132 68c-10 -81 -78 -144 -170 -144c-112 0 -203 91 -203 218c0 143 116 252 247 252c75 0 119 -34 119 -78c0 -33 -31 -59 -66 -59zM256 594l134 189l-100 -263h-68l-100 263z" />
    <glyph glyph-name="ccedilla" unicode="&#xe7;" horiz-adv-x="435" 
d="M168 -267c-35 0 -57 17 -57 40c0 25 21 42 46 42l41 -58c27 5 62 33 62 65c0 37 -46 60 -101 74l57 95c-103 10 -183 98 -183 217c0 143 116 252 247 252c75 0 119 -34 119 -78c0 -33 -31 -59 -66 -59l-55 98c-88 0 -165 -75 -165 -182c0 -108 69 -173 161 -173
c56 0 104 28 132 68c-10 -81 -78 -144 -170 -144h-7l-4 -47c46 -20 91 -43 91 -94c0 -59 -86 -116 -148 -116z" />
    <glyph glyph-name="ccircumflex" unicode="&#x109;" horiz-adv-x="435" 
d="M333 323l-55 98c-88 0 -165 -75 -165 -182c0 -108 69 -173 161 -173c56 0 104 28 132 68c-10 -81 -78 -144 -170 -144c-112 0 -203 91 -203 218c0 143 116 252 247 252c75 0 119 -34 119 -78c0 -33 -31 -59 -66 -59zM238 681l-134 -189l100 263h68l100 -263z" />
    <glyph glyph-name="cdotaccent" unicode="&#x10b;" horiz-adv-x="435" 
d="M333 323l-55 98c-88 0 -165 -75 -165 -182c0 -108 69 -173 161 -173c56 0 104 28 132 68c-10 -81 -78 -144 -170 -144c-112 0 -203 91 -203 218c0 143 116 252 247 252c75 0 119 -34 119 -78c0 -33 -31 -59 -66 -59zM245 585c-34 0 -61 27 -61 60s27 60 61 60
s61 -27 61 -60s-27 -60 -61 -60z" />
    <glyph glyph-name="dcaron" unicode="&#x10f;" horiz-adv-x="674" 
d="M471 85l88 -46l-176 -58v60h-23c-36 -28 -79 -51 -131 -51c-113 0 -196 91 -196 220c0 151 126 250 252 250c29 0 64 -5 98 -19v225l-98 46l186 68v-695zM383 90v275c-13 30 -54 53 -103 53c-80 0 -152 -54 -152 -183c0 -117 71 -186 167 -186c40 0 76 20 88 41zM668 770
l-134 -263l44 263h90z" />
    <glyph glyph-name="dcroat" unicode="&#x111;" horiz-adv-x="564" 
d="M471 85l88 -46l-176 -58v60h-23c-36 -28 -79 -51 -131 -51c-113 0 -196 91 -196 220c0 151 126 250 252 250c29 0 64 -5 98 -19v113h-158l14 36h144v76l-98 46l186 68v-190h74l-14 -36h-60v-469zM383 90v275c-13 30 -54 53 -103 53c-80 0 -152 -54 -152 -183
c0 -117 71 -186 167 -186c40 0 76 20 88 41z" />
    <glyph glyph-name="eacute" unicode="&#xe9;" horiz-adv-x="454" 
d="M418 139c-17 -100 -90 -149 -176 -149c-119 0 -209 97 -209 230c0 125 97 240 215 240c110 0 176 -86 176 -188h-320c-1 -6 -1 -12 -1 -19c0 -110 78 -184 170 -184c60 0 107 19 145 70zM233 411c-55 0 -105 -36 -123 -102h222c0 62 -40 102 -99 102zM388 755l-174 -263
l74 263h100z" />
    <glyph glyph-name="ebreve" unicode="&#x115;" horiz-adv-x="454" 
d="M418 139c-17 -100 -90 -149 -176 -149c-119 0 -209 97 -209 230c0 125 97 240 215 240c110 0 176 -86 176 -188h-320c-1 -6 -1 -12 -1 -19c0 -110 78 -184 170 -184c60 0 107 19 145 70zM233 411c-55 0 -105 -36 -123 -102h222c0 62 -40 102 -99 102zM240 578
c59 0 94 73 121 190c20 -132 -31 -256 -121 -256s-141 124 -121 256c27 -117 62 -190 121 -190z" />
    <glyph glyph-name="ecaron" unicode="&#x11b;" horiz-adv-x="454" 
d="M418 139c-17 -100 -90 -149 -176 -149c-119 0 -209 97 -209 230c0 125 97 240 215 240c110 0 176 -86 176 -188h-320c-1 -6 -1 -12 -1 -19c0 -110 78 -184 170 -184c60 0 107 19 145 70zM233 411c-55 0 -105 -36 -123 -102h222c0 62 -40 102 -99 102zM240 594l134 189
l-100 -263h-68l-100 263z" />
    <glyph glyph-name="ecircumflex" unicode="&#xea;" horiz-adv-x="454" 
d="M418 139c-17 -100 -90 -149 -176 -149c-119 0 -209 97 -209 230c0 125 97 240 215 240c110 0 176 -86 176 -188h-320c-1 -6 -1 -12 -1 -19c0 -110 78 -184 170 -184c60 0 107 19 145 70zM233 411c-55 0 -105 -36 -123 -102h222c0 62 -40 102 -99 102zM244 681l-134 -189
l100 263h68l100 -263z" />
    <glyph glyph-name="edieresis" unicode="&#xeb;" horiz-adv-x="454" 
d="M418 139c-17 -100 -90 -149 -176 -149c-119 0 -209 97 -209 230c0 125 97 240 215 240c110 0 176 -86 176 -188h-320c-1 -6 -1 -12 -1 -19c0 -110 78 -184 170 -184c60 0 107 19 145 70zM233 411c-55 0 -105 -36 -123 -102h222c0 62 -40 102 -99 102zM331 579
c-32 0 -56 24 -56 55s24 55 56 55s57 -24 57 -55s-25 -55 -57 -55zM146 579c-32 0 -56 24 -56 55s24 55 56 55s57 -24 57 -55s-25 -55 -57 -55z" />
    <glyph glyph-name="edotaccent" unicode="&#x117;" horiz-adv-x="454" 
d="M418 139c-17 -100 -90 -149 -176 -149c-119 0 -209 97 -209 230c0 125 97 240 215 240c110 0 176 -86 176 -188h-320c-1 -6 -1 -12 -1 -19c0 -110 78 -184 170 -184c60 0 107 19 145 70zM233 411c-55 0 -105 -36 -123 -102h222c0 62 -40 102 -99 102zM243 585
c-34 0 -61 27 -61 60s27 60 61 60s61 -27 61 -60s-27 -60 -61 -60z" />
    <glyph glyph-name="egrave" unicode="&#xe8;" horiz-adv-x="454" 
d="M418 139c-17 -100 -90 -149 -176 -149c-119 0 -209 97 -209 230c0 125 97 240 215 240c110 0 176 -86 176 -188h-320c-1 -6 -1 -12 -1 -19c0 -110 78 -184 170 -184c60 0 107 19 145 70zM233 411c-55 0 -105 -36 -123 -102h222c0 62 -40 102 -99 102zM109 755h100
l74 -263z" />
    <glyph glyph-name="emacron" unicode="&#x113;" horiz-adv-x="454" 
d="M418 139c-17 -100 -90 -149 -176 -149c-119 0 -209 97 -209 230c0 125 97 240 215 240c110 0 176 -86 176 -188h-320c-1 -6 -1 -12 -1 -19c0 -110 78 -184 170 -184c60 0 107 19 145 70zM233 411c-55 0 -105 -36 -123 -102h222c0 62 -40 102 -99 102zM152 638h249
l-43 -54h-249z" />
    <glyph glyph-name="eogonek" unicode="&#x119;" horiz-adv-x="454" 
d="M328 6c-46 -36 -109 -102 -109 -163c0 -39 21 -57 68 -57h45c-34 -32 -60 -53 -96 -53c-43 0 -78 27 -78 78c0 61 66 137 127 183c-14 -2 -28 -4 -43 -4c-119 0 -209 97 -209 230c0 125 97 240 215 240c110 0 176 -86 176 -188h-320c-1 -6 -1 -12 -1 -19
c0 -110 78 -184 170 -184c60 0 107 19 145 70c-10 -60 -49 -101 -90 -133zM233 411c-55 0 -105 -36 -123 -102h222c0 62 -40 102 -99 102z" />
    <glyph glyph-name="eth" unicode="&#xf0;" horiz-adv-x="538" 
d="M104 535v42l150 57c-63 62 -137 117 -203 146c100 -3 197 -49 275 -119l106 40v-42l-75 -28c87 -92 144 -215 144 -341c0 -184 -107 -300 -232 -300c-123 0 -236 97 -236 235s109 235 227 235c50 0 94 -25 119 -56h25c-13 60 -59 132 -120 199zM130 225
c0 -114 66 -196 139 -196s139 82 139 196s-66 196 -139 196s-139 -84 -139 -196z" />
    <glyph glyph-name="gbreve" unicode="&#x11f;" horiz-adv-x="519" 
d="M146 44h207c94 0 157 -38 157 -115c0 -128 -154 -219 -307 -219c-108 0 -199 42 -199 119c0 61 67 104 123 129v18c-30 11 -59 36 -59 78c0 40 27 77 66 108c-50 28 -85 77 -85 136c0 93 89 162 187 162c50 0 98 -18 133 -48l139 61v-91h-112c17 -24 27 -53 27 -84
c0 -94 -89 -162 -187 -162c-32 0 -63 7 -90 20v-112zM141 298c0 -70 40 -125 95 -125s95 55 95 125s-40 125 -95 125s-95 -55 -95 -125zM313 -36h-137c-42 -18 -84 -52 -84 -109c0 -56 55 -99 157 -99c95 0 185 53 185 133c0 56 -49 75 -121 75zM248 578c59 0 94 73 121 190
c20 -132 -31 -256 -121 -256s-141 124 -121 256c27 -117 62 -190 121 -190z" />
    <glyph glyph-name="gcircumflex" unicode="&#x11d;" horiz-adv-x="519" 
d="M146 44h207c94 0 157 -38 157 -115c0 -128 -154 -219 -307 -219c-108 0 -199 42 -199 119c0 61 67 104 123 129v18c-30 11 -59 36 -59 78c0 40 27 77 66 108c-50 28 -85 77 -85 136c0 93 89 162 187 162c50 0 98 -18 133 -48l139 61v-91h-112c17 -24 27 -53 27 -84
c0 -94 -89 -162 -187 -162c-32 0 -63 7 -90 20v-112zM141 298c0 -70 40 -125 95 -125s95 55 95 125s-40 125 -95 125s-95 -55 -95 -125zM313 -36h-137c-42 -18 -84 -52 -84 -109c0 -56 55 -99 157 -99c95 0 185 53 185 133c0 56 -49 75 -121 75zM248 681l-134 -189l100 263
h68l100 -263z" />
    <glyph glyph-name="gcommaaccent" unicode="&#x123;" horiz-adv-x="519" 
d="M146 44h207c94 0 157 -38 157 -115c0 -128 -154 -219 -307 -219c-108 0 -199 42 -199 119c0 61 67 104 123 129v18c-30 11 -59 36 -59 78c0 40 27 77 66 108c-50 28 -85 77 -85 136c0 93 89 162 187 162c50 0 98 -18 133 -48l139 61v-91h-112c17 -24 27 -53 27 -84
c0 -94 -89 -162 -187 -162c-32 0 -63 7 -90 20v-112zM141 298c0 -70 40 -125 95 -125s95 55 95 125s-40 125 -95 125s-95 -55 -95 -125zM313 -36h-137c-42 -18 -84 -52 -84 -109c0 -56 55 -99 157 -99c95 0 185 53 185 133c0 56 -49 75 -121 75zM308 590
c0 -27 -23 -53 -61 -53c-45 0 -71 35 -71 74c0 70 76 129 157 129c-57 -28 -96 -73 -101 -110h56c13 -8 20 -23 20 -40z" />
    <glyph glyph-name="gdotaccent" unicode="&#x121;" horiz-adv-x="519" 
d="M146 44h207c94 0 157 -38 157 -115c0 -128 -154 -219 -307 -219c-108 0 -199 42 -199 119c0 61 67 104 123 129v18c-30 11 -59 36 -59 78c0 40 27 77 66 108c-50 28 -85 77 -85 136c0 93 89 162 187 162c50 0 98 -18 133 -48l139 61v-91h-112c17 -24 27 -53 27 -84
c0 -94 -89 -162 -187 -162c-32 0 -63 7 -90 20v-112zM141 298c0 -70 40 -125 95 -125s95 55 95 125s-40 125 -95 125s-95 -55 -95 -125zM313 -36h-137c-42 -18 -84 -52 -84 -109c0 -56 55 -99 157 -99c95 0 185 53 185 133c0 56 -49 75 -121 75zM248 585
c-34 0 -61 27 -61 60s27 60 61 60s61 -27 61 -60s-27 -60 -61 -60z" />
    <glyph glyph-name="germandbls" unicode="&#xdf;" horiz-adv-x="605" 
d="M401 20c52 4 100 49 100 106c0 89 -193 137 -193 265c0 92 64 167 145 244c0 51 -49 108 -108 108c-114 0 -159 -143 -159 -303v-440h-160v40h72v321l-87 48l87 51c22 185 125 320 267 320c86 0 161 -48 179 -126c-103 -68 -176 -146 -176 -221c0 -106 205 -139 205 -278
c0 -91 -95 -165 -185 -165c-69 0 -106 32 -106 71c0 35 31 60 65 60z" />
    <glyph glyph-name="hbar" unicode="&#x127;" horiz-adv-x="562" 
d="M304 554h-123v-170h23c35 34 81 76 148 76c82 0 120 -60 120 -147v-273h72v-40h-232v40h72v248c0 67 -36 102 -98 102c-41 0 -79 -28 -105 -53v-297h72v-40h-232v40h72v514h-95l14 36h81v76l-98 46l186 68v-190h137z" />
    <glyph glyph-name="hcircumflex" unicode="&#x125;" horiz-adv-x="562" 
d="M93 666l-98 46l186 68v-396h23c35 34 81 76 148 76c82 0 120 -60 120 -147v-273h72v-40h-232v40h72v248c0 67 -36 102 -98 102c-41 0 -79 -28 -105 -53v-297h72v-40h-232v40h72v626zM234 973h88l132 -173l-176 111l-176 -111z" />
    <glyph glyph-name="dotlessi" unicode="&#x131;" horiz-adv-x="280" 
d="M98 40v306l-88 56l176 68v-430h72v-40h-232v40h72z" />
    <glyph glyph-name="iacute" unicode="&#xed;" horiz-adv-x="280" 
d="M98 40v306l-88 56l176 68v-430h72v-40h-232v40h72zM270 755l-174 -263l74 263h100z" />
    <glyph glyph-name="ibreve" unicode="&#x12d;" horiz-adv-x="280" 
d="M98 40v306l-88 56l176 68v-430h72v-40h-232v40h72zM134 578c59 0 94 73 121 190c20 -132 -31 -256 -121 -256s-141 124 -121 256c27 -117 62 -190 121 -190z" />
    <glyph glyph-name="icircumflex" unicode="&#xee;" horiz-adv-x="280" 
d="M98 40v306l-88 56l176 68v-430h72v-40h-232v40h72zM134 681l-134 -189l100 263h68l100 -263z" />
    <glyph glyph-name="idieresis" unicode="&#xef;" horiz-adv-x="280" 
d="M98 40v306l-88 56l176 68v-430h72v-40h-232v40h72zM226 579c-32 0 -56 24 -56 55s24 55 56 55s57 -24 57 -55s-25 -55 -57 -55zM41 579c-32 0 -56 24 -56 55s24 55 56 55s57 -24 57 -55s-25 -55 -57 -55z" />
    <glyph glyph-name="idotaccent" horiz-adv-x="280" 
d="M133 585c-34 0 -61 27 -61 60s27 60 61 60s61 -27 61 -60s-27 -60 -61 -60zM98 40v306l-88 56l176 68v-430h72v-40h-232v40h72z" />
    <glyph glyph-name="igrave" unicode="&#xec;" horiz-adv-x="280" 
d="M98 40v306l-88 56l176 68v-430h72v-40h-232v40h72zM5 755h100l74 -263z" />
    <glyph glyph-name="imacron" unicode="&#x12b;" horiz-adv-x="280" 
d="M98 40v306l-88 56l176 68v-430h72v-40h-232v40h72zM45 638h249l-43 -54h-249z" />
    <glyph glyph-name="iogonek" unicode="&#x12f;" horiz-adv-x="280" 
d="M133 585c-34 0 -61 27 -61 60s27 60 61 60s61 -27 61 -60s-27 -60 -61 -60zM98 40v306l-88 56l176 68v-430h72v-40h-54c-53 -44 -101 -108 -101 -157c0 -39 21 -57 68 -57h45c-34 -32 -60 -53 -96 -53c-43 0 -78 27 -78 78c0 58 63 135 134 189h-150v40h72z" />
    <glyph glyph-name="itilde" unicode="&#x129;" horiz-adv-x="280" 
d="M98 40v306l-88 56l176 68v-430h72v-40h-232v40h72zM240 571l-155 47c-32 0 -78 -41 -125 -91l75 164l155 -47c32 0 78 41 125 91z" />
    <glyph glyph-name="uni0237" unicode="&#x237;" horiz-adv-x="254" 
d="M-49 -290c-35 0 -56 27 -56 55c0 19 9 38 30 50l94 -34c34 30 73 86 73 180v385l-88 56l176 68v-522c-36 -99 -153 -238 -229 -238z" />
    <glyph glyph-name="jcircumflex" unicode="&#x135;" horiz-adv-x="254" 
d="M-49 -290c-35 0 -56 27 -56 55c0 19 9 38 30 50l94 -34c34 30 73 86 73 180v385l-88 56l176 68v-522c-36 -99 -153 -238 -229 -238zM127 681l-134 -189l100 263h68l100 -263z" />
    <glyph glyph-name="kcommaaccent" unicode="&#x137;" horiz-adv-x="544" 
d="M93 40v626l-98 46l186 68v-512h34l165 132v10h-83v40h222v-40h-61l-183 -143l269 -267h-124l-239 253v-213h72v-40h-232v40h72zM224 -118c0 27 23 53 61 53c45 0 71 -35 71 -74c0 -70 -76 -129 -157 -129c57 28 96 73 101 110h-56c-13 8 -20 23 -20 40z" />
    <glyph glyph-name="kgreenlandic" unicode="&#x138;" horiz-adv-x="549" 
d="M98 40v306l-88 56l176 68v-202h34l165 132v10h-83v40h222v-40h-61l-183 -143l269 -267h-124l-239 253v-213h72v-40h-232v40h72z" />
    <glyph glyph-name="lacute" unicode="&#x13a;" horiz-adv-x="276" 
d="M93 40v626l-98 46l186 68v-740h72v-40h-232v40h72zM339 907l-276 -108l177 157z" />
    <glyph glyph-name="lcaron" unicode="&#x13e;" horiz-adv-x="383" 
d="M93 40v626l-98 46l186 68v-740h72v-40h-232v40h72zM377 770l-134 -263l44 263h90z" />
    <glyph glyph-name="lcommaaccent" unicode="&#x13c;" horiz-adv-x="276" 
d="M93 40v626l-98 46l186 68v-740h72v-40h-232v40h72zM72 -118c0 27 23 53 61 53c45 0 71 -35 71 -74c0 -70 -76 -129 -157 -129c57 28 96 73 101 110h-56c-13 8 -20 23 -20 40z" />
    <glyph glyph-name="ldot" unicode="&#x140;" horiz-adv-x="401" 
d="M93 40v626l-98 46l186 68v-740h72v-40h-232v40h72zM327 297c-34 0 -61 27 -61 60s27 60 61 60s61 -27 61 -60s-27 -60 -61 -60z" />
    <glyph glyph-name="lslash" unicode="&#x142;" horiz-adv-x="316" 
d="M113 40v258l-92 -60v45l92 60v323l-98 46l186 68v-391l92 60v-45l-92 -60v-304h72v-40h-232v40h72z" />
    <glyph glyph-name="nacute" unicode="&#x144;" horiz-adv-x="567" 
d="M98 346l-88 56l176 68v-86h23c35 34 81 76 148 76c82 0 120 -60 120 -147v-273h72v-40h-232v40h72v248c0 67 -36 102 -98 102c-41 0 -79 -28 -105 -53v-297h72v-40h-232v40h72v306zM427 755l-174 -263l74 263h100z" />
    <glyph glyph-name="ncaron" unicode="&#x148;" horiz-adv-x="567" 
d="M98 346l-88 56l176 68v-86h23c35 34 81 76 148 76c82 0 120 -60 120 -147v-273h72v-40h-232v40h72v248c0 67 -36 102 -98 102c-41 0 -79 -28 -105 -53v-297h72v-40h-232v40h72v306zM287 594l134 189l-100 -263h-68l-100 263z" />
    <glyph glyph-name="ncommaaccent" unicode="&#x146;" horiz-adv-x="567" 
d="M98 346l-88 56l176 68v-86h23c35 34 81 76 148 76c82 0 120 -60 120 -147v-273h72v-40h-232v40h72v248c0 67 -36 102 -98 102c-41 0 -79 -28 -105 -53v-297h72v-40h-232v40h72v306zM222 -118c0 27 23 53 61 53c45 0 71 -35 71 -74c0 -70 -76 -129 -157 -129
c57 28 96 73 101 110h-56c-13 8 -20 23 -20 40z" />
    <glyph glyph-name="ntilde" unicode="&#xf1;" horiz-adv-x="567" 
d="M98 346l-88 56l176 68v-86h23c35 34 81 76 148 76c82 0 120 -60 120 -147v-273h72v-40h-232v40h72v248c0 67 -36 102 -98 102c-41 0 -79 -28 -105 -53v-297h72v-40h-232v40h72v306zM389 571l-155 47c-32 0 -78 -41 -125 -91l75 164l155 -47c32 0 78 41 125 91z" />
    <glyph glyph-name="eng" unicode="&#x14b;" horiz-adv-x="551" 
d="M477 -52c-36 -99 -153 -238 -229 -238c-35 0 -56 27 -56 55c0 19 9 38 30 50l94 -34c34 30 73 86 73 180v327c0 67 -36 102 -98 102c-41 0 -79 -28 -105 -53v-297h72v-40h-232v40h72v306l-88 56l176 68v-86h23c35 34 81 76 148 76c82 0 120 -60 120 -147v-365z" />
    <glyph glyph-name="oacute" unicode="&#xf3;" horiz-adv-x="538" 
d="M33 225c0 138 113 235 236 235s236 -97 236 -235s-113 -235 -236 -235s-236 97 -236 235zM130 225c0 -114 66 -196 139 -196s139 82 139 196s-66 196 -139 196s-139 -84 -139 -196zM396 755l-174 -263l74 263h100z" />
    <glyph glyph-name="obreve" unicode="&#x14f;" horiz-adv-x="538" 
d="M33 225c0 138 113 235 236 235s236 -97 236 -235s-113 -235 -236 -235s-236 97 -236 235zM130 225c0 -114 66 -196 139 -196s139 82 139 196s-66 196 -139 196s-139 -84 -139 -196zM269 578c59 0 94 73 121 190c20 -132 -31 -256 -121 -256s-141 124 -121 256
c27 -117 62 -190 121 -190z" />
    <glyph glyph-name="ocircumflex" unicode="&#xf4;" horiz-adv-x="538" 
d="M33 225c0 138 113 235 236 235s236 -97 236 -235s-113 -235 -236 -235s-236 97 -236 235zM130 225c0 -114 66 -196 139 -196s139 82 139 196s-66 196 -139 196s-139 -84 -139 -196zM269 681l-134 -189l100 263h68l100 -263z" />
    <glyph glyph-name="odieresis" unicode="&#xf6;" horiz-adv-x="538" 
d="M33 225c0 138 113 235 236 235s236 -97 236 -235s-113 -235 -236 -235s-236 97 -236 235zM130 225c0 -114 66 -196 139 -196s139 82 139 196s-66 196 -139 196s-139 -84 -139 -196zM361 579c-32 0 -56 24 -56 55s24 55 56 55s57 -24 57 -55s-25 -55 -57 -55zM176 579
c-32 0 -56 24 -56 55s24 55 56 55s57 -24 57 -55s-25 -55 -57 -55z" />
    <glyph glyph-name="ograve" unicode="&#xf2;" horiz-adv-x="538" 
d="M33 225c0 138 113 235 236 235s236 -97 236 -235s-113 -235 -236 -235s-236 97 -236 235zM130 225c0 -114 66 -196 139 -196s139 82 139 196s-66 196 -139 196s-139 -84 -139 -196zM142 755h100l74 -263z" />
    <glyph glyph-name="ohungarumlaut" unicode="&#x151;" horiz-adv-x="538" 
d="M33 225c0 138 113 235 236 235s236 -97 236 -235s-113 -235 -236 -235s-236 97 -236 235zM130 225c0 -114 66 -196 139 -196s139 82 139 196s-66 196 -139 196s-139 -84 -139 -196zM354 755l-164 -263l74 263h90zM494 755l-164 -263l74 263h90z" />
    <glyph glyph-name="omacron" unicode="&#x14d;" horiz-adv-x="538" 
d="M33 225c0 138 113 235 236 235s236 -97 236 -235s-113 -235 -236 -235s-236 97 -236 235zM130 225c0 -114 66 -196 139 -196s139 82 139 196s-66 196 -139 196s-139 -84 -139 -196zM166 638h249l-43 -54h-249z" />
    <glyph glyph-name="oslash" unicode="&#xf8;" horiz-adv-x="538" 
d="M33 225c0 138 113 235 236 235c43 0 85 -12 121 -33l46 66h45l-61 -87c51 -42 85 -105 85 -181c0 -138 -113 -235 -236 -235c-42 0 -82 11 -117 31l-50 -71h-45l64 92c-53 41 -88 106 -88 183zM130 225c0 -49 12 -92 32 -125l194 278c-24 27 -55 43 -87 43
c-73 0 -139 -84 -139 -196zM408 225c0 47 -11 89 -30 121l-193 -277c24 -25 53 -40 84 -40c73 0 139 82 139 196z" />
    <glyph glyph-name="oslashacute" unicode="&#x1ff;" horiz-adv-x="538" 
d="M33 225c0 138 113 235 236 235c43 0 85 -12 121 -33l46 66h45l-61 -87c51 -42 85 -105 85 -181c0 -138 -113 -235 -236 -235c-42 0 -82 11 -117 31l-50 -71h-45l64 92c-53 41 -88 106 -88 183zM130 225c0 -49 12 -92 32 -125l194 278c-24 27 -55 43 -87 43
c-73 0 -139 -84 -139 -196zM408 225c0 47 -11 89 -30 121l-193 -277c24 -25 53 -40 84 -40c73 0 139 82 139 196zM396 755l-174 -263l74 263h100z" />
    <glyph glyph-name="otilde" unicode="&#xf5;" horiz-adv-x="538" 
d="M33 225c0 138 113 235 236 235s236 -97 236 -235s-113 -235 -236 -235s-236 97 -236 235zM130 225c0 -114 66 -196 139 -196s139 82 139 196s-66 196 -139 196s-139 -84 -139 -196zM380 571l-155 47c-32 0 -78 -41 -125 -91l75 164l155 -47c32 0 78 41 125 91z" />
    <glyph glyph-name="oe" unicode="&#x153;" horiz-adv-x="837" 
d="M448 364h19c37 61 100 96 164 96c110 0 176 -86 176 -188h-320c-1 -6 -1 -12 -1 -19c0 -110 78 -184 170 -184c60 0 107 19 145 70c-17 -100 -90 -149 -176 -149c-65 0 -121 34 -159 90h-20c-45 -57 -103 -90 -177 -90c-123 0 -236 97 -236 235s113 235 236 235
c79 0 134 -36 179 -96zM130 225c0 -114 66 -196 139 -196s139 82 139 196s-66 196 -139 196s-139 -84 -139 -196zM616 411c-55 0 -105 -36 -123 -102h222c0 62 -40 102 -99 102z" />
    <glyph glyph-name="racute" unicode="&#x155;" horiz-adv-x="400" 
d="M98 346l-88 56l176 68v-88h21c46 42 83 78 126 78c32 0 57 -22 57 -54c0 -27 -20 -51 -47 -62l-78 47l-79 -59v-292h102v-40h-262v40h72v306zM366 755l-174 -263l74 263h100z" />
    <glyph glyph-name="rcaron" unicode="&#x159;" horiz-adv-x="400" 
d="M98 346l-88 56l176 68v-88h21c46 42 83 78 126 78c32 0 57 -22 57 -54c0 -27 -20 -51 -47 -62l-78 47l-79 -59v-292h102v-40h-262v40h72v306zM210 594l134 189l-100 -263h-68l-100 263z" />
    <glyph glyph-name="rcommaaccent" unicode="&#x157;" horiz-adv-x="400" 
d="M98 346l-88 56l176 68v-88h21c46 42 83 78 126 78c32 0 57 -22 57 -54c0 -27 -20 -51 -47 -62l-78 47l-79 -59v-292h102v-40h-262v40h72v306zM83 -118c0 27 23 53 61 53c45 0 71 -35 71 -74c0 -70 -76 -129 -157 -129c57 28 96 73 101 110h-56c-13 8 -20 23 -20 40z" />
    <glyph glyph-name="sacute" unicode="&#x15b;" horiz-adv-x="389" 
d="M39 41v124c39 -91 97 -129 151 -129c42 0 77 25 77 71c0 108 -218 74 -218 221c0 80 69 132 141 132c35 0 70 -16 90 -35l50 35v-167c-42 71 -90 123 -142 123c-36 0 -64 -22 -64 -61c0 -101 222 -73 222 -222c0 -81 -75 -143 -167 -143c-58 0 -113 23 -140 51zM344 755
l-174 -263l74 263h100z" />
    <glyph glyph-name="scaron" unicode="&#x161;" horiz-adv-x="389" 
d="M39 41v124c39 -91 97 -129 151 -129c42 0 77 25 77 71c0 108 -218 74 -218 221c0 80 69 132 141 132c35 0 70 -16 90 -35l50 35v-167c-42 71 -90 123 -142 123c-36 0 -64 -22 -64 -61c0 -101 222 -73 222 -222c0 -81 -75 -143 -167 -143c-58 0 -113 23 -140 51zM193 594
l134 189l-100 -263h-68l-100 263z" />
    <glyph glyph-name="scedilla" unicode="&#x15f;" horiz-adv-x="389" 
d="M39 41v124c39 -91 97 -129 151 -129c42 0 77 25 77 71c0 108 -218 74 -218 221c0 80 69 132 141 132c35 0 70 -16 90 -35l50 35v-167c-42 71 -90 123 -142 123c-36 0 -64 -22 -64 -61c0 -101 222 -73 222 -222c0 -81 -75 -143 -167 -143h-2l-4 -47c46 -20 91 -43 91 -94
c0 -59 -86 -116 -148 -116c-35 0 -57 17 -57 40c0 25 21 42 46 42l41 -58c27 5 62 33 62 65c0 37 -46 60 -101 74l57 95c-53 3 -100 24 -125 50z" />
    <glyph glyph-name="scircumflex" unicode="&#x15d;" horiz-adv-x="389" 
d="M39 41v124c39 -91 97 -129 151 -129c42 0 77 25 77 71c0 108 -218 74 -218 221c0 80 69 132 141 132c35 0 70 -16 90 -35l50 35v-167c-42 71 -90 123 -142 123c-36 0 -64 -22 -64 -61c0 -101 222 -73 222 -222c0 -81 -75 -143 -167 -143c-58 0 -113 23 -140 51zM193 681
l-134 -189l100 263h68l100 -263z" />
    <glyph glyph-name="scommaaccent" unicode="&#x219;" horiz-adv-x="389" 
d="M39 41v124c39 -91 97 -129 151 -129c42 0 77 25 77 71c0 108 -218 74 -218 221c0 80 69 132 141 132c35 0 70 -16 90 -35l50 35v-167c-42 71 -90 123 -142 123c-36 0 -64 -22 -64 -61c0 -101 222 -73 222 -222c0 -81 -75 -143 -167 -143c-58 0 -113 23 -140 51zM119 -118
c0 27 23 53 61 53c45 0 71 -35 71 -74c0 -70 -76 -129 -157 -129c57 28 96 73 101 110h-56c-13 8 -20 23 -20 40z" />
    <glyph glyph-name="tbar" unicode="&#x167;" horiz-adv-x="381" 
d="M316 244h-131v-93c0 -67 38 -94 84 -94c38 0 70 13 102 44c-24 -73 -79 -111 -148 -111c-66 0 -122 42 -122 123l2 131h-93l14 36h80l1 93l-86 33l166 140v-109h173l-30 -50h-143v-107h145z" />
    <glyph glyph-name="tcaron" unicode="&#x165;" horiz-adv-x="369" 
d="M7 406l166 140v-109h173l-30 -50h-143v-236c0 -67 38 -94 84 -94c38 0 70 13 102 44c-24 -73 -79 -111 -148 -111c-66 0 -122 42 -122 123l4 260zM362 754l-134 -263l44 263h90z" />
    <glyph glyph-name="tcommaaccent" unicode="&#x163;" horiz-adv-x="369" 
d="M132 -267c-35 0 -57 17 -57 40c0 25 21 42 46 42l41 -58c27 5 62 33 62 65c0 37 -46 60 -101 74l58 97c-52 11 -92 52 -92 120l4 260l-86 33l166 140v-109h173l-30 -50h-143v-236c0 -67 38 -94 84 -94c38 0 70 13 102 44c-24 -73 -79 -111 -148 -111c-6 0 -12 0 -18 1
l-4 -48c46 -20 91 -43 91 -94c0 -59 -86 -116 -148 -116z" />
    <glyph glyph-name="uni021B" unicode="&#x21b;" horiz-adv-x="369" 
d="M7 406l166 140v-109h173l-30 -50h-143v-236c0 -67 38 -94 84 -94c38 0 70 13 102 44c-24 -73 -79 -111 -148 -111c-66 0 -122 42 -122 123l4 260zM125 -118c0 27 23 53 61 53c45 0 71 -35 71 -74c0 -70 -76 -129 -157 -129c57 28 96 73 101 110h-56c-13 8 -20 23 -20 40z
" />
    <glyph glyph-name="thorn" unicode="&#xfe;" horiz-adv-x="563" 
d="M92 666l-98 46l186 68v-374h19c36 28 83 54 135 54c117 0 196 -91 196 -220c0 -151 -126 -250 -244 -250c-37 0 -72 5 -106 19v-249h102v-40h-262v40h72v906zM180 84c16 -32 55 -52 103 -52c80 0 152 54 152 183c0 117 -67 186 -167 186c-40 0 -76 -20 -88 -41v-276z" />
    <glyph glyph-name="uacute" unicode="&#xfa;" horiz-adv-x="555" 
d="M373 -19v62h-23c-36 -28 -79 -53 -128 -53c-85 0 -132 60 -132 147v268h-78v40l166 11v-294c0 -74 45 -113 107 -113c40 0 76 20 88 41v315h-78v40l166 11v-371l88 -46zM410 755l-174 -263l74 263h100z" />
    <glyph glyph-name="ubreve" unicode="&#x16d;" horiz-adv-x="555" 
d="M373 -19v62h-23c-36 -28 -79 -53 -128 -53c-85 0 -132 60 -132 147v268h-78v40l166 11v-294c0 -74 45 -113 107 -113c40 0 76 20 88 41v315h-78v40l166 11v-371l88 -46zM264 578c59 0 94 73 121 190c20 -132 -31 -256 -121 -256s-141 124 -121 256
c27 -117 62 -190 121 -190z" />
    <glyph glyph-name="ucircumflex" unicode="&#xfb;" horiz-adv-x="555" 
d="M373 -19v62h-23c-36 -28 -79 -53 -128 -53c-85 0 -132 60 -132 147v268h-78v40l166 11v-294c0 -74 45 -113 107 -113c40 0 76 20 88 41v315h-78v40l166 11v-371l88 -46zM264 681l-134 -189l100 263h68l100 -263z" />
    <glyph glyph-name="udieresis" unicode="&#xfc;" horiz-adv-x="555" 
d="M373 -19v62h-23c-36 -28 -79 -53 -128 -53c-85 0 -132 60 -132 147v268h-78v40l166 11v-294c0 -74 45 -113 107 -113c40 0 76 20 88 41v315h-78v40l166 11v-371l88 -46zM366 579c-32 0 -56 24 -56 55s24 55 56 55s57 -24 57 -55s-25 -55 -57 -55zM181 579
c-32 0 -56 24 -56 55s24 55 56 55s57 -24 57 -55s-25 -55 -57 -55z" />
    <glyph glyph-name="ugrave" unicode="&#xf9;" horiz-adv-x="555" 
d="M373 -19v62h-23c-36 -28 -79 -53 -128 -53c-85 0 -132 60 -132 147v268h-78v40l166 11v-294c0 -74 45 -113 107 -113c40 0 76 20 88 41v315h-78v40l166 11v-371l88 -46zM151 755h100l74 -263z" />
    <glyph glyph-name="uhungarumlaut" unicode="&#x171;" horiz-adv-x="555" 
d="M373 -19v62h-23c-36 -28 -79 -53 -128 -53c-85 0 -132 60 -132 147v268h-78v40l166 11v-294c0 -74 45 -113 107 -113c40 0 76 20 88 41v315h-78v40l166 11v-371l88 -46zM344 755l-164 -263l74 263h90zM484 755l-164 -263l74 263h90z" />
    <glyph glyph-name="umacron" unicode="&#x16b;" horiz-adv-x="555" 
d="M373 -19v62h-23c-36 -28 -79 -53 -128 -53c-85 0 -132 60 -132 147v268h-78v40l166 11v-294c0 -74 45 -113 107 -113c40 0 76 20 88 41v315h-78v40l166 11v-371l88 -46zM181 638h249l-43 -54h-249z" />
    <glyph glyph-name="uogonek" unicode="&#x173;" horiz-adv-x="555" 
d="M408 -214c-34 -32 -60 -53 -96 -53c-43 0 -78 27 -78 78c0 60 59 132 139 182v50h-23c-36 -28 -79 -53 -128 -53c-85 0 -132 60 -132 147v268h-78v40l166 11v-294c0 -74 45 -113 107 -113c40 0 76 20 88 41v315h-78v40l166 11v-371l88 -46l-100 -33
c-106 -35 -154 -106 -154 -161c0 -41 21 -59 68 -59h45z" />
    <glyph glyph-name="uring" unicode="&#x16f;" horiz-adv-x="555" 
d="M373 -19v62h-23c-36 -28 -79 -53 -128 -53c-85 0 -132 60 -132 147v268h-78v40l166 11v-294c0 -74 45 -113 107 -113c40 0 76 20 88 41v315h-78v40l166 11v-371l88 -46zM274 731c55 0 100 -45 100 -100c0 -54 -45 -99 -100 -99s-100 45 -100 99c0 55 45 100 100 100z
M274 693c-35 0 -62 -27 -62 -62c0 -34 27 -61 62 -61s62 27 62 61c0 35 -27 62 -62 62z" />
    <glyph glyph-name="utilde" unicode="&#x169;" horiz-adv-x="555" 
d="M373 -19v62h-23c-36 -28 -79 -53 -128 -53c-85 0 -132 60 -132 147v268h-78v40l166 11v-294c0 -74 45 -113 107 -113c40 0 76 20 88 41v315h-78v40l166 11v-371l88 -46zM390 571l-155 47c-32 0 -78 -41 -125 -91l75 164l155 -47c32 0 78 41 125 91z" />
    <glyph glyph-name="wacute" unicode="&#x1e83;" horiz-adv-x="711" 
d="M610 410h-83v40h177v-40h-46l-184 -440l-110 293l-130 -293l-181 440h-46v40h201v-40h-61l111 -294l87 196l-37 98h-46v40h211v-40h-80l102 -292zM509 755l-174 -263l74 263h100z" />
    <glyph glyph-name="wcircumflex" unicode="&#x175;" horiz-adv-x="711" 
d="M610 410h-83v40h177v-40h-46l-184 -440l-110 293l-130 -293l-181 440h-46v40h201v-40h-61l111 -294l87 196l-37 98h-46v40h211v-40h-80l102 -292zM361 681l-134 -189l100 263h68l100 -263z" />
    <glyph glyph-name="wgrave" unicode="&#x1e81;" horiz-adv-x="711" 
d="M610 410h-83v40h177v-40h-46l-184 -440l-110 293l-130 -293l-181 440h-46v40h201v-40h-61l111 -294l87 196l-37 98h-46v40h211v-40h-80l102 -292zM230 755h100l74 -263z" />
    <glyph glyph-name="wdieresis" unicode="&#x1e85;" horiz-adv-x="711" 
d="M610 410h-83v40h177v-40h-46l-184 -440l-110 293l-130 -293l-181 440h-46v40h201v-40h-61l111 -294l87 196l-37 98h-46v40h211v-40h-80l102 -292zM448 579c-32 0 -56 24 -56 55s24 55 56 55s57 -24 57 -55s-25 -55 -57 -55zM263 579c-32 0 -56 24 -56 55s24 55 56 55
s57 -24 57 -55s-25 -55 -57 -55z" />
    <glyph glyph-name="yacute" unicode="&#xfd;" horiz-adv-x="496" 
d="M395 410h-83v40h177v-40h-46l-251 -614c-19 -46 -44 -86 -98 -86c-41 0 -65 30 -65 61c0 17 7 34 22 48l91 -33l75 185l-164 439h-46v40h223v-40h-80l115 -336zM418 755l-174 -263l74 263h100z" />
    <glyph glyph-name="ycircumflex" unicode="&#x177;" horiz-adv-x="496" 
d="M395 410h-83v40h177v-40h-46l-251 -614c-19 -46 -44 -86 -98 -86c-41 0 -65 30 -65 61c0 17 7 34 22 48l91 -33l75 185l-164 439h-46v40h223v-40h-80l115 -336zM265 681l-134 -189l100 263h68l100 -263z" />
    <glyph glyph-name="ydieresis" unicode="&#xff;" horiz-adv-x="496" 
d="M395 410h-83v40h177v-40h-46l-251 -614c-19 -46 -44 -86 -98 -86c-41 0 -65 30 -65 61c0 17 7 34 22 48l91 -33l75 185l-164 439h-46v40h223v-40h-80l115 -336zM360 579c-32 0 -56 24 -56 55s24 55 56 55s57 -24 57 -55s-25 -55 -57 -55zM175 579c-32 0 -56 24 -56 55
s24 55 56 55s57 -24 57 -55s-25 -55 -57 -55z" />
    <glyph glyph-name="ygrave" unicode="&#x1ef3;" horiz-adv-x="496" 
d="M395 410h-83v40h177v-40h-46l-251 -614c-19 -46 -44 -86 -98 -86c-41 0 -65 30 -65 61c0 17 7 34 22 48l91 -33l75 185l-164 439h-46v40h223v-40h-80l115 -336zM129 755h100l74 -263z" />
    <glyph glyph-name="zacute" unicode="&#x17a;" horiz-adv-x="457" 
d="M140 37h186l111 153l-23 -190h-399l290 413h-149l-124 -122l40 199l38 -40h314zM373 755l-174 -263l74 263h100z" />
    <glyph glyph-name="zcaron" unicode="&#x17e;" horiz-adv-x="457" 
d="M140 37h186l111 153l-23 -190h-399l290 413h-149l-124 -122l40 199l38 -40h314zM237 594l134 189l-100 -263h-68l-100 263z" />
    <glyph glyph-name="zdotaccent" unicode="&#x17c;" horiz-adv-x="457" 
d="M140 37h186l111 153l-23 -190h-399l290 413h-149l-124 -122l40 199l38 -40h314zM237 585c-34 0 -61 27 -61 60s27 60 61 60s61 -27 61 -60s-27 -60 -61 -60z" />
    <glyph glyph-name="ordmasculine" unicode="&#xba;" horiz-adv-x="417" 
d="M36 527c0 100 82 171 173 171c90 0 172 -71 172 -171s-82 -170 -172 -170c-91 0 -173 70 -173 170zM114 527c0 -82 45 -142 95 -142s94 60 94 142c0 83 -44 143 -94 143s-95 -61 -95 -143zM96 287h248l-23 -43h-248z" />
    <glyph glyph-name="ordfeminine" unicode="&#xaa;" horiz-adv-x="358" 
d="M209 591c0 40 -20 78 -94 59v-66h-80c25 64 103 113 165 113c43 0 77 -30 77 -85v-163c0 -27 13 -40 33 -40c13 0 26 6 36 17c0 -41 -34 -69 -73 -69c-34 0 -54 20 -63 46h-12c-19 -19 -50 -45 -90 -45c-36 0 -70 26 -70 68c0 47 44 74 90 92l81 32v41zM209 526l-38 -16
c-41 -18 -64 -33 -64 -65c0 -26 19 -39 45 -39c22 0 41 9 57 24v96zM69 287h248l-23 -43h-248z" />
    <glyph glyph-name="a.ord" horiz-adv-x="358" 
d="M209 591c0 40 -20 78 -94 59v-66h-80c25 64 103 113 165 113c43 0 77 -30 77 -85v-163c0 -27 13 -40 33 -40c13 0 26 6 36 17c0 -41 -34 -69 -73 -69c-34 0 -54 20 -63 46h-12c-19 -19 -50 -45 -90 -45c-36 0 -70 26 -70 68c0 47 44 74 90 92l81 32v41zM209 526l-38 -16
c-41 -18 -64 -33 -64 -65c0 -26 19 -39 45 -39c22 0 41 9 57 24v96z" />
    <glyph glyph-name="b.ord" horiz-adv-x="428" 
d="M68 842l-69 36l140 50v-272h13c26 21 60 41 99 41c85 0 141 -67 141 -158c0 -110 -91 -183 -194 -183c-45 0 -100 13 -130 33v453zM139 625v-201c12 -23 39 -38 72 -38c57 0 106 41 106 131c0 85 -48 134 -119 134c-26 0 -50 -13 -59 -26z" />
    <glyph glyph-name="c.ord" horiz-adv-x="345" 
d="M256 593l-42 76c-61 -1 -114 -55 -114 -129c0 -77 49 -124 115 -124c41 0 76 19 96 49c-8 -62 -58 -109 -126 -109c-82 0 -149 66 -149 159c0 102 84 182 180 182c56 0 89 -26 89 -59c0 -25 -23 -45 -49 -45z" />
    <glyph glyph-name="d.ord" horiz-adv-x="437" 
d="M360 427l61 -35l-132 -42v45h-15c-26 -21 -58 -39 -97 -39c-82 0 -141 67 -141 159c0 109 91 182 183 182c21 0 47 -4 70 -14v159l-69 36l140 50v-501zM289 428v200c-9 21 -37 38 -72 38c-56 0 -106 -40 -106 -130c0 -85 51 -134 119 -134c27 0 51 13 59 26z" />
    <glyph glyph-name="e.ord" horiz-adv-x="357" 
d="M320 468c-12 -74 -66 -112 -131 -112c-87 0 -153 70 -153 167c0 90 71 174 158 174c81 0 129 -63 129 -137h-230v-11c0 -79 56 -131 122 -131c43 0 78 14 105 50zM182 662c-39 0 -73 -26 -85 -75h154c0 45 -27 75 -69 75z" />
    <glyph glyph-name="f.ord" horiz-adv-x="259" 
d="M81 393v229l-61 37l61 37c16 134 104 232 206 232c37 0 62 -20 62 -46c0 -23 -18 -41 -44 -42l-60 54c-63 -22 -93 -101 -93 -214h104l-22 -37h-82v-250h72v-30h-193v30h50z" />
    <glyph glyph-name="g.ord" horiz-adv-x="404" 
d="M125 398h144c69 0 116 -28 116 -84c0 -93 -113 -161 -225 -161c-79 0 -147 30 -147 86c0 45 50 75 91 91v12c-19 10 -38 28 -38 59c0 28 16 54 51 77c-41 19 -71 56 -71 102c0 67 66 117 138 117c38 0 73 -13 99 -35l101 44v-68l-80 1c12 -17 19 -37 19 -59
c0 -68 -66 -117 -139 -117c-21 0 -41 4 -59 11v-76zM119 580c0 -51 28 -92 65 -92c38 0 65 41 65 92s-27 92 -65 92c-37 0 -65 -41 -65 -92zM240 334h-104c-28 -13 -55 -37 -55 -76c0 -41 40 -74 114 -74c66 0 131 37 131 96c0 40 -35 54 -86 54z" />
    <glyph glyph-name="h.ord" horiz-adv-x="436" 
d="M77 842l-69 36l140 50v-286h16c25 25 59 55 107 55c60 0 89 -44 89 -106v-198h50v-30h-171v30h50v178c0 48 -26 73 -70 73c-28 0 -53 -18 -71 -34v-217h50v-30h-170v30h49v449z" />
    <glyph glyph-name="i.ord" horiz-adv-x="230" 
d="M110 783c-25 0 -45 20 -45 46c0 25 20 46 45 46c26 0 46 -21 46 -46c0 -26 -20 -46 -46 -46zM81 393v219l-61 42l132 50v-311h50v-30h-171v30h50z" />
    <glyph glyph-name="j.ord" horiz-adv-x="285" 
d="M178 783c-25 0 -45 20 -45 46c0 25 20 46 45 46c26 0 47 -21 47 -46c0 -26 -21 -46 -47 -46zM48 153c-27 0 -44 20 -44 42c0 16 9 30 25 39l71 -30c23 21 49 63 49 131v277l-61 42l132 50v-379c-26 -71 -112 -172 -172 -172z" />
    <glyph glyph-name="k.ord" horiz-adv-x="439" 
d="M74 395v443l-68 40l147 50v-372h25l119 96v7h-60v32h164v-32h-43l-125 -98l186 -198h-105l-161 183v-151h47v-32h-173v32h47z" />
    <glyph glyph-name="l.ord" horiz-adv-x="227" 
d="M77 393v449l-69 36l140 50v-535h50v-30h-170v30h49z" />
    <glyph glyph-name="m.ord" horiz-adv-x="649" 
d="M81 612l-61 42l132 50v-62h16c25 25 58 55 107 55c45 0 71 -25 85 -58h12c26 25 65 58 114 58c59 0 88 -44 88 -106v-198h50v-30h-170v30h49v178c0 48 -25 73 -70 73c-27 0 -52 -18 -70 -34v-217h50v-30h-170v30h49v178c0 48 -25 73 -69 73c-28 0 -53 -18 -71 -34v-217
h50v-30h-171v30h50v219z" />
    <glyph glyph-name="n.ord" horiz-adv-x="439" 
d="M81 612l-61 42l132 50v-62h16c25 25 59 55 107 55c60 0 89 -44 89 -106v-198h49v-30h-170v30h50v178c0 48 -26 73 -70 73c-28 0 -53 -18 -71 -34v-217h50v-30h-171v30h50v219z" />
    <glyph glyph-name="o.ord" horiz-adv-x="417" 
d="M36 526c0 100 82 171 173 171c90 0 172 -71 172 -171s-82 -170 -172 -170c-91 0 -173 70 -173 170zM114 526c0 -82 45 -142 95 -142s94 60 94 142c0 83 -44 143 -94 143s-95 -61 -95 -143z" />
    <glyph glyph-name="p.ord" horiz-adv-x="436" 
d="M76 612l-61 42l132 50v-48h13c26 21 60 41 99 41c85 0 142 -67 142 -158c0 -110 -91 -183 -179 -183c-26 0 -51 4 -75 13v-178h73v-31h-193v31h49v421zM147 424c12 -23 39 -38 72 -38c57 0 106 41 106 131c0 85 -48 134 -119 134c-26 0 -50 -13 -59 -26v-201z" />
    <glyph glyph-name="q.ord" horiz-adv-x="424" 
d="M289 191v204h-15c-26 -21 -58 -39 -97 -39c-82 0 -141 67 -141 159c0 110 91 182 184 182c32 0 64 -8 87 -19l53 28v-515h50v-31h-194v31h73zM289 428v200c-9 21 -37 38 -72 38c-56 0 -106 -40 -106 -130c0 -85 51 -134 119 -134c27 0 51 13 59 26z" />
    <glyph glyph-name="r.ord" horiz-adv-x="322" 
d="M81 612l-61 42l132 50v-66h14c33 31 60 59 93 59c24 0 44 -17 44 -42c0 -23 -18 -41 -39 -50l-53 36c-18 0 -47 -23 -59 -39v-209h72v-30h-193v30h50v219z" />
    <glyph glyph-name="s.ord" horiz-adv-x="313" 
d="M41 393v91c29 -65 72 -94 111 -94c29 0 54 17 54 49c0 76 -159 52 -159 160c0 59 51 98 106 98c26 0 52 -12 67 -25l37 25v-122c-31 51 -66 89 -104 89c-25 0 -45 -15 -45 -42c0 -72 162 -52 162 -161c0 -60 -56 -105 -125 -105c-43 0 -84 16 -104 37z" />
    <glyph glyph-name="t.ord" horiz-adv-x="295" 
d="M17 659l126 103v-82h124l-22 -37h-102v-168c0 -47 27 -67 60 -67c27 0 50 10 73 32c-18 -55 -59 -84 -111 -84c-49 0 -91 31 -91 91l3 185z" />
    <glyph glyph-name="u.ord" horiz-adv-x="431" 
d="M282 350v46h-16c-26 -21 -57 -40 -94 -40c-62 0 -96 43 -96 106v193h-54v30l125 9v-212c0 -52 31 -80 75 -80c27 0 51 12 60 26v227h-55v30l126 9v-267l61 -35z" />
    <glyph glyph-name="v.ord" horiz-adv-x="390" 
d="M303 659h-60v31h129v-31h-33l-143 -326l-145 326h-33v31h168v-31h-56l85 -211z" />
    <glyph glyph-name="w.ord" horiz-adv-x="546" 
d="M459 659h-58v31h127v-31h-32l-136 -326l-82 220l-95 -220l-133 326h-33v31h152v-31h-42l77 -205l59 138l-25 67h-32v31h157v-31h-55l71 -206z" />
    <glyph glyph-name="x.ord" horiz-adv-x="406" 
d="M61 393l109 134l-101 132h-38v31h170v-31h-52l72 -95l78 95h-55v31h129v-31h-36l-99 -117l114 -149h37v-30h-170v30h53l-84 111l-89 -111h64v-30h-145v30h43z" />
    <glyph glyph-name="y.ord" horiz-adv-x="390" 
d="M303 659h-60v31h129v-31h-33l-185 -441c-14 -34 -34 -65 -74 -65c-31 0 -49 22 -49 46c0 13 5 27 16 37l70 -25l55 132l-121 316h-33v31h168v-31h-56l81 -233z" />
    <glyph glyph-name="z.ord" horiz-adv-x="362" 
d="M123 391h130l82 111l-17 -139h-295l208 298h-104l-91 -88l30 146l27 -29h234z" />
    <glyph glyph-name="A.sc" horiz-adv-x="636" 
d="M243 550h98l211 -510h64v-40h-263v40h98l-65 159h-193l-65 -159h98v-40h-206v40h64l186 444zM210 239h160l-80 196z" />
    <glyph glyph-name="B.sc" horiz-adv-x="588" 
d="M51 550h227c129 0 213 -43 213 -132c0 -68 -63 -113 -139 -125c76 -4 178 -45 178 -136s-90 -157 -226 -157h-253v40h80v470h-80v40zM265 510h-40v-207h41c68 0 131 36 131 105c0 73 -56 102 -132 102zM225 40h66c79 0 140 40 140 115c0 83 -72 111 -146 111h-60v-226z
" />
    <glyph glyph-name="C.sc" horiz-adv-x="603" 
d="M59 265c0 179 143 295 281 295c60 0 103 -18 135 -39l59 39v-197c-48 81 -106 154 -198 154c-99 0 -190 -85 -190 -215c0 -154 113 -240 234 -240c76 0 131 31 177 80c-30 -84 -110 -152 -227 -152c-132 0 -271 106 -271 275z" />
    <glyph glyph-name="D.sc" horiz-adv-x="684" 
d="M268 550c206 0 357 -96 357 -260c0 -175 -154 -290 -349 -290h-225v40h80v470h-80v40h217zM259 510h-34v-470h36c162 0 261 97 261 249c0 144 -100 221 -263 221z" />
    <glyph glyph-name="E.sc" horiz-adv-x="589" 
d="M331 304l67 89v-219l-67 90h-106v-224h182l126 158l-34 -198h-448v40h80v470h-80v40h394l43 23v-190l-93 127h-170v-206h106z" />
    <glyph glyph-name="F.sc" horiz-adv-x="555" 
d="M331 299l67 89v-219l-67 90h-106v-219h100v-40h-274v40h80v470h-80v40h394l43 23v-190l-93 127h-170v-211h106z" />
    <glyph glyph-name="G.sc" horiz-adv-x="666" 
d="M455 214h-82v41h243v-41h-69v-135h51c-50 -54 -141 -89 -238 -89c-157 0 -301 105 -301 276c0 178 147 294 286 294c64 0 113 -18 147 -40l61 40v-201c-50 80 -111 157 -208 157c-104 0 -188 -84 -188 -226c0 -146 99 -255 231 -255c25 0 47 2 66 7z" />
    <glyph glyph-name="H.sc" horiz-adv-x="740" 
d="M51 550h254v-40h-80v-206h290v206h-80v40h254v-40h-80v-470h80v-40h-254v40h80v224h-290v-224h80v-40h-254v40h80v470h-80v40z" />
    <glyph glyph-name="I.sc" horiz-adv-x="356" 
d="M51 550h254v-40h-80v-470h80v-40h-254v40h80v470h-80v40z" />
    <glyph glyph-name="J.sc" horiz-adv-x="353" 
d="M130 30v480h-80v40h254v-40h-80v-495c-32 -96 -136 -218 -218 -218c-34 0 -61 23 -61 54c0 24 16 43 34 54l97 -52c28 27 54 87 54 177z" />
    <glyph glyph-name="K.sc" horiz-adv-x="628" 
d="M51 550h254v-40h-80v-202h32l218 202h-84v40h212v-40h-73l-208 -189l293 -321h-126l-264 297v-257h80v-40h-254v40h80v470h-80v40z" />
    <glyph glyph-name="L.sc" horiz-adv-x="553" 
d="M131 510h-80v40h254v-40h-80v-470h172l126 158l-34 -198h-438v40h80v470z" />
    <glyph glyph-name="M.sc" horiz-adv-x="833" 
d="M635 40l-42 474l-198 -547l-204 547l-37 -474h90v-40h-207v40h72l41 470h-73v40h198l143 -401l145 401h193v-40h-73l41 -470h72v-40h-251v40h90z" />
    <glyph glyph-name="N.sc" horiz-adv-x="680" 
d="M251 0h-209v40h80v417l-84 93h118l358 -403v363h-85v40h209v-40h-80v-536l-392 434v-368h85v-40z" />
    <glyph glyph-name="O.sc" horiz-adv-x="692" 
d="M633 275c0 -164 -139 -285 -287 -285s-287 121 -287 285s139 285 287 285s287 -121 287 -285zM163 275c0 -145 91 -246 183 -246c93 0 183 101 183 246s-90 246 -183 246c-92 0 -183 -101 -183 -246z" />
    <glyph glyph-name="P.sc" horiz-adv-x="562" 
d="M51 510v40h231c135 0 232 -50 232 -158c0 -101 -99 -152 -185 -153l-64 31c105 4 153 50 153 123c0 81 -62 117 -146 117h-47v-470h103v-40h-277v40h80v470h-80z" />
    <glyph glyph-name="Q.sc" horiz-adv-x="692" 
d="M633 275c0 -149 -109 -247 -238 -271v-20l381 -127l-174 -43l-375 203c-93 50 -168 140 -168 258c0 164 139 285 287 285s287 -121 287 -285zM163 275c0 -145 91 -246 183 -246c93 0 183 101 183 246s-90 246 -183 246c-92 0 -183 -101 -183 -246z" />
    <glyph glyph-name="R.sc" horiz-adv-x="620" 
d="M305 40v-40h-254v40h80v470h-80v40h240c132 0 230 -42 230 -143c0 -75 -70 -124 -147 -144l227 -263h-120l-199 252h-57v-212h80zM225 510v-219h56c80 0 143 30 143 113c0 75 -63 106 -143 106h-56z" />
    <glyph glyph-name="S.sc" horiz-adv-x="492" 
d="M236 513c-52 0 -88 -29 -88 -77c0 -125 283 -89 283 -266c0 -105 -92 -180 -205 -180c-63 0 -129 25 -167 59v148c44 -101 109 -162 182 -162c58 0 107 33 107 93c0 145 -277 92 -277 269c0 92 73 163 168 163c46 0 89 -19 112 -40l58 41v-192c-46 80 -108 144 -173 144z
" />
    <glyph glyph-name="T.sc" horiz-adv-x="613" 
d="M136 510l-92 -131v194l43 -23h439l43 23v-194l-92 131h-124v-470h92v-40h-278v40h92v470h-123z" />
    <glyph glyph-name="U.sc" horiz-adv-x="680" 
d="M516 212v298h-84v40h209v-40h-81v-305c0 -134 -101 -215 -216 -215c-103 0 -224 67 -224 212v308h-80v40h254v-40h-80v-297c0 -101 58 -161 151 -161c91 0 151 60 151 160z" />
    <glyph glyph-name="V.sc" horiz-adv-x="617" 
d="M183 510l149 -382l154 382h-96v40h207v-40h-64l-224 -543l-225 543h-64v40h256v-40h-93z" />
    <glyph glyph-name="W.sc" horiz-adv-x="856" 
d="M180 510l139 -371l95 247l-45 124h-55v40h241v-40h-94l129 -370l138 370h-96v40h204v-40h-64l-206 -543l-132 365l-141 -365l-209 543h-64v40h235v-40h-75z" />
    <glyph glyph-name="X.sc" horiz-adv-x="665" 
d="M46 550h263v-40h-81l117 -162l120 162h-85v40h217v-40h-79l-147 -198l196 -272h78v-40h-265v40h80l-152 211l-154 -211h81v-40h-215v40h80l181 248l-160 222h-75v40z" />
    <glyph glyph-name="Y.sc" horiz-adv-x="620" 
d="M448 0h-276v40h91v225l-179 245h-64v40h272v-40h-95l143 -200l143 200h-95v40h212v-40h-64l-179 -245v-225h91v-40z" />
    <glyph glyph-name="Z.sc" horiz-adv-x="576" 
d="M171 510l-93 -131v194l43 -23h399l-350 -510h235l125 158l-33 -198h-458l352 510h-220z" />
    <glyph glyph-name="Aacute.sc" horiz-adv-x="636" 
d="M243 550h98l211 -510h64v-40h-263v40h98l-65 159h-193l-65 -159h98v-40h-206v40h64l186 444zM210 239h160l-80 196zM415 835l-174 -263l74 263h100z" />
    <glyph glyph-name="Abreve.sc" horiz-adv-x="636" 
d="M243 550h98l211 -510h64v-40h-263v40h98l-65 159h-193l-65 -159h98v-40h-206v40h64l186 444zM210 239h160l-80 196zM302 658c59 0 94 73 121 190c20 -132 -31 -256 -121 -256s-141 124 -121 256c27 -117 62 -190 121 -190z" />
    <glyph glyph-name="Acircumflex.sc" horiz-adv-x="636" 
d="M243 550h98l211 -510h64v-40h-263v40h98l-65 159h-193l-65 -159h98v-40h-206v40h64l186 444zM210 239h160l-80 196zM302 761l-134 -189l100 263h68l100 -263z" />
    <glyph glyph-name="Adieresis.sc" horiz-adv-x="636" 
d="M243 550h98l211 -510h64v-40h-263v40h98l-65 159h-193l-65 -159h98v-40h-206v40h64l186 444zM210 239h160l-80 196zM394 659c-32 0 -56 24 -56 55s24 55 56 55s57 -24 57 -55s-25 -55 -57 -55zM209 659c-32 0 -56 24 -56 55s24 55 56 55s57 -24 57 -55s-25 -55 -57 -55z
" />
    <glyph glyph-name="Agrave.sc" horiz-adv-x="636" 
d="M243 550h98l211 -510h64v-40h-263v40h98l-65 159h-193l-65 -159h98v-40h-206v40h64l186 444zM210 239h160l-80 196zM164 835h100l74 -263z" />
    <glyph glyph-name="Amacron.sc" horiz-adv-x="636" 
d="M243 550h98l211 -510h64v-40h-263v40h98l-65 159h-193l-65 -159h98v-40h-206v40h64l186 444zM210 239h160l-80 196zM199 718h249l-43 -54h-249z" />
    <glyph glyph-name="Aogonek.sc" horiz-adv-x="636" 
d="M243 550h98l211 -510h64v-40h-242c-53 -44 -101 -108 -101 -157c0 -39 21 -57 68 -57h45c-34 -32 -60 -53 -96 -53c-43 0 -78 27 -78 78c0 60 67 140 141 194v35h98l-65 159h-193l-65 -159h98v-40h-206v40h64l186 444zM210 239h160l-80 196z" />
    <glyph glyph-name="Aring.sc" horiz-adv-x="636" 
d="M243 550h98l211 -510h64v-40h-263v40h98l-65 159h-193l-65 -159h98v-40h-206v40h64l186 444zM210 239h160l-80 196zM302 811c55 0 100 -45 100 -100c0 -54 -45 -99 -100 -99s-100 45 -100 99c0 55 45 100 100 100zM302 773c-35 0 -62 -27 -62 -62c0 -34 27 -61 62 -61
s62 27 62 61c0 35 -27 62 -62 62z" />
    <glyph glyph-name="Atilde.sc" horiz-adv-x="636" 
d="M243 550h98l211 -510h64v-40h-263v40h98l-65 159h-193l-65 -159h98v-40h-206v40h64l186 444zM210 239h160l-80 196zM416 651l-155 47c-32 0 -78 -41 -125 -91l75 164l155 -47c32 0 78 41 125 91z" />
    <glyph glyph-name="AE.sc" horiz-adv-x="889" 
d="M631 304l67 89v-219l-67 90h-106v-224h182l126 158l-34 -198h-448v40h80v159h-195l-103 -159h98v-40h-211v40h64l302 470h-65v40h424l43 23v-190l-93 127h-170v-206h106zM261 239h170v263z" />
    <glyph glyph-name="AEacute.sc" horiz-adv-x="889" 
d="M631 304l67 89v-219l-67 90h-106v-224h182l126 158l-34 -198h-448v40h80v159h-195l-103 -159h98v-40h-211v40h64l302 470h-65v40h424l43 23v-190l-93 127h-170v-206h106zM261 239h170v263zM699 835l-174 -263l74 263h100z" />
    <glyph glyph-name="Cacute.sc" horiz-adv-x="603" 
d="M59 265c0 179 143 295 281 295c60 0 103 -18 135 -39l59 39v-197c-48 81 -106 154 -198 154c-99 0 -190 -85 -190 -215c0 -154 113 -240 234 -240c76 0 131 31 177 80c-30 -84 -110 -152 -227 -152c-132 0 -271 106 -271 275zM452 835l-174 -263l74 263h100z" />
    <glyph glyph-name="Ccaron.sc" horiz-adv-x="603" 
d="M59 265c0 179 143 295 281 295c60 0 103 -18 135 -39l59 39v-197c-48 81 -106 154 -198 154c-99 0 -190 -85 -190 -215c0 -154 113 -240 234 -240c76 0 131 31 177 80c-30 -84 -110 -152 -227 -152c-132 0 -271 106 -271 275zM339 674l134 189l-100 -263h-68l-100 263z
" />
    <glyph glyph-name="Ccedilla.sc" horiz-adv-x="603" 
d="M59 265c0 179 143 295 281 295c60 0 103 -18 135 -39l59 39v-197c-48 81 -106 154 -198 154c-99 0 -190 -85 -190 -215c0 -154 113 -240 234 -240c76 0 131 31 177 80c-30 -84 -110 -152 -226 -152l-4 -47c46 -20 91 -43 91 -94c0 -59 -86 -116 -148 -116
c-35 0 -57 17 -57 40c0 25 21 42 46 42l41 -58c27 5 62 33 62 65c0 37 -46 60 -101 74l56 94c-128 7 -258 111 -258 275z" />
    <glyph glyph-name="Ccircumflex.sc" horiz-adv-x="603" 
d="M59 265c0 179 143 295 281 295c60 0 103 -18 135 -39l59 39v-197c-48 81 -106 154 -198 154c-99 0 -190 -85 -190 -215c0 -154 113 -240 234 -240c76 0 131 31 177 80c-30 -84 -110 -152 -227 -152c-132 0 -271 106 -271 275zM339 761l-134 -189l100 263h68l100 -263z
" />
    <glyph glyph-name="Cdotaccent.sc" horiz-adv-x="603" 
d="M59 265c0 179 143 295 281 295c60 0 103 -18 135 -39l59 39v-197c-48 81 -106 154 -198 154c-99 0 -190 -85 -190 -215c0 -154 113 -240 234 -240c76 0 131 31 177 80c-30 -84 -110 -152 -227 -152c-132 0 -271 106 -271 275zM339 665c-34 0 -61 27 -61 60s27 60 61 60
s61 -27 61 -60s-27 -60 -61 -60z" />
    <glyph glyph-name="Dcaron.sc" horiz-adv-x="684" 
d="M268 550c206 0 357 -96 357 -260c0 -175 -154 -290 -349 -290h-225v40h80v470h-80v40h217zM259 510h-34v-470h36c162 0 261 97 261 249c0 144 -100 221 -263 221zM324 674l134 189l-100 -263h-68l-100 263z" />
    <glyph glyph-name="Dcroat.sc" horiz-adv-x="684" 
d="M51 264l20 40h60v206h-80v40h217c206 0 357 -96 357 -260c0 -175 -154 -290 -349 -290h-225v40h80v224h-80zM259 510h-34v-206h153l-20 -40h-133v-224h36c162 0 261 97 261 249c0 144 -100 221 -263 221z" />
    <glyph glyph-name="Eacute.sc" horiz-adv-x="589" 
d="M331 304l67 89v-219l-67 90h-106v-224h182l126 158l-34 -198h-448v40h80v470h-80v40h394l43 23v-190l-93 127h-170v-206h106zM413 835l-174 -263l74 263h100z" />
    <glyph glyph-name="Ebreve.sc" horiz-adv-x="589" 
d="M331 304l67 89v-219l-67 90h-106v-224h182l126 158l-34 -198h-448v40h80v470h-80v40h394l43 23v-190l-93 127h-170v-206h106zM300 658c59 0 94 73 121 190c20 -132 -31 -256 -121 -256s-141 124 -121 256c27 -117 62 -190 121 -190z" />
    <glyph glyph-name="Ecaron.sc" horiz-adv-x="589" 
d="M331 304l67 89v-219l-67 90h-106v-224h182l126 158l-34 -198h-448v40h80v470h-80v40h394l43 23v-190l-93 127h-170v-206h106zM300 674l134 189l-100 -263h-68l-100 263z" />
    <glyph glyph-name="Ecircumflex.sc" horiz-adv-x="589" 
d="M331 304l67 89v-219l-67 90h-106v-224h182l126 158l-34 -198h-448v40h80v470h-80v40h394l43 23v-190l-93 127h-170v-206h106zM300 761l-134 -189l100 263h68l100 -263z" />
    <glyph glyph-name="Edieresis.sc" horiz-adv-x="589" 
d="M331 304l67 89v-219l-67 90h-106v-224h182l126 158l-34 -198h-448v40h80v470h-80v40h394l43 23v-190l-93 127h-170v-206h106zM392 659c-32 0 -56 24 -56 55s24 55 56 55s57 -24 57 -55s-25 -55 -57 -55zM207 659c-32 0 -56 24 -56 55s24 55 56 55s57 -24 57 -55
s-25 -55 -57 -55z" />
    <glyph glyph-name="Edotaccent.sc" horiz-adv-x="589" 
d="M331 304l67 89v-219l-67 90h-106v-224h182l126 158l-34 -198h-448v40h80v470h-80v40h394l43 23v-190l-93 127h-170v-206h106zM300 665c-34 0 -61 27 -61 60s27 60 61 60s61 -27 61 -60s-27 -60 -61 -60z" />
    <glyph glyph-name="Egrave.sc" horiz-adv-x="589" 
d="M331 304l67 89v-219l-67 90h-106v-224h182l126 158l-34 -198h-448v40h80v470h-80v40h394l43 23v-190l-93 127h-170v-206h106zM162 835h100l74 -263z" />
    <glyph glyph-name="Emacron.sc" horiz-adv-x="589" 
d="M331 304l67 89v-219l-67 90h-106v-224h182l126 158l-34 -198h-448v40h80v470h-80v40h394l43 23v-190l-93 127h-170v-206h106zM197 718h249l-43 -54h-249z" />
    <glyph glyph-name="Eogonek.sc" horiz-adv-x="589" 
d="M331 304l67 89v-219l-67 90h-106v-224h182l126 158l-34 -198h-97c-53 -44 -101 -108 -101 -157c0 -39 21 -57 68 -57h45c-34 -32 -60 -53 -96 -53c-43 0 -78 27 -78 78c0 58 63 135 134 189h-323v40h80v470h-80v40h394l43 23v-190l-93 127h-170v-206h106z" />
    <glyph glyph-name="Eth.sc" horiz-adv-x="684" 
d="M51 264l20 40h60v206h-80v40h217c206 0 357 -96 357 -260c0 -175 -154 -290 -349 -290h-225v40h80v224h-80zM259 510h-34v-206h153l-20 -40h-133v-224h36c162 0 261 97 261 249c0 144 -100 221 -263 221z" />
    <glyph glyph-name="Gbreve.sc" horiz-adv-x="666" 
d="M455 214h-82v41h243v-41h-69v-135h51c-50 -54 -141 -89 -238 -89c-157 0 -301 105 -301 276c0 178 147 294 286 294c64 0 113 -18 147 -40l61 40v-201c-50 80 -111 157 -208 157c-104 0 -188 -84 -188 -226c0 -146 99 -255 231 -255c25 0 47 2 66 7zM349 658
c59 0 94 73 121 190c20 -132 -31 -256 -121 -256s-141 124 -121 256c27 -117 62 -190 121 -190z" />
    <glyph glyph-name="Gcircumflex.sc" horiz-adv-x="666" 
d="M455 214h-82v41h243v-41h-69v-135h51c-50 -54 -141 -89 -238 -89c-157 0 -301 105 -301 276c0 178 147 294 286 294c64 0 113 -18 147 -40l61 40v-201c-50 80 -111 157 -208 157c-104 0 -188 -84 -188 -226c0 -146 99 -255 231 -255c25 0 47 2 66 7zM349 761l-134 -189
l100 263h68l100 -263z" />
    <glyph glyph-name="Gcommaaccent.sc" horiz-adv-x="666" 
d="M455 214h-82v41h243v-41h-69v-135h51c-50 -54 -141 -89 -238 -89c-157 0 -301 105 -301 276c0 178 147 294 286 294c64 0 113 -18 147 -40l61 40v-201c-50 80 -111 157 -208 157c-104 0 -188 -84 -188 -226c0 -146 99 -255 231 -255c25 0 47 2 66 7zM296 -118
c0 27 23 53 61 53c45 0 71 -35 71 -74c0 -70 -76 -129 -157 -129c57 28 96 73 101 110h-56c-13 8 -20 23 -20 40z" />
    <glyph glyph-name="Gdotaccent.sc" horiz-adv-x="666" 
d="M455 214h-82v41h243v-41h-69v-135h51c-50 -54 -141 -89 -238 -89c-157 0 -301 105 -301 276c0 178 147 294 286 294c64 0 113 -18 147 -40l61 40v-201c-50 80 -111 157 -208 157c-104 0 -188 -84 -188 -226c0 -146 99 -255 231 -255c25 0 47 2 66 7zM349 665
c-34 0 -61 27 -61 60s27 60 61 60s61 -27 61 -60s-27 -60 -61 -60z" />
    <glyph glyph-name="Hbar.sc" horiz-adv-x="740" 
d="M51 364l20 40h60v106h-80v40h254v-40h-80v-106h290v106h-80v40h254v-40h-80v-106h79l-20 -40h-59v-324h80v-40h-254v40h80v184h-290v-184h80v-40h-254v40h80v324h-80zM225 264h290v100h-290v-100z" />
    <glyph glyph-name="Hcircumflex.sc" horiz-adv-x="740" 
d="M51 550h254v-40h-80v-206h290v206h-80v40h254v-40h-80v-470h80v-40h-254v40h80v224h-290v-224h80v-40h-254v40h80v470h-80v40zM370 761l-134 -189l100 263h68l100 -263z" />
    <glyph glyph-name="Iacute.sc" horiz-adv-x="356" 
d="M51 550h254v-40h-80v-470h80v-40h-254v40h80v470h-80v40zM291 835l-174 -263l74 263h100z" />
    <glyph glyph-name="Ibreve.sc" horiz-adv-x="356" 
d="M51 550h254v-40h-80v-470h80v-40h-254v40h80v470h-80v40zM178 658c59 0 94 73 121 190c20 -132 -31 -256 -121 -256s-141 124 -121 256c27 -117 62 -190 121 -190z" />
    <glyph glyph-name="Icircumflex.sc" horiz-adv-x="356" 
d="M51 550h254v-40h-80v-470h80v-40h-254v40h80v470h-80v40zM178 761l-134 -189l100 263h68l100 -263z" />
    <glyph glyph-name="Idieresis.sc" horiz-adv-x="356" 
d="M51 550h254v-40h-80v-470h80v-40h-254v40h80v470h-80v40zM270 659c-32 0 -56 24 -56 55s24 55 56 55s57 -24 57 -55s-25 -55 -57 -55zM85 659c-32 0 -56 24 -56 55s24 55 56 55s57 -24 57 -55s-25 -55 -57 -55z" />
    <glyph glyph-name="Idotaccent.sc" horiz-adv-x="356" 
d="M51 550h254v-40h-80v-470h80v-40h-254v40h80v470h-80v40zM178 665c-34 0 -61 27 -61 60s27 60 61 60s61 -27 61 -60s-27 -60 -61 -60z" />
    <glyph glyph-name="Igrave.sc" horiz-adv-x="356" 
d="M51 550h254v-40h-80v-470h80v-40h-254v40h80v470h-80v40zM40 835h100l74 -263z" />
    <glyph glyph-name="Imacron.sc" horiz-adv-x="356" 
d="M51 550h254v-40h-80v-470h80v-40h-254v40h80v470h-80v40zM75 718h249l-43 -54h-249z" />
    <glyph glyph-name="Iogonek.sc" horiz-adv-x="356" 
d="M51 550h254v-40h-80v-470h80v-40h-55c-53 -44 -101 -108 -101 -157c0 -39 21 -57 68 -57h45c-34 -32 -60 -53 -96 -53c-43 0 -78 27 -78 78c0 58 63 135 134 189h-171v40h80v470h-80v40z" />
    <glyph glyph-name="Itilde.sc" horiz-adv-x="356" 
d="M51 550h254v-40h-80v-470h80v-40h-254v40h80v470h-80v40zM292 651l-155 47c-32 0 -78 -41 -125 -91l75 164l155 -47c32 0 78 41 125 91z" />
    <glyph glyph-name="Jcircumflex.sc" horiz-adv-x="353" 
d="M130 30v480h-80v40h254v-40h-80v-495c-32 -96 -136 -218 -218 -218c-34 0 -61 23 -61 54c0 24 16 43 34 54l97 -52c28 27 54 87 54 177zM175 761l-134 -189l100 263h68l100 -263z" />
    <glyph glyph-name="Kcommaaccent.sc" horiz-adv-x="628" 
d="M51 550h254v-40h-80v-202h32l218 202h-84v40h212v-40h-73l-208 -189l293 -321h-126l-264 297v-257h80v-40h-254v40h80v470h-80v40zM280 -118c0 27 23 53 61 53c45 0 71 -35 71 -74c0 -70 -76 -129 -157 -129c57 28 96 73 101 110h-56c-13 8 -20 23 -20 40z" />
    <glyph glyph-name="Lacute.sc" horiz-adv-x="553" 
d="M131 510h-80v40h254v-40h-80v-470h172l126 158l-34 -198h-438v40h80v470zM350 835l-174 -263l74 263h100z" />
    <glyph glyph-name="Lcaron.sc" horiz-adv-x="553" 
d="M131 510h-80v40h254v-40h-80v-470h172l126 158l-34 -198h-438v40h80v470zM502 550l-134 -263l44 263h90z" />
    <glyph glyph-name="Lcommaaccent.sc" horiz-adv-x="553" 
d="M131 510h-80v40h254v-40h-80v-470h172l126 158l-34 -198h-438v40h80v470zM234 -118c0 27 23 53 61 53c45 0 71 -35 71 -74c0 -70 -76 -129 -157 -129c57 28 96 73 101 110h-56c-13 8 -20 23 -20 40z" />
    <glyph glyph-name="Ldot.sc" horiz-adv-x="553" 
d="M131 510h-80v40h254v-40h-80v-470h172l126 158l-34 -198h-438v40h80v470zM435 275c-34 0 -61 27 -61 60s27 60 61 60s61 -27 61 -60s-27 -60 -61 -60z" />
    <glyph glyph-name="Lslash.sc" horiz-adv-x="553" 
d="M51 168v44l80 37v261h-80v40h254v-40h-80v-225l142 65v-44l-142 -65v-201h172l126 158l-34 -198h-438v40h80v165z" />
    <glyph glyph-name="Nacute.sc" horiz-adv-x="680" 
d="M251 0h-209v40h80v417l-84 93h118l358 -403v363h-85v40h209v-40h-80v-536l-392 434v-368h85v-40zM457 835l-174 -263l74 263h100z" />
    <glyph glyph-name="Ncaron.sc" horiz-adv-x="680" 
d="M251 0h-209v40h80v417l-84 93h118l358 -403v363h-85v40h209v-40h-80v-536l-392 434v-368h85v-40zM344 674l134 189l-100 -263h-68l-100 263z" />
    <glyph glyph-name="Ncommaaccent.sc" horiz-adv-x="680" 
d="M251 0h-209v40h80v417l-84 93h118l358 -403v363h-85v40h209v-40h-80v-536l-392 434v-368h85v-40zM291 -118c0 27 23 53 61 53c45 0 71 -35 71 -74c0 -70 -76 -129 -157 -129c57 28 96 73 101 110h-56c-13 8 -20 23 -20 40z" />
    <glyph glyph-name="Ntilde.sc" horiz-adv-x="680" 
d="M251 0h-209v40h80v417l-84 93h118l358 -403v363h-85v40h209v-40h-80v-536l-392 434v-368h85v-40zM458 651l-155 47c-32 0 -78 -41 -125 -91l75 164l155 -47c32 0 78 41 125 91z" />
    <glyph glyph-name="Eng.sc" horiz-adv-x="670" 
d="M251 0h-209v40h80v417l-84 93h118l358 -403v363h-85v40h209v-40h-80v-536c-36 -99 -116 -234 -193 -234c-35 0 -56 27 -56 55c0 19 9 38 30 50l89 -34c34 30 78 116 78 210v10l-340 377v-368h85v-40z" />
    <glyph glyph-name="Oacute.sc" horiz-adv-x="692" 
d="M633 275c0 -164 -139 -285 -287 -285s-287 121 -287 285s139 285 287 285s287 -121 287 -285zM163 275c0 -145 91 -246 183 -246c93 0 183 101 183 246s-90 246 -183 246c-92 0 -183 -101 -183 -246zM459 835l-174 -263l74 263h100z" />
    <glyph glyph-name="Obreve.sc" horiz-adv-x="692" 
d="M633 275c0 -164 -139 -285 -287 -285s-287 121 -287 285s139 285 287 285s287 -121 287 -285zM163 275c0 -145 91 -246 183 -246c93 0 183 101 183 246s-90 246 -183 246c-92 0 -183 -101 -183 -246zM346 658c59 0 94 73 121 190c20 -132 -31 -256 -121 -256
s-141 124 -121 256c27 -117 62 -190 121 -190z" />
    <glyph glyph-name="Ocircumflex.sc" horiz-adv-x="692" 
d="M633 275c0 -164 -139 -285 -287 -285s-287 121 -287 285s139 285 287 285s287 -121 287 -285zM163 275c0 -145 91 -246 183 -246c93 0 183 101 183 246s-90 246 -183 246c-92 0 -183 -101 -183 -246zM346 761l-134 -189l100 263h68l100 -263z" />
    <glyph glyph-name="Odieresis.sc" horiz-adv-x="692" 
d="M633 275c0 -164 -139 -285 -287 -285s-287 121 -287 285s139 285 287 285s287 -121 287 -285zM163 275c0 -145 91 -246 183 -246c93 0 183 101 183 246s-90 246 -183 246c-92 0 -183 -101 -183 -246zM438 659c-32 0 -56 24 -56 55s24 55 56 55s57 -24 57 -55
s-25 -55 -57 -55zM253 659c-32 0 -56 24 -56 55s24 55 56 55s57 -24 57 -55s-25 -55 -57 -55z" />
    <glyph glyph-name="Ograve.sc" horiz-adv-x="692" 
d="M633 275c0 -164 -139 -285 -287 -285s-287 121 -287 285s139 285 287 285s287 -121 287 -285zM163 275c0 -145 91 -246 183 -246c93 0 183 101 183 246s-90 246 -183 246c-92 0 -183 -101 -183 -246zM208 835h100l74 -263z" />
    <glyph glyph-name="Ohungarumlaut.sc" horiz-adv-x="692" 
d="M633 275c0 -164 -139 -285 -287 -285s-287 121 -287 285s139 285 287 285s287 -121 287 -285zM163 275c0 -145 91 -246 183 -246c93 0 183 101 183 246s-90 246 -183 246c-92 0 -183 -101 -183 -246zM418 835l-164 -263l74 263h90zM558 835l-164 -263l74 263h90z" />
    <glyph glyph-name="Omacron.sc" horiz-adv-x="692" 
d="M633 275c0 -164 -139 -285 -287 -285s-287 121 -287 285s139 285 287 285s287 -121 287 -285zM163 275c0 -145 91 -246 183 -246c93 0 183 101 183 246s-90 246 -183 246c-92 0 -183 -101 -183 -246zM243 718h249l-43 -54h-249z" />
    <glyph glyph-name="Oslash.sc" horiz-adv-x="692" 
d="M633 275c0 -164 -139 -285 -287 -285c-54 0 -107 16 -152 45l-65 -85h-49l82 107c-61 51 -103 128 -103 218c0 164 139 285 287 285c58 0 115 -19 163 -52l55 72h49l-74 -96c57 -51 94 -124 94 -209zM163 275c0 -63 17 -118 44 -159l262 340c-34 41 -78 65 -123 65
c-92 0 -183 -101 -183 -246zM529 275c0 57 -14 108 -37 148l-260 -339c32 -35 73 -55 114 -55c93 0 183 101 183 246z" />
    <glyph glyph-name="Oslashacute.sc" horiz-adv-x="692" 
d="M633 275c0 -164 -139 -285 -287 -285c-54 0 -107 16 -152 45l-65 -85h-49l82 107c-61 51 -103 128 -103 218c0 164 139 285 287 285c58 0 115 -19 163 -52l55 72h49l-74 -96c57 -51 94 -124 94 -209zM163 275c0 -63 17 -118 44 -159l262 340c-34 41 -78 65 -123 65
c-92 0 -183 -101 -183 -246zM529 275c0 57 -14 108 -37 148l-260 -339c32 -35 73 -55 114 -55c93 0 183 101 183 246zM459 835l-174 -263l74 263h100z" />
    <glyph glyph-name="Otilde.sc" horiz-adv-x="692" 
d="M633 275c0 -164 -139 -285 -287 -285s-287 121 -287 285s139 285 287 285s287 -121 287 -285zM163 275c0 -145 91 -246 183 -246c93 0 183 101 183 246s-90 246 -183 246c-92 0 -183 -101 -183 -246zM460 651l-155 47c-32 0 -78 -41 -125 -91l75 164l155 -47
c32 0 78 41 125 91z" />
    <glyph glyph-name="OE.sc" horiz-adv-x="917" 
d="M416 0c-206 0 -357 96 -357 260c0 175 154 290 349 290h365l43 23v-190l-93 127h-170v-206h106l67 89v-219l-67 90h-106v-224h182l126 158l-34 -198h-411zM425 40h34v470h-36c-162 0 -261 -97 -261 -249c0 -144 100 -221 263 -221z" />
    <glyph glyph-name="Racute.sc" horiz-adv-x="620" 
d="M305 40v-40h-254v40h80v470h-80v40h240c132 0 230 -42 230 -143c0 -75 -70 -124 -147 -144l227 -263h-120l-199 252h-57v-212h80zM225 510v-219h56c80 0 143 30 143 113c0 75 -63 106 -143 106h-56zM439 835l-174 -263l74 263h100z" />
    <glyph glyph-name="Rcaron.sc" horiz-adv-x="620" 
d="M305 40v-40h-254v40h80v470h-80v40h240c132 0 230 -42 230 -143c0 -75 -70 -124 -147 -144l227 -263h-120l-199 252h-57v-212h80zM225 510v-219h56c80 0 143 30 143 113c0 75 -63 106 -143 106h-56zM326 674l134 189l-100 -263h-68l-100 263z" />
    <glyph glyph-name="Rcommaaccent.sc" horiz-adv-x="620" 
d="M305 40v-40h-254v40h80v470h-80v40h240c132 0 230 -42 230 -143c0 -75 -70 -124 -147 -144l227 -263h-120l-199 252h-57v-212h80zM225 510v-219h56c80 0 143 30 143 113c0 75 -63 106 -143 106h-56zM273 -118c0 27 23 53 61 53c45 0 71 -35 71 -74
c0 -70 -76 -129 -157 -129c57 28 96 73 101 110h-56c-13 8 -20 23 -20 40z" />
    <glyph glyph-name="Sacute.sc" horiz-adv-x="492" 
d="M236 513c-52 0 -88 -29 -88 -77c0 -125 283 -89 283 -266c0 -105 -92 -180 -205 -180c-63 0 -129 25 -167 59v148c44 -101 109 -162 182 -162c58 0 107 33 107 93c0 145 -277 92 -277 269c0 92 73 163 168 163c46 0 89 -19 112 -40l58 41v-192c-46 80 -108 144 -173 144z
M362 835l-174 -263l74 263h100z" />
    <glyph glyph-name="Scaron.sc" horiz-adv-x="492" 
d="M236 513c-52 0 -88 -29 -88 -77c0 -125 283 -89 283 -266c0 -105 -92 -180 -205 -180c-63 0 -129 25 -167 59v148c44 -101 109 -162 182 -162c58 0 107 33 107 93c0 145 -277 92 -277 269c0 92 73 163 168 163c46 0 89 -19 112 -40l58 41v-192c-46 80 -108 144 -173 144z
M249 674l134 189l-100 -263h-68l-100 263z" />
    <glyph glyph-name="Scedilla.sc" horiz-adv-x="492" 
d="M180 -267c-35 0 -57 17 -57 40c0 25 21 42 46 42l41 -58c27 5 62 33 62 65c0 37 -46 60 -101 74l56 94h-1c-63 0 -129 25 -167 59v148c44 -101 109 -162 182 -162c58 0 107 33 107 93c0 145 -277 92 -277 269c0 92 73 163 168 163c46 0 89 -19 112 -40l58 41v-192
c-46 80 -108 144 -173 144c-52 0 -88 -29 -88 -77c0 -125 283 -89 283 -266c0 -100 -84 -173 -190 -180l-4 -47c46 -20 91 -43 91 -94c0 -59 -86 -116 -148 -116z" />
    <glyph glyph-name="Scircumflex.sc" horiz-adv-x="492" 
d="M236 513c-52 0 -88 -29 -88 -77c0 -125 283 -89 283 -266c0 -105 -92 -180 -205 -180c-63 0 -129 25 -167 59v148c44 -101 109 -162 182 -162c58 0 107 33 107 93c0 145 -277 92 -277 269c0 92 73 163 168 163c46 0 89 -19 112 -40l58 41v-192c-46 80 -108 144 -173 144z
M249 761l-134 -189l100 263h68l100 -263z" />
    <glyph glyph-name="Scommaaccent.sc" horiz-adv-x="492" 
d="M236 513c-52 0 -88 -29 -88 -77c0 -125 283 -89 283 -266c0 -105 -92 -180 -205 -180c-63 0 -129 25 -167 59v148c44 -101 109 -162 182 -162c58 0 107 33 107 93c0 145 -277 92 -277 269c0 92 73 163 168 163c46 0 89 -19 112 -40l58 41v-192c-46 80 -108 144 -173 144z
M196 -118c0 27 23 53 61 53c45 0 71 -35 71 -74c0 -70 -76 -129 -157 -129c57 28 96 73 101 110h-56c-13 8 -20 23 -20 40z" />
    <glyph glyph-name="Germandbls.sc" horiz-adv-x="668" 
d="M442 35c54 0 100 37 100 102c0 82 -76 134 -187 156l119 152c-23 45 -72 79 -134 79c-96 0 -132 -91 -132 -184v-340h-172v40h78v296c0 134 93 224 238 224c64 0 124 -20 167 -39l81 23l-156 -194c86 -23 175 -78 175 -178c0 -94 -76 -182 -185 -182
c-57 0 -113 23 -151 56v145c38 -100 92 -156 159 -156z" />
    <glyph glyph-name="Tbar.sc" horiz-adv-x="613" 
d="M143 264l20 40h96v206h-123l-92 -131v194l43 -23h439l43 23v-194l-92 131h-124v-206h117l-20 -40h-97v-224h92v-40h-278v40h92v224h-116z" />
    <glyph glyph-name="Tcaron.sc" horiz-adv-x="613" 
d="M136 510l-92 -131v194l43 -23h439l43 23v-194l-92 131h-124v-470h92v-40h-278v40h92v470h-123zM306 674l-134 189l100 -263h68l100 263z" />
    <glyph glyph-name="Tcommaaccent.sc" horiz-adv-x="613" 
d="M247 -267c-35 0 -57 17 -57 40c0 25 21 42 46 42l41 -58c27 5 62 33 62 65c0 37 -46 60 -101 74l62 104h-133v40h92v470h-123l-92 -131v194l43 -23h439l43 23v-194l-92 131h-124v-470h92v-40h-136l-5 -57c46 -20 91 -43 91 -94c0 -59 -86 -116 -148 -116z" />
    <glyph glyph-name="uni021A.sc" horiz-adv-x="613" 
d="M136 510l-92 -131v194l43 -23h439l43 23v-194l-92 131h-124v-470h92v-40h-278v40h92v470h-123zM253 -118c0 27 23 53 61 53c45 0 71 -35 71 -74c0 -70 -76 -129 -157 -129c57 28 96 73 101 110h-56c-13 8 -20 23 -20 40z" />
    <glyph glyph-name="Thorn.sc" horiz-adv-x="562" 
d="M225 399v-359h103v-40h-277v40h80v470h-80v40h254v-40h-80v-71h57c135 0 232 -50 232 -158c0 -101 -99 -152 -185 -153l-64 31c105 4 153 50 153 123c0 81 -62 117 -146 117h-47z" />
    <glyph glyph-name="Uacute.sc" horiz-adv-x="680" 
d="M516 212v298h-84v40h209v-40h-81v-305c0 -134 -101 -215 -216 -215c-103 0 -224 67 -224 212v308h-80v40h254v-40h-80v-297c0 -101 58 -161 151 -161c91 0 151 60 151 160zM469 835l-174 -263l74 263h100z" />
    <glyph glyph-name="Ubreve.sc" horiz-adv-x="680" 
d="M516 212v298h-84v40h209v-40h-81v-305c0 -134 -101 -215 -216 -215c-103 0 -224 67 -224 212v308h-80v40h254v-40h-80v-297c0 -101 58 -161 151 -161c91 0 151 60 151 160zM356 658c59 0 94 73 121 190c20 -132 -31 -256 -121 -256s-141 124 -121 256
c27 -117 62 -190 121 -190z" />
    <glyph glyph-name="Ucircumflex.sc" horiz-adv-x="680" 
d="M516 212v298h-84v40h209v-40h-81v-305c0 -134 -101 -215 -216 -215c-103 0 -224 67 -224 212v308h-80v40h254v-40h-80v-297c0 -101 58 -161 151 -161c91 0 151 60 151 160zM356 761l-134 -189l100 263h68l100 -263z" />
    <glyph glyph-name="Udieresis.sc" horiz-adv-x="680" 
d="M516 212v298h-84v40h209v-40h-81v-305c0 -134 -101 -215 -216 -215c-103 0 -224 67 -224 212v308h-80v40h254v-40h-80v-297c0 -101 58 -161 151 -161c91 0 151 60 151 160zM448 659c-32 0 -56 24 -56 55s24 55 56 55s57 -24 57 -55s-25 -55 -57 -55zM263 659
c-32 0 -56 24 -56 55s24 55 56 55s57 -24 57 -55s-25 -55 -57 -55z" />
    <glyph glyph-name="Ugrave.sc" horiz-adv-x="680" 
d="M516 212v298h-84v40h209v-40h-81v-305c0 -134 -101 -215 -216 -215c-103 0 -224 67 -224 212v308h-80v40h254v-40h-80v-297c0 -101 58 -161 151 -161c91 0 151 60 151 160zM218 835h100l74 -263z" />
    <glyph glyph-name="Uhungarumlaut.sc" horiz-adv-x="680" 
d="M516 212v298h-84v40h209v-40h-81v-305c0 -134 -101 -215 -216 -215c-103 0 -224 67 -224 212v308h-80v40h254v-40h-80v-297c0 -101 58 -161 151 -161c91 0 151 60 151 160zM408 835l-164 -263l74 263h90zM548 835l-164 -263l74 263h90z" />
    <glyph glyph-name="Umacron.sc" horiz-adv-x="680" 
d="M516 212v298h-84v40h209v-40h-81v-305c0 -134 -101 -215 -216 -215c-103 0 -224 67 -224 212v308h-80v40h254v-40h-80v-297c0 -101 58 -161 151 -161c91 0 151 60 151 160zM253 718h249l-43 -54h-249z" />
    <glyph glyph-name="Uogonek.sc" horiz-adv-x="680" 
d="M516 212v298h-84v40h209v-40h-81v-305c0 -93 -50 -156 -118 -196c-62 -36 -115 -112 -115 -166c0 -39 21 -57 68 -57h45c-34 -32 -60 -53 -96 -53c-43 0 -78 27 -78 78c0 57 59 131 128 184c-16 -3 -33 -5 -50 -5c-103 0 -224 67 -224 212v308h-80v40h254v-40h-80v-297
c0 -101 58 -161 151 -161c91 0 151 60 151 160z" />
    <glyph glyph-name="Uring.sc" horiz-adv-x="680" 
d="M516 212v298h-84v40h209v-40h-81v-305c0 -134 -101 -215 -216 -215c-103 0 -224 67 -224 212v308h-80v40h254v-40h-80v-297c0 -101 58 -161 151 -161c91 0 151 60 151 160zM356 811c55 0 100 -45 100 -100c0 -54 -45 -99 -100 -99s-100 45 -100 99c0 55 45 100 100 100z
M356 773c-35 0 -62 -27 -62 -62c0 -34 27 -61 62 -61s62 27 62 61c0 35 -27 62 -62 62z" />
    <glyph glyph-name="Utilde.sc" horiz-adv-x="680" 
d="M516 212v298h-84v40h209v-40h-81v-305c0 -134 -101 -215 -216 -215c-103 0 -224 67 -224 212v308h-80v40h254v-40h-80v-297c0 -101 58 -161 151 -161c91 0 151 60 151 160zM470 651l-155 47c-32 0 -78 -41 -125 -91l75 164l155 -47c32 0 78 41 125 91z" />
    <glyph glyph-name="Wacute.sc" horiz-adv-x="856" 
d="M180 510l139 -371l95 247l-45 124h-55v40h241v-40h-94l129 -370l138 370h-96v40h204v-40h-64l-206 -543l-132 365l-141 -365l-209 543h-64v40h235v-40h-75zM541 835l-174 -263l74 263h100z" />
    <glyph glyph-name="Wcircumflex.sc" horiz-adv-x="856" 
d="M180 510l139 -371l95 247l-45 124h-55v40h241v-40h-94l129 -370l138 370h-96v40h204v-40h-64l-206 -543l-132 365l-141 -365l-209 543h-64v40h235v-40h-75zM428 761l-134 -189l100 263h68l100 -263z" />
    <glyph glyph-name="Wgrave.sc" horiz-adv-x="856" 
d="M180 510l139 -371l95 247l-45 124h-55v40h241v-40h-94l129 -370l138 370h-96v40h204v-40h-64l-206 -543l-132 365l-141 -365l-209 543h-64v40h235v-40h-75zM290 835h100l74 -263z" />
    <glyph glyph-name="Wdieresis.sc" horiz-adv-x="856" 
d="M180 510l139 -371l95 247l-45 124h-55v40h241v-40h-94l129 -370l138 370h-96v40h204v-40h-64l-206 -543l-132 365l-141 -365l-209 543h-64v40h235v-40h-75zM520 659c-32 0 -56 24 -56 55s24 55 56 55s57 -24 57 -55s-25 -55 -57 -55zM335 659c-32 0 -56 24 -56 55
s24 55 56 55s57 -24 57 -55s-25 -55 -57 -55z" />
    <glyph glyph-name="Yacute.sc" horiz-adv-x="620" 
d="M448 0h-276v40h91v225l-179 245h-64v40h272v-40h-95l143 -200l143 200h-95v40h212v-40h-64l-179 -245v-225h91v-40zM438 835h-100l-74 -263z" />
    <glyph glyph-name="Ycircumflex.sc" horiz-adv-x="620" 
d="M448 0h-276v40h91v225l-179 245h-64v40h272v-40h-95l143 -200l143 200h-95v40h212v-40h-64l-179 -245v-225h91v-40zM325 761l-134 -189l100 263h68l100 -263z" />
    <glyph glyph-name="Ydieresis.sc" horiz-adv-x="620" 
d="M448 0h-276v40h91v225l-179 245h-64v40h272v-40h-95l143 -200l143 200h-95v40h212v-40h-64l-179 -245v-225h91v-40zM417 659c-32 0 -56 24 -56 55s24 55 56 55s57 -24 57 -55s-25 -55 -57 -55zM232 659c-32 0 -56 24 -56 55s24 55 56 55s57 -24 57 -55s-25 -55 -57 -55z
" />
    <glyph glyph-name="Ygrave.sc" horiz-adv-x="620" 
d="M448 0h-276v40h91v225l-179 245h-64v40h272v-40h-95l143 -200l143 200h-95v40h212v-40h-64l-179 -245v-225h91v-40zM187 835h100l74 -263z" />
    <glyph glyph-name="Zacute.sc" horiz-adv-x="576" 
d="M171 510l-93 -131v194l43 -23h399l-350 -510h235l125 158l-33 -198h-458l352 510h-220zM404 835l-174 -263l74 263h100z" />
    <glyph glyph-name="Zcaron.sc" horiz-adv-x="576" 
d="M171 510l-93 -131v194l43 -23h399l-350 -510h235l125 158l-33 -198h-458l352 510h-220zM291 674l134 189l-100 -263h-68l-100 263z" />
    <glyph glyph-name="Zdotaccent.sc" horiz-adv-x="576" 
d="M171 510l-93 -131v194l43 -23h399l-350 -510h235l125 158l-33 -198h-458l352 510h-220zM291 665c-34 0 -61 27 -61 60s27 60 61 60s61 -27 61 -60s-27 -60 -61 -60z" />
    <glyph glyph-name="f_t" horiz-adv-x="685" 
d="M489 761v-324h173l-30 -50h-143v-236c0 -67 38 -94 84 -94c38 0 70 13 102 44c-24 -73 -79 -111 -148 -111c-66 0 -122 42 -122 123l1 274h-220v-347h102v-40h-262v40h72v321l-87 48l87 51c22 185 135 320 287 320c34 0 67 -6 104 -19zM186 437h220l1 276
c-13 12 -35 19 -58 19c-107 0 -163 -125 -163 -295z" />
    <glyph glyph-name="f_f_t" horiz-adv-x="988" 
d="M978 101c-24 -73 -79 -111 -148 -111c-66 0 -122 42 -122 123l1 274h-220v-347h102v-40h-262v40h72v347h-215v-347h72v-40h-232v40h72v321l-87 48l87 51c22 170 116 300 236 300c49 0 76 -24 76 -57c0 -29 -23 -52 -55 -52l-68 63c-72 -31 -101 -132 -101 -277h215v23
c22 185 135 320 287 320c34 0 67 -6 104 -19v-324h173l-30 -50h-143v-236c0 -67 38 -94 84 -94c38 0 70 13 102 44zM710 713c-13 12 -35 19 -58 19c-107 0 -163 -125 -163 -295h220z" />
    <glyph glyph-name="f_f_short" horiz-adv-x="620" 
d="M401 460c18 168 96 320 216 320c49 0 76 -24 76 -57c0 -29 -23 -52 -55 -52l-68 65c-62 -51 -81 -154 -81 -299h144l-30 -50h-114v-347h102v-40h-262v40h72v347h-215v-347h72v-40h-232v40h72v321l-87 48l87 51c22 170 116 300 236 300c49 0 76 -24 76 -57
c0 -29 -23 -52 -55 -52l-68 63c-72 -31 -101 -132 -101 -277h215v23z" />
    <glyph glyph-name="f_short" horiz-adv-x="317" 
d="M98 40v321l-87 48l87 51c18 168 96 320 216 320c49 0 76 -24 76 -57c0 -29 -23 -52 -55 -52l-68 65c-62 -51 -81 -154 -81 -299h144l-30 -50h-114v-347h102v-40h-262v40h72z" />
    <glyph glyph-name="c_h" horiz-adv-x="997" 
d="M616 337v-297h72v-40h-232v40h72v636c-28 24 -60 40 -107 40c-104 0 -160 -79 -160 -164c0 -27 3 -43 13 -65c-20 15 -57 69 -57 129c0 102 86 164 172 164c66 0 106 -35 126 -62h17l84 62v-396h23c35 34 81 76 148 76c82 0 120 -60 120 -147v-273h72v-40h-232v40h72v248
c0 67 -36 102 -98 102c-41 0 -79 -28 -105 -53zM333 323l-55 98c-88 0 -165 -75 -165 -182c0 -108 69 -173 161 -173c56 0 104 28 132 68c-10 -81 -78 -144 -170 -144c-112 0 -203 91 -203 218c0 143 116 252 247 252c75 0 119 -34 119 -78c0 -33 -31 -59 -66 -59z" />
    <glyph glyph-name="c_k" horiz-adv-x="979" 
d="M710 267l269 -267h-124l-239 253v-213h72v-40h-232v40h72v636c-28 24 -60 40 -107 40c-104 0 -160 -79 -160 -164c0 -27 3 -43 13 -65c-20 15 -57 69 -57 129c0 102 86 164 172 164c66 0 106 -35 126 -62h17l84 62v-512h34l165 132v10h-83v40h222v-40h-61zM333 323
l-55 98c-88 0 -165 -75 -165 -182c0 -108 69 -173 161 -173c56 0 104 28 132 68c-10 -81 -78 -144 -170 -144c-112 0 -203 91 -203 218c0 143 116 252 247 252c75 0 119 -34 119 -78c0 -33 -31 -59 -66 -59z" />
    <glyph glyph-name="ccedilla_k" horiz-adv-x="979" 
d="M710 267l269 -267h-124l-239 253v-213h72v-40h-232v40h72v636c-28 24 -60 40 -107 40c-104 0 -160 -79 -160 -164c0 -27 3 -43 13 -65c-20 15 -57 69 -57 129c0 102 86 164 172 164c66 0 106 -35 126 -62h17l84 62v-512h34l165 132v10h-83v40h222v-40h-61zM168 -267
c-35 0 -57 17 -57 40c0 25 21 42 46 42l41 -58c27 5 62 33 62 65c0 37 -46 60 -101 74l57 95c-103 10 -183 98 -183 217c0 143 116 252 247 252c75 0 119 -34 119 -78c0 -33 -31 -59 -66 -59l-55 98c-88 0 -165 -75 -165 -182c0 -108 69 -173 161 -173c56 0 104 28 132 68
c-10 -81 -78 -144 -170 -144h-7l-4 -47c46 -20 91 -43 91 -94c0 -59 -86 -116 -148 -116z" />
    <glyph glyph-name="c_l" horiz-adv-x="711" 
d="M528 676c-28 24 -60 40 -107 40c-104 0 -160 -79 -160 -164c0 -27 3 -43 13 -65c-20 15 -57 69 -57 129c0 102 86 164 172 164c66 0 106 -35 126 -62h17l84 62v-740h72v-40h-232v40h72v636zM333 323l-55 98c-88 0 -165 -75 -165 -182c0 -108 69 -173 161 -173
c56 0 104 28 132 68c-10 -81 -78 -144 -170 -144c-112 0 -203 91 -203 218c0 143 116 252 247 252c75 0 119 -34 119 -78c0 -33 -31 -59 -66 -59z" />
    <glyph glyph-name="ccedilla_l" horiz-adv-x="711" 
d="M528 676c-28 24 -60 40 -107 40c-104 0 -160 -79 -160 -164c0 -27 3 -43 13 -65c-20 15 -57 69 -57 129c0 102 86 164 172 164c66 0 106 -35 126 -62h17l84 62v-740h72v-40h-232v40h72v636zM168 -267c-35 0 -57 17 -57 40c0 25 21 42 46 42l41 -58c27 5 62 33 62 65
c0 37 -46 60 -101 74l57 95c-103 10 -183 98 -183 217c0 143 116 252 247 252c75 0 119 -34 119 -78c0 -33 -31 -59 -66 -59l-55 98c-88 0 -165 -75 -165 -182c0 -108 69 -173 161 -173c56 0 104 28 132 68c-10 -81 -78 -144 -170 -144h-7l-4 -47c46 -20 91 -43 91 -94
c0 -59 -86 -116 -148 -116z" />
    <glyph glyph-name="c_lslash" horiz-adv-x="724" 
d="M429 238v45l99 64v329c-28 24 -60 40 -107 40c-104 0 -160 -79 -160 -164c0 -27 3 -43 13 -65c-20 15 -57 69 -57 129c0 102 86 164 172 164c66 0 106 -35 126 -62h17l84 62v-386l85 55v-45l-85 -55v-309h72v-40h-232v40h72v262zM333 323l-55 98
c-88 0 -165 -75 -165 -182c0 -108 69 -173 161 -173c56 0 104 28 132 68c-10 -81 -78 -144 -170 -144c-112 0 -203 91 -203 218c0 143 116 252 247 252c75 0 119 -34 119 -78c0 -33 -31 -59 -66 -59z" />
    <glyph glyph-name="c_t" horiz-adv-x="804" 
d="M442 406l142 119c-12 77 -72 138 -164 138c-103 0 -166 -77 -166 -166c-46 111 29 241 166 241c128 0 188 -101 188 -207v-94h173l-30 -50h-143v-236c0 -67 38 -94 84 -94c38 0 70 13 102 44c-24 -73 -79 -111 -148 -111c-66 0 -122 42 -122 123l4 260zM333 323l-55 98
c-88 0 -165 -75 -165 -182c0 -108 69 -173 161 -173c56 0 104 28 132 68c-10 -81 -78 -144 -170 -144c-112 0 -203 91 -203 218c0 143 116 252 247 252c75 0 119 -34 119 -78c0 -33 -31 -59 -66 -59z" />
    <glyph glyph-name="c_tcommaaccent" horiz-adv-x="804" 
d="M442 406l142 119c-12 77 -72 138 -164 138c-103 0 -166 -77 -166 -166c-46 111 29 241 166 241c128 0 188 -101 188 -207v-94h173l-30 -50h-143v-236c0 -67 38 -94 84 -94c38 0 70 13 102 44c-24 -73 -79 -111 -148 -111c-6 0 -12 0 -18 1l-4 -48c46 -20 91 -43 91 -94
c0 -59 -86 -116 -148 -116c-35 0 -57 17 -57 40c0 25 21 42 46 42l41 -58c27 5 62 33 62 65c0 37 -46 60 -101 74l58 97c-52 11 -92 52 -92 120l4 260zM333 323l-55 98c-88 0 -165 -75 -165 -182c0 -108 69 -173 161 -173c56 0 104 28 132 68c-10 -81 -78 -144 -170 -144
c-112 0 -203 91 -203 218c0 143 116 252 247 252c75 0 119 -34 119 -78c0 -33 -31 -59 -66 -59z" />
    <glyph glyph-name="c_tcaron" horiz-adv-x="804" 
d="M442 406l142 119c-12 77 -72 138 -164 138c-103 0 -166 -77 -166 -166c-46 111 29 241 166 241c128 0 188 -101 188 -207v-94h173l-30 -50h-143v-236c0 -67 38 -94 84 -94c38 0 70 13 102 44c-24 -73 -79 -111 -148 -111c-66 0 -122 42 -122 123l4 260zM333 323l-55 98
c-88 0 -165 -75 -165 -182c0 -108 69 -173 161 -173c56 0 104 28 132 68c-10 -81 -78 -144 -170 -144c-112 0 -203 91 -203 218c0 143 116 252 247 252c75 0 119 -34 119 -78c0 -33 -31 -59 -66 -59zM797 754l-134 -263l44 263h90z" />
    <glyph glyph-name="s_h" horiz-adv-x="951" 
d="M570 337v-297h72v-40h-232v40h72v636c-28 24 -60 40 -107 40c-104 0 -160 -79 -160 -164c0 -27 3 -43 13 -65c-20 15 -57 69 -57 129c0 102 86 164 172 164c66 0 106 -35 126 -62h17l84 62v-396h23c35 34 81 76 148 76c82 0 120 -60 120 -147v-273h72v-40h-232v40h72v248
c0 67 -36 102 -98 102c-41 0 -79 -28 -105 -53zM39 41v124c39 -91 97 -129 151 -129c42 0 77 25 77 71c0 108 -218 74 -218 221c0 80 69 132 141 132c35 0 70 -16 90 -35l50 35v-167c-42 71 -90 123 -142 123c-36 0 -64 -22 -64 -61c0 -101 222 -73 222 -222
c0 -81 -75 -143 -167 -143c-58 0 -113 23 -140 51z" />
    <glyph glyph-name="s_k" horiz-adv-x="933" 
d="M664 267l269 -267h-124l-239 253v-213h72v-40h-232v40h72v636c-28 24 -60 40 -107 40c-104 0 -160 -79 -160 -164c0 -27 3 -43 13 -65c-20 15 -57 69 -57 129c0 102 86 164 172 164c66 0 106 -35 126 -62h17l84 62v-512h34l165 132v10h-83v40h222v-40h-61zM39 41v124
c39 -91 97 -129 151 -129c42 0 77 25 77 71c0 108 -218 74 -218 221c0 80 69 132 141 132c35 0 70 -16 90 -35l50 35v-167c-42 71 -90 123 -142 123c-36 0 -64 -22 -64 -61c0 -101 222 -73 222 -222c0 -81 -75 -143 -167 -143c-58 0 -113 23 -140 51z" />
    <glyph glyph-name="scedilla_k" horiz-adv-x="933" 
d="M664 267l269 -267h-124l-239 253v-213h72v-40h-232v40h72v636c-28 24 -60 40 -107 40c-104 0 -160 -79 -160 -164c0 -27 3 -43 13 -65c-20 15 -57 69 -57 129c0 102 86 164 172 164c66 0 106 -35 126 -62h17l84 62v-512h34l165 132v10h-83v40h222v-40h-61zM39 41v124
c39 -91 97 -129 151 -129c42 0 77 25 77 71c0 108 -218 74 -218 221c0 80 69 132 141 132c35 0 70 -16 90 -35l50 35v-167c-42 71 -90 123 -142 123c-36 0 -64 -22 -64 -61c0 -101 222 -73 222 -222c0 -81 -75 -143 -167 -143h-2l-4 -47c46 -20 91 -43 91 -94
c0 -59 -86 -116 -148 -116c-35 0 -57 17 -57 40c0 25 21 42 46 42l41 -58c27 5 62 33 62 65c0 37 -46 60 -101 74l57 95c-53 3 -100 24 -125 50z" />
    <glyph glyph-name="s_l" horiz-adv-x="665" 
d="M482 676c-28 24 -60 40 -107 40c-104 0 -160 -79 -160 -164c0 -27 3 -43 13 -65c-20 15 -57 69 -57 129c0 102 86 164 172 164c66 0 106 -35 126 -62h17l84 62v-740h72v-40h-232v40h72v636zM39 41v124c39 -91 97 -129 151 -129c42 0 77 25 77 71c0 108 -218 74 -218 221
c0 80 69 132 141 132c35 0 70 -16 90 -35l50 35v-167c-42 71 -90 123 -142 123c-36 0 -64 -22 -64 -61c0 -101 222 -73 222 -222c0 -81 -75 -143 -167 -143c-58 0 -113 23 -140 51z" />
    <glyph glyph-name="scedilla_l" horiz-adv-x="665" 
d="M482 676c-28 24 -60 40 -107 40c-104 0 -160 -79 -160 -164c0 -27 3 -43 13 -65c-20 15 -57 69 -57 129c0 102 86 164 172 164c66 0 106 -35 126 -62h17l84 62v-740h72v-40h-232v40h72v636zM39 41v124c39 -91 97 -129 151 -129c42 0 77 25 77 71c0 108 -218 74 -218 221
c0 80 69 132 141 132c35 0 70 -16 90 -35l50 35v-167c-42 71 -90 123 -142 123c-36 0 -64 -22 -64 -61c0 -101 222 -73 222 -222c0 -81 -75 -143 -167 -143h-2l-4 -47c46 -20 91 -43 91 -94c0 -59 -86 -116 -148 -116c-35 0 -57 17 -57 40c0 25 21 42 46 42l41 -58
c27 5 62 33 62 65c0 37 -46 60 -101 74l57 95c-53 3 -100 24 -125 50z" />
    <glyph glyph-name="s_lacute" horiz-adv-x="665" 
d="M482 676c-28 24 -60 40 -107 40c-104 0 -160 -79 -160 -164c0 -27 3 -43 13 -65c-20 15 -57 69 -57 129c0 102 86 164 172 164c66 0 106 -35 126 -62h17l84 62v-740h72v-40h-232v40h72v636zM39 41v124c39 -91 97 -129 151 -129c42 0 77 25 77 71c0 108 -218 74 -218 221
c0 80 69 132 141 132c35 0 70 -16 90 -35l50 35v-167c-42 71 -90 123 -142 123c-36 0 -64 -22 -64 -61c0 -101 222 -73 222 -222c0 -81 -75 -143 -167 -143c-58 0 -113 23 -140 51zM678 907l-276 -108l177 157z" />
    <glyph glyph-name="s_lcaron" horiz-adv-x="764" 
d="M482 676c-28 24 -60 40 -107 40c-104 0 -160 -79 -160 -164c0 -27 3 -43 13 -65c-20 15 -57 69 -57 129c0 102 86 164 172 164c66 0 106 -35 126 -62h17l84 62v-740h72v-40h-232v40h72v636zM39 41v124c39 -91 97 -129 151 -129c42 0 77 25 77 71c0 108 -218 74 -218 221
c0 80 69 132 141 132c35 0 70 -16 90 -35l50 35v-167c-42 71 -90 123 -142 123c-36 0 -64 -22 -64 -61c0 -101 222 -73 222 -222c0 -81 -75 -143 -167 -143c-58 0 -113 23 -140 51zM758 770l-134 -263l44 263h90z" />
    <glyph glyph-name="s_lslash" horiz-adv-x="685" 
d="M390 238v45l92 60v333c-28 24 -60 40 -107 40c-104 0 -160 -79 -160 -164c0 -27 3 -43 13 -65c-20 15 -57 69 -57 129c0 102 86 164 172 164c66 0 106 -35 126 -62h17l84 62v-391l92 60v-45l-92 -60v-304h72v-40h-232v40h72v258zM39 41v124c39 -91 97 -129 151 -129
c42 0 77 25 77 71c0 108 -218 74 -218 221c0 80 69 132 141 132c35 0 70 -16 90 -35l50 35v-167c-42 71 -90 123 -142 123c-36 0 -64 -22 -64 -61c0 -101 222 -73 222 -222c0 -81 -75 -143 -167 -143c-58 0 -113 23 -140 51z" />
    <glyph glyph-name="s_p" horiz-adv-x="952" 
d="M481 346l-88 56l155 75c0 89 -58 166 -152 166s-152 -77 -152 -166c-43 111 16 241 152 241c128 0 173 -101 173 -207v-105h19c36 28 83 54 135 54c117 0 196 -91 196 -220c0 -151 -126 -250 -244 -250c-37 0 -72 5 -106 19v-249h102v-40h-262v40h72v586zM39 41v124
c39 -91 97 -129 151 -129c42 0 77 25 77 71c0 108 -218 74 -218 221c0 80 69 132 141 132c35 0 70 -16 90 -35l50 35v-167c-42 71 -90 123 -142 123c-36 0 -64 -22 -64 -61c0 -101 222 -73 222 -222c0 -81 -75 -143 -167 -143c-58 0 -113 23 -140 51zM569 84
c16 -32 55 -52 103 -52c80 0 152 54 152 183c0 117 -67 186 -167 186c-40 0 -76 -20 -88 -41v-276z" />
    <glyph glyph-name="scedilla_p" horiz-adv-x="952" 
d="M481 346l-88 56l155 75c0 89 -58 166 -152 166s-152 -77 -152 -166c-43 111 16 241 152 241c128 0 173 -101 173 -207v-105h19c36 28 83 54 135 54c117 0 196 -91 196 -220c0 -151 -126 -250 -244 -250c-37 0 -72 5 -106 19v-249h102v-40h-262v40h72v586zM39 41v124
c39 -91 97 -129 151 -129c42 0 77 25 77 71c0 108 -218 74 -218 221c0 80 69 132 141 132c35 0 70 -16 90 -35l50 35v-167c-42 71 -90 123 -142 123c-36 0 -64 -22 -64 -61c0 -101 222 -73 222 -222c0 -81 -75 -143 -167 -143h-2l-4 -47c46 -20 91 -43 91 -94
c0 -59 -86 -116 -148 -116c-35 0 -57 17 -57 40c0 25 21 42 46 42l41 -58c27 5 62 33 62 65c0 37 -46 60 -101 74l57 95c-53 3 -100 24 -125 50zM569 84c16 -32 55 -52 103 -52c80 0 152 54 152 183c0 117 -67 186 -167 186c-40 0 -76 -20 -88 -41v-276z" />
    <glyph glyph-name="scommaaccent_p" horiz-adv-x="952" 
d="M481 346l-88 56l155 75c0 89 -58 166 -152 166s-152 -77 -152 -166c-43 111 16 241 152 241c128 0 173 -101 173 -207v-105h19c36 28 83 54 135 54c117 0 196 -91 196 -220c0 -151 -126 -250 -244 -250c-37 0 -72 5 -106 19v-249h102v-40h-262v40h72v586zM39 41v124
c39 -91 97 -129 151 -129c42 0 77 25 77 71c0 108 -218 74 -218 221c0 80 69 132 141 132c35 0 70 -16 90 -35l50 35v-167c-42 71 -90 123 -142 123c-36 0 -64 -22 -64 -61c0 -101 222 -73 222 -222c0 -81 -75 -143 -167 -143c-58 0 -113 23 -140 51zM569 84
c16 -32 55 -52 103 -52c80 0 152 54 152 183c0 117 -67 186 -167 186c-40 0 -76 -20 -88 -41v-276zM139 -118c0 27 23 53 61 53c45 0 71 -35 71 -74c0 -70 -76 -129 -157 -129c57 28 96 73 101 110h-56c-13 8 -20 23 -20 40z" />
    <glyph glyph-name="s_t" horiz-adv-x="758" 
d="M396 406l142 119c-11 75 -64 138 -149 138c-94 0 -152 -77 -152 -166c-43 111 16 241 152 241c128 0 173 -101 173 -207v-94h173l-30 -50h-143v-236c0 -67 38 -94 84 -94c38 0 70 13 102 44c-24 -73 -79 -111 -148 -111c-66 0 -122 42 -122 123l4 260zM39 41v124
c39 -91 97 -129 151 -129c42 0 77 25 77 71c0 108 -218 74 -218 221c0 80 69 132 141 132c35 0 70 -16 90 -35l50 35v-167c-42 71 -90 123 -142 123c-36 0 -64 -22 -64 -61c0 -101 222 -73 222 -222c0 -81 -75 -143 -167 -143c-58 0 -113 23 -140 51z" />
    <glyph glyph-name="scommaaccent_t" horiz-adv-x="758" 
d="M396 406l142 119c-11 75 -64 138 -149 138c-94 0 -152 -77 -152 -166c-43 111 16 241 152 241c128 0 173 -101 173 -207v-94h173l-30 -50h-143v-236c0 -67 38 -94 84 -94c38 0 70 13 102 44c-24 -73 -79 -111 -148 -111c-66 0 -122 42 -122 123l4 260zM39 41v124
c39 -91 97 -129 151 -129c42 0 77 25 77 71c0 108 -218 74 -218 221c0 80 69 132 141 132c35 0 70 -16 90 -35l50 35v-167c-42 71 -90 123 -142 123c-36 0 -64 -22 -64 -61c0 -101 222 -73 222 -222c0 -81 -75 -143 -167 -143c-58 0 -113 23 -140 51zM139 -118
c0 27 23 53 61 53c45 0 71 -35 71 -74c0 -70 -76 -129 -157 -129c57 28 96 73 101 110h-56c-13 8 -20 23 -20 40z" />
    <glyph glyph-name="s_tcommaaccent" horiz-adv-x="758" 
d="M396 406l142 119c-11 75 -64 138 -149 138c-94 0 -152 -77 -152 -166c-43 111 16 241 152 241c128 0 173 -101 173 -207v-94h173l-30 -50h-143v-236c0 -67 38 -94 84 -94c38 0 70 13 102 44c-24 -73 -79 -111 -148 -111c-6 0 -12 0 -18 1l-4 -48c46 -20 91 -43 91 -94
c0 -59 -86 -116 -148 -116c-35 0 -57 17 -57 40c0 25 21 42 46 42l41 -58c27 5 62 33 62 65c0 37 -46 60 -101 74l58 97c-52 11 -92 52 -92 120l4 260zM39 41v124c39 -91 97 -129 151 -129c42 0 77 25 77 71c0 108 -218 74 -218 221c0 80 69 132 141 132c35 0 70 -16 90 -35
l50 35v-167c-42 71 -90 123 -142 123c-36 0 -64 -22 -64 -61c0 -101 222 -73 222 -222c0 -81 -75 -143 -167 -143c-58 0 -113 23 -140 51z" />
    <glyph glyph-name="scedilla_t" horiz-adv-x="758" 
d="M396 406l142 119c-11 75 -64 138 -149 138c-94 0 -152 -77 -152 -166c-43 111 16 241 152 241c128 0 173 -101 173 -207v-94h173l-30 -50h-143v-236c0 -67 38 -94 84 -94c38 0 70 13 102 44c-24 -73 -79 -111 -148 -111c-66 0 -122 42 -122 123l4 260zM39 41v124
c39 -91 97 -129 151 -129c42 0 77 25 77 71c0 108 -218 74 -218 221c0 80 69 132 141 132c35 0 70 -16 90 -35l50 35v-167c-42 71 -90 123 -142 123c-36 0 -64 -22 -64 -61c0 -101 222 -73 222 -222c0 -81 -75 -143 -167 -143h-2l-4 -47c46 -20 91 -43 91 -94
c0 -59 -86 -116 -148 -116c-35 0 -57 17 -57 40c0 25 21 42 46 42l41 -58c27 5 62 33 62 65c0 37 -46 60 -101 74l57 95c-53 3 -100 24 -125 50z" />
    <glyph glyph-name="s_tcaron" horiz-adv-x="758" 
d="M396 406l142 119c-11 75 -64 138 -149 138c-94 0 -152 -77 -152 -166c-43 111 16 241 152 241c128 0 173 -101 173 -207v-94h173l-30 -50h-143v-236c0 -67 38 -94 84 -94c38 0 70 13 102 44c-24 -73 -79 -111 -148 -111c-66 0 -122 42 -122 123l4 260zM39 41v124
c39 -91 97 -129 151 -129c42 0 77 25 77 71c0 108 -218 74 -218 221c0 80 69 132 141 132c35 0 70 -16 90 -35l50 35v-167c-42 71 -90 123 -142 123c-36 0 -64 -22 -64 -61c0 -101 222 -73 222 -222c0 -81 -75 -143 -167 -143c-58 0 -113 23 -140 51zM751 754l-134 -263
l44 263h90z" />
    <glyph glyph-name="ampersand" unicode="&#x26;" horiz-adv-x="837" 
d="M765 0h-129l-126 124c-73 -81 -151 -134 -242 -134c-110 0 -212 75 -212 196c0 107 83 169 157 211v22c-34 37 -58 75 -58 126c0 80 65 155 158 155c77 0 147 -55 147 -129c0 -63 -49 -109 -118 -133v-22l193 -190c45 60 86 130 126 197v20h-99v45h258v-45h-93
c-53 -89 -106 -175 -160 -248zM229 581c0 -50 39 -93 83 -135c53 24 77 76 77 125c0 45 -30 91 -81 91c-42 0 -79 -28 -79 -81zM140 221c0 -96 77 -149 162 -149c66 0 123 34 175 86l-197 194c-12 12 -23 23 -35 34c-55 -33 -105 -83 -105 -165z" />
    <glyph glyph-name="ampersand.sc" horiz-adv-x="735" 
d="M650 0h-122l-89 89c-59 -60 -123 -99 -195 -99c-90 0 -173 59 -173 155c0 83 67 140 129 168v19c-25 32 -43 65 -43 102c0 71 55 126 135 126c66 0 125 -43 125 -105c0 -55 -46 -90 -96 -104v-15l149 -152c33 44 63 95 92 147v16h-78v40h211v-40h-76
c-39 -68 -80 -134 -123 -190zM229 470c0 -37 31 -72 69 -111c37 20 54 61 54 97c0 39 -24 72 -62 72c-34 0 -61 -22 -61 -58zM154 188c0 -77 59 -120 125 -120c49 0 92 20 130 51l-150 150c-11 11 -22 22 -33 34c-39 -26 -72 -59 -72 -115z" />
    <glyph glyph-name="grave" unicode="`" horiz-adv-x="500" 
d="M163 755h100l74 -263z" />
    <glyph glyph-name="acute" unicode="&#xb4;" horiz-adv-x="500" 
d="M337 755l-174 -263l74 263h100z" />
    <glyph glyph-name="circumflex" unicode="&#x2c6;" horiz-adv-x="500" 
d="M250 681l-134 -189l100 263h68l100 -263z" />
    <glyph glyph-name="tilde" unicode="&#x2dc;" horiz-adv-x="500" 
d="M352 571l-155 47c-32 0 -78 -41 -125 -91l75 164l155 -47c32 0 78 41 125 91z" />
    <glyph glyph-name="macron" unicode="&#xaf;" horiz-adv-x="500" 
d="M147 638h249l-43 -54h-249z" />
    <glyph glyph-name="breve" unicode="&#x2d8;" horiz-adv-x="500" 
d="M250 578c59 0 94 73 121 190c20 -132 -31 -256 -121 -256s-141 124 -121 256c27 -117 62 -190 121 -190z" />
    <glyph glyph-name="dotaccent" unicode="&#x2d9;" horiz-adv-x="500" 
d="M250 585c-34 0 -61 27 -61 60s27 60 61 60s61 -27 61 -60s-27 -60 -61 -60z" />
    <glyph glyph-name="dieresis" unicode="&#xa8;" horiz-adv-x="500" 
d="M342 579c-32 0 -56 24 -56 55s24 55 56 55s57 -24 57 -55s-25 -55 -57 -55zM157 579c-32 0 -56 24 -56 55s24 55 56 55s57 -24 57 -55s-25 -55 -57 -55z" />
    <glyph glyph-name="ring" unicode="&#x2da;" horiz-adv-x="500" 
d="M250 731c55 0 100 -45 100 -100c0 -54 -45 -99 -100 -99s-100 45 -100 99c0 55 45 100 100 100zM250 693c-35 0 -62 -27 -62 -62c0 -34 27 -61 62 -61s62 27 62 61c0 35 -27 62 -62 62z" />
    <glyph glyph-name="hungarumlaut" unicode="&#x2dd;" horiz-adv-x="500" 
d="M262 755l-164 -263l74 263h90zM402 755l-164 -263l74 263h90z" />
    <glyph glyph-name="caron" unicode="&#x2c7;" horiz-adv-x="500" 
d="M250 594l134 189l-100 -263h-68l-100 263z" />
    <glyph glyph-name="caron.Slovak" horiz-adv-x="500" 
d="M297 770l-134 -263l44 263h90z" />
    <glyph glyph-name="commaturn" horiz-adv-x="500" 
d="M311 590c0 -27 -23 -53 -61 -53c-45 0 -71 35 -71 74c0 70 76 129 157 129c-57 -28 -96 -73 -101 -110h56c13 -8 20 -23 20 -40z" />
    <glyph glyph-name="commaaccent" unicode="&#xf6c3;" horiz-adv-x="500" 
d="M194 -118c0 27 23 53 61 53c45 0 71 -35 71 -74c0 -70 -76 -129 -157 -129c57 28 96 73 101 110h-56c-13 8 -20 23 -20 40z" />
    <glyph glyph-name="cedilla" unicode="&#xb8;" horiz-adv-x="500" 
d="M175 -267c-35 0 -57 17 -57 40c0 25 21 42 46 42l41 -58c27 5 62 33 62 65c0 37 -46 60 -101 74l73 122l-7 -75c46 -20 91 -43 91 -94c0 -59 -86 -116 -148 -116z" />
    <glyph glyph-name="ogonek" unicode="&#x2db;" horiz-adv-x="500" 
d="M319 27l7 -12c-60 -43 -120 -117 -120 -172c0 -39 21 -57 68 -57h45c-34 -32 -60 -53 -96 -53c-43 0 -78 27 -78 78c0 69 88 164 174 216z" />
    <glyph glyph-name="period" unicode="." horiz-adv-x="269" 
d="M202 57c0 -36 -28 -66 -68 -66c-38 0 -67 30 -67 66c0 38 29 69 67 69c40 0 68 -31 68 -69z" />
    <glyph glyph-name="comma" unicode="," horiz-adv-x="269" 
d="M55 65c0 34 29 63 69 63c64 0 100 -58 100 -130c0 -111 -98 -204 -196 -204c69 42 133 106 133 180c0 18 -3 31 -12 42h-69c-16 9 -25 29 -25 49z" />
    <glyph glyph-name="colon" unicode=":" horiz-adv-x="269" 
d="M202 57c0 -36 -28 -66 -68 -66c-38 0 -67 30 -67 66c0 38 29 69 67 69c40 0 68 -31 68 -69zM202 355c0 -36 -28 -66 -68 -66c-38 0 -67 30 -67 66c0 38 29 69 67 69c40 0 68 -31 68 -69z" />
    <glyph glyph-name="semicolon" unicode=";" horiz-adv-x="269" 
d="M55 65c0 34 29 63 69 63c64 0 100 -58 100 -130c0 -111 -98 -204 -196 -204c69 42 133 106 133 180c0 18 -3 31 -12 42h-69c-16 9 -25 29 -25 49zM202 355c0 -36 -28 -66 -68 -66c-38 0 -67 30 -67 66c0 38 29 69 67 69c40 0 68 -31 68 -69z" />
    <glyph glyph-name="ellipsis" unicode="&#x2026;" horiz-adv-x="729" 
d="M662 57c0 -36 -28 -66 -68 -66c-38 0 -67 30 -67 66c0 38 29 69 67 69c40 0 68 -31 68 -69zM432 57c0 -36 -28 -66 -68 -66c-38 0 -67 30 -67 66c0 38 29 69 67 69c40 0 68 -31 68 -69zM202 57c0 -36 -28 -66 -68 -66c-38 0 -67 30 -67 66c0 38 29 69 67 69
c40 0 68 -31 68 -69z" />
    <glyph glyph-name="exclam" unicode="!" horiz-adv-x="310" 
d="M218 629l-63 -443l-63 443c0 43 28 71 63 71s63 -28 63 -71zM223 57c0 -36 -28 -66 -68 -66c-38 0 -67 30 -67 66c0 38 29 69 67 69c40 0 68 -31 68 -69z" />
    <glyph glyph-name="exclamdown" unicode="&#xa1;" horiz-adv-x="306" 
d="M218 62c0 -43 -28 -71 -63 -71s-63 28 -63 71l63 443zM223 634c0 -38 -28 -69 -68 -69c-38 0 -67 31 -67 69c0 36 29 66 67 66c40 0 68 -30 68 -66z" />
    <glyph glyph-name="question" unicode="?" horiz-adv-x="466" 
d="M177 663l-58 -105c-36 5 -66 31 -66 64c0 44 50 78 130 78c135 0 233 -84 233 -203c0 -110 -97 -202 -245 -233l-62 73c131 27 222 91 222 183c0 80 -66 143 -154 143zM285 57c0 -36 -28 -66 -68 -66c-38 0 -67 30 -67 66c0 38 29 69 67 69c40 0 68 -31 68 -69z" />
    <glyph glyph-name="questiondown" unicode="&#xbf;" horiz-adv-x="466" 
d="M289 29l58 105c36 -5 66 -31 66 -64c0 -44 -50 -78 -130 -78c-135 0 -233 84 -233 203c0 110 97 202 245 233l62 -73c-131 -27 -222 -91 -222 -183c0 -80 66 -143 154 -143zM181 635c0 36 28 66 68 66c38 0 67 -30 67 -66c0 -38 -29 -69 -67 -69c-40 0 -68 31 -68 69z
" />
    <glyph glyph-name="exclam.sc" horiz-adv-x="276" 
d="M202 485l-64 -316l-64 316c0 46 30 75 64 75s64 -29 64 -75zM206 58c0 -38 -30 -67 -68 -67s-68 29 -68 67c0 37 30 68 68 68s68 -31 68 -68z" />
    <glyph glyph-name="exclamdown.sc" horiz-adv-x="276" 
d="M202 66c0 -46 -30 -75 -64 -75s-64 29 -64 75l64 316zM206 493c0 -37 -30 -68 -68 -68s-68 31 -68 68c0 38 30 67 68 67s68 -29 68 -67z" />
    <glyph glyph-name="question.sc" horiz-adv-x="408" 
d="M161 529l-49 -104c-34 0 -62 30 -62 61c0 42 42 74 107 74c105 0 201 -75 201 -171c0 -92 -71 -152 -184 -187l-55 74c97 24 159 75 159 148c0 56 -53 101 -117 105zM249 58c0 -38 -30 -67 -68 -67s-68 29 -68 67c0 37 30 68 68 68s68 -31 68 -68z" />
    <glyph glyph-name="questiondown.sc" horiz-adv-x="408" 
d="M247 22l49 104c34 0 62 -30 62 -61c0 -42 -42 -74 -107 -74c-105 0 -201 75 -201 171c0 92 71 152 184 187l55 -74c-97 -24 -159 -75 -159 -148c0 -56 53 -101 117 -105zM159 493c0 38 30 67 68 67s68 -29 68 -67c0 -37 -30 -68 -68 -68s-68 31 -68 68z" />
    <glyph glyph-name="quoteleft" unicode="&#x2018;" horiz-adv-x="260" 
d="M199 514c0 -28 -24 -52 -59 -52c-51 0 -84 44 -84 104c0 93 84 172 165 172c-61 -38 -108 -87 -108 -149c0 -15 2 -25 10 -34h55c13 -8 21 -24 21 -41z" />
    <glyph glyph-name="quoteright" unicode="&#x2019;" horiz-adv-x="260" 
d="M61 669c0 28 24 52 59 52c51 0 84 -44 84 -104c0 -93 -84 -172 -165 -172c61 38 108 87 108 149c0 15 -2 25 -10 34h-55c-13 8 -21 24 -21 41z" />
    <glyph glyph-name="quotedblleft" unicode="&#x201c;" horiz-adv-x="448" 
d="M387 514c0 -28 -24 -52 -59 -52c-51 0 -84 44 -84 104c0 93 84 172 165 172c-61 -38 -108 -87 -108 -149c0 -15 2 -25 10 -34h55c13 -8 21 -24 21 -41zM199 514c0 -28 -24 -52 -59 -52c-51 0 -84 44 -84 104c0 93 84 172 165 172c-61 -38 -108 -87 -108 -149
c0 -15 2 -25 10 -34h55c13 -8 21 -24 21 -41z" />
    <glyph glyph-name="quotedblright" unicode="&#x201d;" horiz-adv-x="448" 
d="M249 669c0 28 24 52 59 52c51 0 84 -44 84 -104c0 -93 -84 -172 -165 -172c61 38 108 87 108 149c0 15 -2 25 -10 34h-55c-13 8 -21 24 -21 41zM61 669c0 28 24 52 59 52c51 0 84 -44 84 -104c0 -93 -84 -172 -165 -172c61 38 108 87 108 149c0 15 -2 25 -10 34h-55
c-13 8 -21 24 -21 41z" />
    <glyph glyph-name="quotesinglbase" unicode="&#x201a;" horiz-adv-x="260" 
d="M61 79c0 28 24 52 59 52c51 0 84 -44 84 -104c0 -93 -84 -172 -165 -172c61 38 108 87 108 149c0 15 -2 25 -10 34h-55c-13 8 -21 24 -21 41z" />
    <glyph glyph-name="quotedblbase" unicode="&#x201e;" horiz-adv-x="448" 
d="M249 79c0 28 24 52 59 52c51 0 84 -44 84 -104c0 -93 -84 -172 -165 -172c61 38 108 87 108 149c0 15 -2 25 -10 34h-55c-13 8 -21 24 -21 41zM61 79c0 28 24 52 59 52c51 0 84 -44 84 -104c0 -93 -84 -172 -165 -172c61 38 108 87 108 149c0 15 -2 25 -10 34h-55
c-13 8 -21 24 -21 41z" />
    <glyph glyph-name="guilsinglleft" unicode="&#x2039;" horiz-adv-x="310" 
d="M50 225l210 201l-105 -201l105 -203z" />
    <glyph glyph-name="guilsinglright" unicode="&#x203a;" horiz-adv-x="310" 
d="M260 225l-210 -203l105 203l-105 201z" />
    <glyph glyph-name="guillemotleft" unicode="&#xab;" horiz-adv-x="490" 
d="M230 225l210 201l-105 -201l105 -203zM50 225l210 201l-105 -201l105 -203z" />
    <glyph glyph-name="guillemotright" unicode="&#xbb;" horiz-adv-x="490" 
d="M260 225l-210 -203l105 203l-105 201zM440 225l-210 -203l105 203l-105 201z" />
    <glyph glyph-name="guilsinglleft.cap" horiz-adv-x="310" 
d="M50 345l210 201l-105 -201l105 -203z" />
    <glyph glyph-name="guilsinglright.cap" horiz-adv-x="310" 
d="M260 345l-210 -203l105 203l-105 201z" />
    <glyph glyph-name="guillemotleft.cap" horiz-adv-x="490" 
d="M230 345l210 201l-105 -201l105 -203zM50 345l210 201l-105 -201l105 -203z" />
    <glyph glyph-name="guillemotright.cap" horiz-adv-x="490" 
d="M260 345l-210 -203l105 203l-105 201zM440 345l-210 -203l105 203l-105 201z" />
    <glyph glyph-name="slash" unicode="/" horiz-adv-x="437" 
d="M347 770h50l-307 -915h-50z" />
    <glyph glyph-name="backslash" unicode="\" horiz-adv-x="437" 
d="M90 770l307 -915h-50l-307 915h50z" />
    <glyph glyph-name="bar" unicode="|" horiz-adv-x="328" 
d="M188 770v-915h-48v915h48z" />
    <glyph glyph-name="slash.cap" horiz-adv-x="437" 
d="M347 747h50l-307 -864h-50z" />
    <glyph glyph-name="backslash.cap" horiz-adv-x="437" 
d="M90 747l307 -864h-50l-307 864h50z" />
    <glyph glyph-name="bar.cap" horiz-adv-x="328" 
d="M188 747v-864h-48v864h48z" />
    <glyph glyph-name="periodcentered" unicode="&#xb7;" horiz-adv-x="281" 
d="M208 250c0 -36 -28 -66 -68 -66c-38 0 -67 30 -67 66c0 38 29 69 67 69c40 0 68 -31 68 -69z" />
    <glyph glyph-name="bullet" unicode="&#x2022;" horiz-adv-x="418" 
d="M209 392c77 0 139 -62 139 -139c0 -76 -62 -139 -139 -139c-76 0 -139 63 -139 139c0 77 63 139 139 139z" />
    <glyph glyph-name="hyphen" unicode="-" horiz-adv-x="403" 
d="M333 282l-20 -58h-243l20 58h243z" />
    <glyph glyph-name="endash" unicode="&#x2013;" horiz-adv-x="650" 
d="M93 273h487l-23 -49h-487z" />
    <glyph glyph-name="emdash" unicode="&#x2014;" horiz-adv-x="1040" 
d="M93 273h877l-23 -49h-877z" />
    <glyph glyph-name="periodcentered.cap" horiz-adv-x="281" 
d="M208 332c0 -36 -28 -66 -68 -66c-38 0 -67 30 -67 66c0 38 29 69 67 69c40 0 68 -31 68 -69z" />
    <glyph glyph-name="bullet.cap" horiz-adv-x="418" 
d="M209 472c77 0 139 -62 139 -139c0 -76 -62 -139 -139 -139c-76 0 -139 63 -139 139c0 77 63 139 139 139z" />
    <glyph glyph-name="hyphen.cap" horiz-adv-x="403" 
d="M333 362l-20 -58h-243l20 58h243z" />
    <glyph glyph-name="endash.cap" horiz-adv-x="650" 
d="M93 358h487l-23 -49h-487z" />
    <glyph glyph-name="emdash.cap" horiz-adv-x="1040" 
d="M93 358h877l-23 -49h-877z" />
    <glyph glyph-name="parenleft" unicode="(" horiz-adv-x="405" 
d="M100 285c0 187 100 342 245 462c-89 -137 -153 -287 -153 -462s64 -325 153 -462c-145 120 -245 275 -245 462z" />
    <glyph glyph-name="parenright" unicode=")" horiz-adv-x="405" 
d="M305 285c0 -187 -100 -342 -245 -462c89 137 153 287 153 462s-64 325 -153 462c145 -120 245 -275 245 -462z" />
    <glyph glyph-name="bracketleft" unicode="[" horiz-adv-x="435" 
d="M130 -165v905h235v-45h-172v-815h172v-45h-235z" />
    <glyph glyph-name="bracketright" unicode="]" horiz-adv-x="435" 
d="M305 -165h-235v45h172v815h-172v45h235v-905z" />
    <glyph glyph-name="braceleft" unicode="{" horiz-adv-x="441" 
d="M35 286c73 14 176 42 176 108c0 71 -69 155 -69 219c0 66 51 127 146 127c40 0 83 -14 103 -24c-103 -5 -167 -36 -167 -108c0 -46 38 -152 38 -213c0 -68 -80 -99 -135 -109c55 -10 135 -41 135 -109c0 -61 -38 -167 -38 -213c0 -72 64 -103 167 -108
c-20 -10 -63 -24 -103 -24c-95 0 -146 61 -146 127c0 64 69 148 69 219c0 66 -103 94 -176 108z" />
    <glyph glyph-name="braceright" unicode="}" horiz-adv-x="441" 
d="M406 286c-73 -14 -176 -42 -176 -108c0 -71 69 -155 69 -219c0 -66 -51 -127 -146 -127c-40 0 -83 14 -103 24c103 5 167 36 167 108c0 46 -38 152 -38 213c0 68 80 99 135 109c-55 10 -135 41 -135 109c0 61 38 167 38 213c0 72 -64 103 -167 108c20 10 63 24 103 24
c95 0 146 -61 146 -127c0 -64 -69 -148 -69 -219c0 -66 103 -94 176 -108z" />
    <glyph glyph-name="parenleft.cap" horiz-adv-x="405" 
d="M100 315c0 175 100 320 245 432c-89 -128 -153 -269 -153 -432s64 -304 153 -432c-145 112 -245 257 -245 432z" />
    <glyph glyph-name="parenright.cap" horiz-adv-x="405" 
d="M305 315c0 -175 -100 -320 -245 -432c89 128 153 269 153 432s-64 304 -153 432c145 -112 245 -257 245 -432z" />
    <glyph glyph-name="bracketleft.cap" horiz-adv-x="435" 
d="M130 -107v844h235v-45h-172v-754h172v-45h-235z" />
    <glyph glyph-name="bracketright.cap" horiz-adv-x="435" 
d="M305 -107h-235v45h172v754h-172v45h235v-844z" />
    <glyph glyph-name="braceleft.cap" horiz-adv-x="441" 
d="M35 315c73 14 176 42 176 108c0 71 -69 133 -69 197c0 66 51 127 146 127c40 0 83 -14 103 -24c-103 -5 -167 -36 -167 -108c0 -46 38 -130 38 -191c0 -68 -80 -99 -135 -109c55 -10 135 -41 135 -109c0 -61 -38 -145 -38 -191c0 -72 64 -103 167 -108
c-20 -10 -63 -24 -103 -24c-95 0 -146 61 -146 127c0 64 69 126 69 197c0 66 -103 94 -176 108z" />
    <glyph glyph-name="braceright.cap" horiz-adv-x="441" 
d="M406 315c-73 -14 -176 -42 -176 -108c0 -71 69 -133 69 -197c0 -66 -51 -127 -146 -127c-40 0 -83 14 -103 24c103 5 167 36 167 108c0 46 -38 130 -38 191c0 68 80 99 135 109c-55 10 -135 41 -135 109c0 61 38 145 38 191c0 72 -64 103 -167 108c20 10 63 24 103 24
c95 0 146 -61 146 -127c0 -64 -69 -126 -69 -197c0 -66 103 -94 176 -108z" />
    <glyph glyph-name="asterisk" unicode="*" horiz-adv-x="470" 
d="M413 492l-153 59l-25 -162l-25 162l-153 -59l128 102l-128 102l153 -60l25 163l25 -163l153 60l-128 -102z" />
    <glyph glyph-name="dagger" unicode="&#x2020;" horiz-adv-x="482" 
d="M392 645v-42h-130v-275h-42v275h-130v42h130v125h42v-125h130z" />
    <glyph glyph-name="daggerdbl" unicode="&#x2021;" horiz-adv-x="482" 
d="M392 495v-42h-130v-125h-42v125h-130v42h130v108h-130v42h130v125h42v-125h130v-42h-130v-108h130z" />
    <glyph glyph-name="section" unicode="&#xa7;" horiz-adv-x="527" 
d="M231 -166c46 0 83 20 110 51l-200 396c-32 64 -51 113 -51 174c0 125 83 245 220 245c69 0 124 -33 124 -84c0 -44 -40 -65 -85 -65v103c-17 8 -36 10 -53 10c-46 0 -83 -20 -110 -51l200 -396c32 -64 51 -113 51 -174c0 -125 -83 -245 -220 -245c-69 0 -124 33 -124 84
c0 44 40 65 85 65v-103c17 -8 36 -10 53 -10zM168 322l198 -402c20 34 30 76 30 115c0 50 -13 92 -37 141l-198 402c-20 -34 -30 -76 -30 -115c0 -50 13 -92 37 -141z" />
    <glyph glyph-name="paragraph" unicode="&#xb6;" horiz-adv-x="628" 
d="M325 690h254v-44h-135v-669c0 -100 -72 -183 -178 -183c-83 0 -158 61 -158 150c0 78 62 137 134 137c53 0 82 -29 82 -66c0 -42 -42 -58 -82 -58v83c-47 0 -91 -38 -91 -93c0 -65 49 -112 115 -112c79 0 132 48 132 144v667h-73v-374c-127 0 -243 85 -243 209
s116 209 243 209z" />
    <glyph glyph-name="asciicircum" unicode="^" horiz-adv-x="392" 
d="M196 580l-166 -234l132 323c7 16 20 24 34 24s27 -8 34 -24l132 -323z" />
    <glyph glyph-name="asciitilde" unicode="~" horiz-adv-x="515" 
d="M370 233c-34 8 -137 22 -177 22c-32 0 -76 -33 -123 -70l75 140c34 -8 137 -22 177 -22c32 0 76 33 123 70z" />
    <glyph glyph-name="underscore" unicode="_" horiz-adv-x="503" 
d="M433 -75l-20 -58h-343l20 58h343z" />
    <glyph glyph-name="quotesingle" unicode="'" horiz-adv-x="194" 
d="M97 395l-47 304c0 22 12 51 47 51s47 -29 47 -51z" />
    <glyph glyph-name="quotedbl" unicode="&#x22;" horiz-adv-x="354" 
d="M257 395l-47 304c0 22 12 51 47 51s47 -29 47 -51zM97 395l-47 304c0 22 12 51 47 51s47 -29 47 -51z" />
    <glyph glyph-name="at" unicode="@" horiz-adv-x="939" 
d="M614 35c113 3 188 110 188 263c0 138 -89 293 -288 293c-234 0 -377 -190 -377 -399c0 -247 198 -366 384 -366c99 0 206 21 296 68c-80 -71 -199 -121 -330 -121c-198 0 -427 126 -427 404c0 233 186 455 454 455c230 0 365 -171 365 -344s-123 -287 -238 -287
c-58 0 -88 28 -105 57h-17c-24 -22 -65 -56 -116 -56c-46 0 -90 33 -90 87c0 61 58 97 115 119l107 42v56c0 50 -26 102 -126 73v-86h-102c33 81 127 148 210 148c52 0 97 -37 97 -107v-299zM535 220l-54 -23c-56 -23 -86 -43 -86 -86c0 -33 25 -51 59 -51c32 0 58 14 81 36
v124z" />
    <glyph glyph-name="at.cap" horiz-adv-x="939" 
d="M614 144c113 3 188 110 188 263c0 138 -89 293 -288 293c-234 0 -377 -190 -377 -399c0 -247 198 -366 384 -366c99 0 206 21 296 68c-80 -71 -199 -121 -330 -121c-198 0 -427 126 -427 404c0 233 186 455 454 455c230 0 365 -171 365 -344s-123 -287 -238 -287
c-58 0 -88 28 -105 57h-17c-24 -22 -65 -56 -116 -56c-46 0 -90 33 -90 87c0 61 58 97 115 119l107 42v56c0 50 -26 102 -126 73v-86h-102c33 81 127 148 210 148c52 0 97 -37 97 -107v-299zM535 329l-54 -23c-56 -23 -86 -43 -86 -86c0 -33 25 -51 59 -51c32 0 58 14 81 36
v124z" />
    <glyph glyph-name="copyright" unicode="&#xa9;" horiz-adv-x="821" 
d="M60 345c0 194 158 355 351 355c192 0 350 -161 350 -355s-158 -355 -350 -355c-193 0 -351 161 -351 355zM100 345c0 -174 140 -317 311 -317c170 0 310 143 310 317c0 173 -140 316 -310 316c-171 0 -311 -143 -311 -316zM576 250c-22 -59 -82 -108 -162 -108
c-101 0 -197 75 -197 197c0 130 104 215 206 215c42 0 74 -14 97 -28l44 28v-141c-37 57 -77 111 -140 111c-69 0 -130 -60 -130 -154c0 -109 75 -171 156 -171c51 0 91 19 126 51z" />
    <glyph glyph-name="registered" unicode="&#xae;" horiz-adv-x="529" 
d="M60 494c0 114 85 206 205 206c118 0 204 -92 204 -206c0 -111 -86 -203 -204 -203c-120 0 -205 92 -205 203zM90 494c0 -95 72 -173 175 -173c101 0 174 78 174 173c0 98 -73 176 -174 176c-103 0 -175 -78 -175 -176zM263 416v-20h-104v20h30v169h-30v20h99
c50 0 87 -18 87 -57c0 -28 -23 -46 -54 -53l85 -99h-51l-78 95h-15v-75h31zM232 585v-76h21c29 0 50 11 50 39c0 25 -21 37 -50 37h-21z" />
    <glyph glyph-name="trademark" unicode="&#x2122;" horiz-adv-x="908" 
d="M96 690h255l24 13v-116l-54 73h-67v-251h62v-30h-184v30h61v251h-66l-55 -73v116zM746 409l-24 253l-106 -302l-107 302l-23 -253h51v-30h-123v30h40l23 250h-41v31h130l66 -202l67 202h126v-31h-41l23 -250h40v-30h-152v30h51z" />
    <glyph glyph-name="numbersign" unicode="#" horiz-adv-x="660" 
d="M81 0l73 208h-104v39h118l69 196h-127v39h141l73 208h42l-73 -208h171l73 208h42l-73 -208h104v-39h-118l-69 -196h127v-39h-141l-73 -208h-42l73 208h-171l-73 -208h-42zM210 247h171l69 196h-171z" />
    <glyph glyph-name="degree" unicode="&#xb0;" horiz-adv-x="323" 
d="M162 416c-78 0 -142 64 -142 142s64 142 142 142s141 -64 141 -142s-63 -142 -141 -142zM162 466c51 0 91 42 91 92s-40 92 -91 92s-92 -41 -92 -92s41 -92 92 -92z" />
    <glyph glyph-name="florin" unicode="&#x192;" horiz-adv-x="565" 
d="M200 59c-73 -211 -143 -349 -254 -349c-36 0 -50 26 -50 58c0 15 3 31 7 46l143 -18l136 474h-121l10 40h123l10 36c68 236 171 354 295 354c48 0 66 -27 66 -52s-18 -49 -40 -62l-118 64l-119 -340h130l-11 -40h-133z" />
    <glyph glyph-name="Euro" unicode="&#x20ac;" horiz-adv-x="625" 
d="M20 269v40h80v20c0 22 1 43 4 63h-84v40h91c36 164 156 268 275 268c62 0 107 -25 138 -52l62 52v-225c-51 94 -116 177 -202 177c-91 0 -169 -88 -190 -220h214l-13 -40h-205c-1 -9 -1 -19 -1 -29c0 -19 1 -37 3 -54h185l-14 -40h-164c29 -127 116 -200 215 -200
c84 0 141 40 189 95c-27 -95 -105 -174 -223 -174c-134 0 -254 106 -276 279h-84z" />
    <glyph glyph-name="dollar" unicode="$" horiz-adv-x="555" 
d="M287 810h38l-8 -121c37 -8 69 -26 89 -44l69 52v-225c-42 79 -94 147 -162 170l-16 -239c96 -38 203 -76 203 -193c0 -122 -102 -208 -232 -215l-8 -121h-38l8 122c-66 5 -137 32 -180 72v167c43 -106 105 -173 184 -190l19 277c-90 34 -185 69 -185 181
c0 104 83 192 199 192h12zM263 650c-68 0 -117 -47 -117 -114c0 -61 51 -92 114 -118l16 231c-4 1 -9 1 -13 1zM413 171c0 75 -56 109 -123 136l-18 -266h2c75 0 139 46 139 130z" />
    <glyph glyph-name="cent" unicode="&#xa2;" horiz-adv-x="453" 
d="M342 323l-57 98l-30 -357c8 -1 16 -1 24 -1c60 0 110 31 140 71c-11 -79 -79 -140 -170 -144l-10 -116h-38l10 118c-104 14 -181 100 -181 216c0 130 98 232 220 249l11 132h38l-11 -129c78 -1 123 -34 123 -78c0 -33 -32 -59 -69 -59zM109 237c0 -87 43 -144 109 -165
l29 348c-80 -17 -138 -91 -138 -183z" />
    <glyph glyph-name="sterling" unicode="&#xa3;" horiz-adv-x="607" 
d="M98 0c-34 0 -66 27 -59 78l111 30l55 219h-106l10 40h106l21 85c38 153 118 248 247 248c55 0 91 -27 91 -62c0 -31 -21 -55 -46 -68l-118 91l-114 -294h130l-11 -40h-134l-84 -218l320 -42l9 11l-73 76c9 27 35 43 60 43c31 0 59 -27 59 -69c0 -68 -62 -136 -140 -146
l-248 94c-22 -47 -50 -76 -86 -76z" />
    <glyph glyph-name="yen" unicode="&#xa5;" horiz-adv-x="694" 
d="M111 226v40h188v82h-188v40h160l-178 258h-83v44h315v-44h-123l167 -256l177 256h-123v44h261v-44h-83l-183 -258h167v-40h-195v-82h195v-40h-195v-182h113v-44h-317v44h113v182h-188z" />
    <glyph glyph-name="baht" unicode="&#xe3f;" horiz-adv-x="651" 
d="M35 690h275h23v120h38v-123c123 -13 202 -66 202 -163c0 -81 -86 -147 -181 -160c95 -6 222 -60 222 -171c0 -106 -98 -182 -243 -192v-127h-38v126h-298v44h103v602h-103v44zM300 646h-70v-271h71c11 0 22 1 32 2v268c-11 1 -22 1 -33 1zM476 514c0 70 -41 109 -105 125
v-254c61 19 105 63 105 129zM230 44h100h3v289h-11h-92v-289zM514 194c0 85 -66 125 -143 136v-283c85 11 143 59 143 147z" />
    <glyph glyph-name="dong" unicode="&#x20ab;" horiz-adv-x="596" 
d="M471 145l88 -46l-171 -58v57h-22c-35 -26 -77 -48 -127 -48c-109 0 -189 87 -189 210c0 144 121 239 243 239c28 0 62 -5 95 -19v93h-155v40h155v95l83 30v-125h89v-40h-89v-428zM388 145v263c-13 28 -53 50 -102 50c-78 0 -149 -51 -149 -174c0 -112 70 -178 165 -178
c39 0 74 19 86 39zM66 -100v40h484v-40h-484z" />
    <glyph glyph-name="franc" unicode="&#x20a3;" horiz-adv-x="633" 
d="M60 269v40h103v83h-103v40h103v214h-103v44h479l54 29v-212l-103 139h-236v-214h234l-13 -40h-221v-83h203l-14 -40h-189v-225h133v-44h-327v44h103v225h-103z" />
    <glyph glyph-name="naira" unicode="&#x20a6;" horiz-adv-x="826" 
d="M60 269v40h103v83h-103v40h103v156l-82 102h111l419 -537v493h-103v44h258v-44h-103v-214h103v-40h-103v-83h103v-40h-103v-302l-448 557v-480h103v-44h-258v44h103v225h-103z" />
    <glyph glyph-name="peseta" unicode="&#x20a7;" horiz-adv-x="743" 
d="M60 458v40h103v148h-103v44h274c159 0 275 -61 286 -192h103v-40h-103c-11 -110 -125 -181 -227 -181l-77 33c135 0 202 59 211 148h-273v-414h133v-44h-327v44h103v414h-103zM254 646v-148h273c-8 102 -84 148 -189 148h-84z" />
    <glyph glyph-name="peso" unicode="&#x20b1;" horiz-adv-x="737" 
d="M60 400v40h103v83h-103v40h103v83h-103v44h274c130 0 231 -41 270 -127h113v-40h-101c3 -15 5 -30 5 -47c0 -12 -1 -25 -4 -36h100v-40h-114c-37 -76 -127 -123 -210 -123l-77 33c103 0 166 34 194 90h-256v-356h133v-44h-327v44h103v356h-103zM254 646v-83h256
c-30 57 -93 83 -172 83h-84zM528 480c0 16 -1 30 -4 43h-270v-83h270c3 13 4 26 4 40z" />
    <glyph glyph-name="uni20BD" unicode="&#x20bd;" horiz-adv-x="660" 
d="M60 213v40h103v83h-103v40h103v270h-103v44h273c166 0 287 -47 287 -172c0 -126 -139 -182 -287 -182h-79v-83h253v-40h-253v-169h134v-44h-328v44h103v169h-103zM254 646v-269h78c109 0 187 41 187 137s-78 132 -187 132h-78z" />
    <glyph glyph-name="uni20B9" unicode="&#x20b9;" horiz-adv-x="617" 
d="M50 366h126c109 0 187 47 187 143c0 6 0 12 -1 18h-312v40h301c-25 56 -91 83 -175 83h-126v40h527l-20 -40h-200c40 -18 74 -46 91 -83h129l-20 -40h-98c1 -4 1 -9 1 -14c0 -98 -84 -157 -192 -178l285 -335h-116l-275 326h-112v40z" />
    <glyph glyph-name="uni20BA" unicode="&#x20ba;" horiz-adv-x="679" 
d="M254 44h50c156 0 228 71 228 245h97c0 -178 -104 -289 -315 -289h-254v44h103v204l-103 -60v44l103 60v96l-103 -60v44l103 60v214h-103v44h297v-44h-103v-168l164 97v-44l-164 -97v-96l164 97v-44l-164 -97v-250z" />
    <glyph glyph-name="won" unicode="&#x20a9;" horiz-adv-x="952" 
d="M50 408v40h110l-67 198h-73v44h248v-44h-88l66 -198h227l-62 198h-65v44h250v-44h-105l61 -198h193l65 198h-109v44h231v-44h-73l-67 -198h105v-40h-119l-152 -449l-131 418l-169 -418l-152 449h-124zM351 132l109 276h-201zM645 145l87 263h-168z" />
    <glyph glyph-name="florin.sc" horiz-adv-x="533" 
d="M69 -163l94 374h-89l9 36h89l9 38c48 183 150 275 256 275c43 0 67 -22 67 -59c0 -25 -20 -58 -44 -67l-78 93c-33 -38 -67 -114 -110 -246l-11 -34h102l-9 -36h-105l-46 -141c-65 -200 -123 -301 -212 -301c-31 0 -52 23 -52 55c0 18 5 35 11 45z" />
    <glyph glyph-name="Euro.sc" horiz-adv-x="562" 
d="M42 223v36h65v8c0 19 1 37 4 54h-69v36h76c31 126 127 203 222 203c50 0 85 -18 111 -39l54 39v-199c-44 79 -97 157 -164 157s-130 -62 -146 -161h173l-10 -36h-167c-1 -6 -1 -12 -1 -19c0 -15 1 -29 2 -43h151l-11 -36h-134c24 -103 94 -158 171 -158
c63 0 109 32 149 76c-24 -87 -89 -151 -185 -151c-108 0 -207 87 -224 233h-67z" />
    <glyph glyph-name="dollar.sc" horiz-adv-x="500" 
d="M263 646h33l-7 -97c28 -7 53 -21 69 -35l58 41v-192c-37 65 -78 123 -130 143l-14 -179c78 -28 165 -59 165 -156c0 -99 -84 -169 -190 -175l-7 -96h-33l7 97c-56 4 -113 28 -147 58v148c38 -88 89 -149 150 -164l16 204c-74 28 -153 56 -153 150c0 92 72 161 166 161h10
zM245 514c-56 0 -97 -33 -97 -83c0 -48 41 -71 92 -92l13 175h-8zM361 128c0 56 -43 82 -96 103l-15 -196c60 1 111 32 111 93z" />
    <glyph glyph-name="sterling.sc" horiz-adv-x="543" 
d="M102 0c-32 0 -60 34 -52 82l96 19l34 160h-80l8 36h79l10 46c23 141 100 217 206 217c59 0 88 -32 88 -65c0 -32 -18 -56 -42 -67l-95 100l-91 -231h103l-9 -36h-108l-62 -158l259 -42l8 8l-68 77c7 24 31 39 54 39c29 0 52 -27 52 -64c0 -69 -64 -140 -130 -154
l-186 109c-20 -51 -43 -76 -74 -76z" />
    <glyph glyph-name="yen.sc" horiz-adv-x="598" 
d="M110 176v36h142v61h-142v36h119l-139 201h-64v40h264v-40h-91l126 -192l136 192h-91v40h202v-40h-64l-141 -201h122v-36h-146v-61h146v-36h-146v-136h91v-40h-273v40h91v136h-142z" />
    <glyph glyph-name="baht.sc" horiz-adv-x="569" 
d="M40 550h234h8v96h33v-98c105 -8 171 -51 171 -130c0 -67 -70 -115 -146 -126c76 -5 179 -47 179 -137c0 -86 -80 -148 -204 -154v-101h-33v100h-242v40h80v470h-80v40zM263 510h-56v-208h56c6 0 13 0 19 1v206c-6 1 -13 1 -19 1zM395 409c0 55 -32 84 -80 96v-195
c46 14 80 47 80 99zM207 40h75v225h-6h-69v-225zM422 155c0 67 -49 98 -107 107v-220c62 10 107 47 107 113z" />
    <glyph glyph-name="dong.sc" horiz-adv-x="529" 
d="M413 107l64 -42l-146 -45v50h-16c-26 -23 -61 -44 -104 -44c-88 0 -149 71 -149 166c0 115 96 192 195 192c23 0 50 -4 74 -15v84h-129v36h129v71l82 27v-98h65v-36h-65v-346zM331 102v209c-11 22 -39 40 -76 40c-59 0 -110 -43 -110 -134c0 -89 55 -140 128 -140
c26 0 49 12 58 25zM82 -96v36h383v-36h-383z" />
    <glyph glyph-name="franc.sc" horiz-adv-x="532" 
d="M60 207v36h80v62h-80v36h80v169h-80v40h389l43 23v-180l-92 117h-171v-169h182l-11 -36h-171v-62h157l-11 -36h-146v-167h102v-40h-271v40h80v167h-80z" />
    <glyph glyph-name="naira.sc" horiz-adv-x="683" 
d="M60 207v36h80v64h-80v36h80v121l-71 86h112l317 -400v360h-84v40h209v-40h-80v-167h80v-36h-80v-64h80v-36h-80v-233l-358 435v-369h84v-40h-209v40h80v167h-80z" />
    <glyph glyph-name="peseta.sc" horiz-adv-x="616" 
d="M60 364v36h80v110h-80v40h226c127 0 221 -47 231 -150h79v-36h-79c-10 -90 -101 -143 -182 -143l-63 27c95 2 150 47 158 116h-203v-324h105v-40h-272v40h80v324h-80zM227 510v-110h203c-8 76 -67 110 -145 110h-58z" />
    <glyph glyph-name="peso.sc" horiz-adv-x="612" 
d="M60 314v36h80v62h-80v36h80v62h-80v40h227c106 0 188 -32 219 -102h86v-36h-76c2 -10 3 -20 3 -31s-1 -21 -3 -31h76v-36h-90c-31 -59 -102 -93 -166 -93l-63 27c70 1 117 26 141 66h-187v-274h106v-40h-273v40h80v274h-80zM227 510v-62h190c-23 43 -72 62 -132 62h-58z
M432 383c0 10 -1 20 -3 29h-202v-62h201c3 10 4 21 4 33z" />
    <glyph glyph-name="uni20BD.sc" horiz-adv-x="555" 
d="M60 164v36h80v64h-80v36h80v210h-80v40h227c131 0 228 -39 228 -140s-108 -146 -228 -146h-60v-64h190v-36h-190v-124h106v-40h-273v40h80v124h-80zM227 510v-210h53c80 0 141 31 141 107c0 77 -61 103 -141 103h-53z" />
    <glyph glyph-name="uni20B9.sc" horiz-adv-x="511" 
d="M63 292h87c79 0 142 34 142 111c0 5 0 9 -1 13h-238v36h229c-22 43 -72 62 -132 62h-97v36h428l-15 -36h-163c32 -14 59 -35 74 -62h104l-15 -36h-79c1 -3 1 -7 1 -10c0 -76 -64 -122 -145 -140l223 -266h-113l-211 256h-79v36z" />
    <glyph glyph-name="uni20BA.sc" horiz-adv-x="562" 
d="M60 142v40l80 47v74l-80 -47v40l80 47v167h-80v40h247v-40h-80v-122l129 76v-40l-129 -76v-73l129 76v-40l-129 -76v-195h31c116 0 171 53 171 190h93c0 -142 -87 -230 -255 -230h-207v40h80v149z" />
    <glyph glyph-name="won.sc" horiz-adv-x="790" 
d="M54 327v36h84l-51 147h-57v40h206v-40h-64l49 -147h167l-47 147h-49v40h209v-40h-80l45 -147h147l49 147h-84v40h182v-40h-55l-50 -147h78v-36h-90l-126 -368l-109 342l-131 -342l-127 368h-96zM300 127l77 200h-144zM537 135l64 192h-123z" />
    <glyph glyph-name="florin.lt" 
d="M252 59c-73 -211 -143 -349 -254 -349c-36 0 -50 26 -50 58c0 15 3 31 7 46l143 -18l136 474h-121l10 40h123l10 36c68 236 171 354 295 354c48 0 66 -27 66 -52s-18 -49 -40 -62l-118 64l-119 -340h130l-11 -40h-133z" />
    <glyph glyph-name="Euro.lt" 
d="M39 269v40h50v20c0 22 1 43 4 63h-54v40h61c34 164 150 268 264 268c60 0 103 -25 133 -52l60 52v-225c-49 94 -112 177 -195 177c-88 0 -161 -88 -180 -220h215l-13 -40h-206c-1 -9 -1 -19 -1 -29c0 -19 1 -37 3 -54h186l-14 -40h-165c27 -127 109 -200 204 -200
c81 0 136 40 182 95c-26 -95 -101 -174 -215 -174c-129 0 -244 106 -265 279h-54z" />
    <glyph glyph-name="dollar.lt" 
d="M315 810h38l-8 -121c37 -8 69 -26 89 -44l69 52v-225c-42 79 -94 147 -162 170l-16 -239c96 -38 203 -76 203 -193c0 -122 -102 -208 -232 -215l-8 -121h-38l8 122c-66 5 -137 32 -180 72v167c43 -106 105 -173 184 -190l19 277c-90 34 -185 69 -185 181
c0 104 83 192 199 192h12zM291 650c-68 0 -117 -47 -117 -114c0 -61 51 -92 114 -118l16 231c-4 1 -9 1 -13 1zM441 171c0 75 -56 109 -123 136l-18 -266h2c75 0 139 46 139 130z" />
    <glyph glyph-name="cent.lt" 
d="M412 323l-57 98l-30 -357c8 -1 16 -1 24 -1c60 0 110 31 140 71c-11 -79 -79 -140 -170 -144l-10 -116h-38l10 118c-104 14 -181 100 -181 216c0 130 98 232 220 249l11 132h38l-11 -129c78 -1 123 -34 123 -78c0 -33 -32 -59 -69 -59zM179 237c0 -87 43 -144 109 -165
l29 348c-80 -17 -138 -91 -138 -183z" />
    <glyph glyph-name="sterling.lt" 
d="M80 0c-34 0 -66 27 -59 78l111 30l55 219h-106l10 40h106l21 85c38 153 120 248 249 248c55 0 89 -27 89 -62c0 -31 -21 -55 -46 -68l-122 80l-110 -283h130l-11 -40h-134l-84 -218l320 -42l9 11l-73 76c9 27 35 43 60 43c31 0 59 -27 59 -69c0 -68 -62 -136 -140 -146
l-248 94c-22 -47 -50 -76 -86 -76z" />
    <glyph glyph-name="yen.lt" 
d="M84 226v40h168v82h-168v40h144l-152 258h-63v44h258v-44h-93l143 -250l148 250h-93v44h211v-44h-63l-157 -258h151v-40h-175v-82h175v-40h-175v-182h113v-44h-317v44h113v182h-168z" />
    <glyph glyph-name="baht.lt" 
d="M25 690h245h23v120h38v-123c123 -13 202 -66 202 -163c0 -81 -86 -147 -181 -160c95 -6 222 -60 222 -171c0 -106 -98 -182 -243 -192v-127h-38v126h-268v44h83v602h-83v44zM260 646h-60v-271h61c11 0 22 1 32 2v268c-11 1 -22 1 -33 1zM436 514c0 70 -41 109 -105 125
v-254c61 19 105 63 105 129zM200 44h90h3v289h-11h-82v-289zM474 194c0 85 -66 125 -143 136v-283c85 11 143 59 143 147z" />
    <glyph glyph-name="dong.lt" 
d="M481 145l88 -46l-171 -58v57h-22c-35 -26 -77 -48 -127 -48c-109 0 -189 87 -189 210c0 144 121 239 243 239c28 0 62 -5 95 -19v93h-155v40h155v95l83 30v-125h89v-40h-89v-428zM398 145v263c-13 28 -53 50 -102 50c-78 0 -149 -51 -149 -174c0 -112 70 -178 165 -178
c39 0 74 19 86 39zM76 -100v40h484v-40h-484z" />
    <glyph glyph-name="franc.lt" 
d="M40 269v40h103v83h-103v40h103v214h-103v44h479l54 29v-212l-103 139h-236v-214h234l-13 -40h-221v-83h203l-14 -40h-189v-225h133v-44h-327v44h103v225h-103z" />
    <glyph glyph-name="naira.lt" 
d="M259 0h-238v44h83v225h-83v40h83v83h-83v40h83v133l-82 125h104l319 -503v459h-93v44h228v-44h-83v-214h83v-40h-83v-83h83v-40h-83v-302l-341 519v-442h103v-44z" />
    <glyph glyph-name="peseta.lt" 
d="M20 458l10 40h87v148h-83v44h222c139 0 249 -61 260 -192h74l-10 -40h-64c-10 -110 -109 -181 -198 -181l-68 33c113 0 168 59 176 148h-218v-414h133v-44h-307v44h83v414h-97zM208 646v-148h218c-7 102 -80 148 -168 148h-50z" />
    <glyph glyph-name="peso.lt" 
d="M34 400v40h83v83h-83v40h83v83h-83v44h222c114 0 208 -41 245 -127h89l-10 -40h-67c3 -15 4 -30 4 -47c0 -12 -1 -25 -3 -36h76l-10 -40h-78c-33 -76 -112 -123 -184 -123l-68 33c86 0 139 34 162 90h-204v-356h133v-44h-307v44h83v356h-83zM208 646v-83h202
c-28 57 -86 83 -152 83h-50zM427 480c0 16 -1 30 -4 43h-215v-83h216c2 13 3 26 3 40z" />
    <glyph glyph-name="uni20BD.lt" 
d="M40 213v40h103v83h-103v40h103v270h-103v44h246c166 0 287 -47 287 -172c0 -126 -139 -182 -287 -182h-52v-83h226l-14 -40h-212v-169h134v-44h-328v44h103v169h-103zM234 646v-269h51c109 0 187 41 187 137s-78 132 -187 132h-51z" />
    <glyph glyph-name="uni20B9.lt" 
d="M40 366h126c109 0 187 47 187 143c0 6 0 12 -1 18h-312v40h301c-25 56 -91 83 -175 83h-126v40h527l-20 -40h-200c40 -18 74 -46 91 -83h129l-20 -40h-98c1 -4 1 -9 1 -14c0 -98 -84 -157 -192 -178l285 -335h-116l-275 326h-112v40z" />
    <glyph glyph-name="uni20BA.lt" 
d="M224 44h30c156 0 228 71 228 245h97c0 -178 -104 -289 -315 -289h-234v44h103v204l-103 -60v44l103 60v96l-103 -60v44l103 60v214h-103v44h297v-44h-103v-168l164 97v-44l-164 -97v-96l164 97v-44l-164 -97v-250z" />
    <glyph glyph-name="won.lt" 
d="M0 438l7 40h78l-37 168h-48v44h223v-44h-98l36 -168h129l-26 122h73l25 -122h107l36 168h-112v44h207v-44h-48l-37 -168h82l-7 -40h-84l-107 -479l-87 415l-111 -415l-107 479h-94zM221 204l65 234h-116zM414 217l47 221h-91z" />
    <glyph glyph-name="florin.st" horiz-adv-x="599" 
d="M137 -163l94 374h-89l9 36h89l9 38c48 183 150 275 256 275c43 0 67 -22 67 -59c0 -25 -20 -58 -44 -67l-78 93c-33 -38 -67 -114 -110 -246l-11 -34h102l-9 -36h-105l-46 -141c-65 -200 -123 -301 -212 -301c-31 0 -52 23 -52 55c0 18 5 35 11 45z" />
    <glyph glyph-name="Euro.st" 
d="M62 223v36h65v8c0 19 1 37 4 54h-69v36h76c31 126 127 203 222 203c50 0 85 -18 111 -39l54 39v-199c-44 79 -97 157 -164 157s-130 -62 -146 -161h173l-10 -36h-167c-1 -6 -1 -12 -1 -19c0 -15 1 -29 2 -43h151l-11 -36h-134c24 -103 94 -158 171 -158
c63 0 109 32 149 76c-24 -87 -89 -151 -185 -151c-108 0 -207 87 -224 233h-67z" />
    <glyph glyph-name="dollar.st" 
d="M311 646h33l-7 -97c28 -7 53 -21 69 -35l58 41v-192c-37 65 -78 123 -130 143l-14 -179c78 -28 165 -59 165 -156c0 -99 -84 -169 -190 -175l-7 -96h-33l7 97c-56 4 -113 28 -147 58v148c38 -88 89 -149 150 -164l16 204c-74 28 -153 56 -153 150c0 92 72 161 166 161h10
zM293 514c-56 0 -97 -33 -97 -83c0 -48 41 -71 92 -92l13 175h-8zM409 128c0 56 -43 82 -96 103l-15 -196c60 1 111 32 111 93z" />
    <glyph glyph-name="sterling.st" 
d="M132 0c-32 0 -60 34 -52 82l96 19l34 160h-80l8 36h79l10 46c23 141 100 217 206 217c59 0 88 -32 88 -65c0 -32 -18 -56 -42 -67l-95 100l-91 -231h103l-9 -36h-108l-62 -158l259 -42l8 8l-68 77c7 24 31 39 54 39c29 0 52 -27 52 -64c0 -69 -64 -140 -130 -154
l-186 109c-20 -51 -43 -76 -74 -76z" />
    <glyph glyph-name="yen.st" 
d="M111 176v36h142v61h-142v36h119l-139 201h-64v40h264v-40h-91l126 -192l136 192h-91v40h202v-40h-64l-141 -201h122v-36h-146v-61h146v-36h-146v-136h91v-40h-273v40h91v136h-142z" />
    <glyph glyph-name="baht.st" 
d="M59 550h234h8v96h33v-98c105 -8 171 -51 171 -130c0 -67 -70 -115 -146 -126c76 -5 179 -47 179 -137c0 -86 -80 -148 -204 -154v-101h-33v100h-242v40h80v470h-80v40zM282 510h-56v-208h56c6 0 13 0 19 1v206c-6 1 -13 1 -19 1zM414 409c0 55 -32 84 -80 96v-195
c46 14 80 47 80 99zM226 40h75v225h-6h-69v-225zM441 155c0 67 -49 98 -107 107v-220c62 10 107 47 107 113z" />
    <glyph glyph-name="dong.st" 
d="M449 107l64 -42l-146 -45v50h-16c-26 -23 -61 -44 -104 -44c-88 0 -149 71 -149 166c0 115 96 192 195 192c23 0 50 -4 74 -15v84h-129v36h129v71l82 27v-98h65v-36h-65v-346zM367 102v209c-11 22 -39 40 -76 40c-59 0 -110 -43 -110 -134c0 -89 55 -140 128 -140
c26 0 49 12 58 25zM118 -96v36h383v-36h-383z" />
    <glyph glyph-name="franc.st" 
d="M95 207v36h80v62h-80v36h80v169h-80v40h389l43 23v-180l-92 117h-171v-169h182l-11 -36h-171v-62h157l-11 -36h-146v-167h102v-40h-271v40h80v167h-80z" />
    <glyph glyph-name="naira.st" 
d="M34 207v36h80v64h-80v36h80v115l-71 92h102l299 -400v360h-84v40h209v-40h-80v-167h80v-36h-80v-64h80v-36h-80v-233l-330 426v-360h84v-40h-209v40h80v167h-80z" />
    <glyph glyph-name="peseta.st" 
d="M55 364v36h80v110h-80v40h226c122 0 211 -47 221 -150h69v-36h-69c-10 -90 -96 -143 -172 -143l-63 27c89 2 140 47 148 116h-193v-324h105v-40h-272v40h80v324h-80zM222 510v-110h193c-7 76 -62 110 -135 110h-58z" />
    <glyph glyph-name="peso.st" 
d="M55 314v36h80v62h-80v36h80v62h-80v40h227c101 0 180 -32 209 -102h76v-36h-65c1 -10 2 -20 2 -31s-1 -21 -3 -31h66v-36h-79c-30 -59 -97 -93 -157 -93l-63 27c65 1 112 26 136 66h-182v-274h106v-40h-273v40h80v274h-80zM222 510v-62h186c-22 43 -67 62 -123 62h-63z
M422 383c0 10 -1 20 -2 29h-198v-62h196c3 10 4 21 4 33z" />
    <glyph glyph-name="uni20BD.st" 
d="M80 164v36h80v64h-80v36h80v210h-80v40h227c131 0 228 -39 228 -140s-108 -146 -228 -146h-60v-64h190v-36h-190v-124h106v-40h-273v40h80v124h-80zM247 510v-210h53c80 0 141 31 141 107c0 77 -61 103 -141 103h-53z" />
    <glyph glyph-name="uni20B9.st" 
d="M102 292h87c79 0 142 34 142 111c0 5 0 9 -1 13h-238v36h229c-22 43 -72 62 -132 62h-97v36h428l-15 -36h-163c32 -14 59 -35 74 -62h104l-15 -36h-79c1 -3 1 -7 1 -10c0 -76 -64 -122 -145 -140l223 -266h-113l-211 256h-79v36z" />
    <glyph glyph-name="uni20BA.st" 
d="M84 142v40l80 47v74l-80 -47v40l80 47v167h-80v40h247v-40h-80v-122l129 76v-40l-129 -76v-73l129 76v-40l-129 -76v-195h31c116 0 171 53 171 190h93c0 -142 -87 -230 -255 -230h-207v40h80v149z" />
    <glyph glyph-name="won.st" 
d="M22 340v36h65l-38 134h-45v40h186v-40h-67l36 -134h132l-27 106h66l26 -106h118l36 134h-82v40h168v-40h-44l-37 -134h59v-36h-69l-106 -381l-89 343l-106 -343l-107 381h-75zM222 144l62 196h-115zM412 149l52 191h-99z" />
    <glyph glyph-name="zero" unicode="0" 
d="M300 700c134 0 256 -167 256 -355s-122 -355 -256 -355s-256 167 -256 355s122 355 256 355zM300 33c90 0 157 153 157 312c0 160 -67 312 -157 312s-157 -152 -157 -312c0 -159 67 -312 157 -312z" />
    <glyph glyph-name="one" unicode="1" horiz-adv-x="432" 
d="M271 700v-656h131v-44h-352v44h131v524h-171z" />
    <glyph glyph-name="two" unicode="2" horiz-adv-x="527" 
d="M442 0h-430c175 172 353 338 353 471c0 85 -49 143 -140 143s-144 -59 -191 -130c31 123 118 216 239 216c112 0 185 -84 185 -191c0 -137 -137 -263 -293 -404v-15h349z" />
    <glyph glyph-name="three" unicode="3" horiz-adv-x="490" 
d="M193 29c79 11 173 71 173 164c0 98 -105 152 -265 152c133 71 222 109 222 190c0 58 -42 89 -104 89c-68 0 -128 -45 -167 -92c24 82 104 168 214 168c90 0 152 -56 152 -126c0 -80 -74 -126 -153 -164v-12c113 -21 193 -70 193 -159c0 -131 -153 -249 -312 -249
c-67 0 -112 32 -112 76c0 24 16 51 43 63z" />
    <glyph glyph-name="four" unicode="4" horiz-adv-x="633" 
d="M526 0h-292v44h103v180h-315l401 476v-426h200l-41 -50h-159v-180h103v-44zM337 274v261l-222 -261h222z" />
    <glyph glyph-name="five" unicode="5" horiz-adv-x="499" 
d="M139 446c165 16 305 -56 305 -191c0 -148 -146 -265 -305 -265c-66 0 -109 32 -109 76c0 24 17 51 43 63l114 -98c80 12 174 65 174 178s-86 177 -271 159l50 322h305l-46 -90h-238z" />
    <glyph glyph-name="six" unicode="6" horiz-adv-x="565" 
d="M290 -10c-135 0 -240 119 -240 272c0 213 196 424 499 438c-196 -67 -332 -176 -380 -332h20c35 24 73 44 128 44c117 0 196 -91 196 -198c0 -122 -95 -224 -223 -224zM150 236c0 -117 56 -206 144 -206c75 0 127 64 127 154c0 107 -78 173 -171 173
c-37 0 -70 -14 -91 -27c-6 -30 -9 -61 -9 -94z" />
    <glyph glyph-name="seven" unicode="7" horiz-adv-x="525" 
d="M212 0h-73l284 600h-411l46 90h453z" />
    <glyph glyph-name="eight" unicode="8" horiz-adv-x="555" 
d="M510 184c0 -97 -101 -194 -232 -194c-127 0 -233 81 -233 180c0 82 67 133 155 161v21c-68 41 -126 88 -126 163c0 102 90 185 206 185c118 0 211 -71 211 -169c0 -77 -57 -120 -133 -152v-17c79 -45 152 -95 152 -178zM158 545c0 -73 80 -117 164 -163
c49 38 83 86 83 154c0 74 -49 125 -125 125s-122 -51 -122 -116zM135 172c0 -85 69 -144 147 -144c81 0 135 57 135 131c0 78 -91 122 -180 171c-69 -40 -102 -86 -102 -158z" />
    <glyph glyph-name="nine" unicode="9" horiz-adv-x="565" 
d="M275 700c135 0 240 -119 240 -272c0 -213 -196 -424 -499 -438c196 67 332 176 380 332h-20c-35 -24 -73 -44 -128 -44c-117 0 -196 91 -196 198c0 122 95 224 223 224zM415 454c0 117 -56 206 -144 206c-75 0 -127 -64 -127 -154c0 -107 78 -173 171 -173
c37 0 70 14 91 27c6 30 9 61 9 94z" />
    <glyph glyph-name="zero.op" horiz-adv-x="596" 
d="M298 492c136 0 248 -112 248 -251s-112 -251 -248 -251s-248 112 -248 251s112 251 248 251zM298 431c-102 0 -184 -85 -184 -190s82 -190 184 -190s184 85 184 190s-82 190 -184 190z" />
    <glyph glyph-name="zero.alt" horiz-adv-x="596" 
d="M298 492c126 0 248 -110 248 -251s-122 -251 -248 -251s-248 110 -248 251s122 251 248 251zM298 450c-91 0 -154 -94 -154 -209s63 -210 154 -210s154 95 154 210s-63 209 -154 209z" />
    <glyph glyph-name="one.op" horiz-adv-x="422" 
d="M184 360h-161l251 132v-450h121v-42h-332v42h121v318z" />
    <glyph glyph-name="one.alt" horiz-adv-x="422" 
d="M166 440h-121v42h332v-42h-121v-398h121v-42h-332v42h121v398z" />
    <glyph glyph-name="two.op" horiz-adv-x="472" 
d="M392 0h-370c141 130 261 225 261 318c0 55 -39 97 -101 97s-103 -30 -143 -75c25 83 92 152 187 152c90 0 150 -61 150 -136c0 -88 -67 -151 -207 -251v-15h297z" />
    <glyph glyph-name="three.op" horiz-adv-x="418" 
d="M152 -220c63 9 137 65 137 161c0 95 -90 162 -226 162c114 74 194 126 194 215c0 62 -43 96 -103 96c-44 0 -90 -25 -123 -59c25 74 86 137 174 137c84 0 138 -58 138 -130c0 -83 -73 -144 -139 -186v-15c94 -21 167 -80 167 -173c0 -122 -133 -254 -282 -254
c-53 0 -77 27 -77 55c0 19 10 39 31 51z" />
    <glyph glyph-name="four.op" horiz-adv-x="623" 
d="M423 -256h-82v256h-331l413 496v-426h210l-57 -70h-153v-256zM341 70v269l-222 -269h222z" />
    <glyph glyph-name="five.op" horiz-adv-x="449" 
d="M345 52c0 -183 -181 -308 -350 -318c131 55 253 161 253 307c0 103 -59 185 -182 242l109 199h248l-46 -90h-213l-33 -62c123 -66 214 -146 214 -278z" />
    <glyph glyph-name="six.op" horiz-adv-x="549" 
d="M282 -10c-135 0 -232 124 -232 276c0 235 222 446 469 482c-157 -90 -305 -208 -356 -379h23c35 24 71 42 125 42c114 0 192 -91 192 -198c0 -122 -97 -223 -221 -223zM414 184c0 107 -77 173 -168 173c-39 0 -73 -15 -94 -30c-5 -28 -8 -57 -8 -88
c0 -124 57 -209 145 -209c71 0 125 64 125 154z" />
    <glyph glyph-name="seven.op" horiz-adv-x="535" 
d="M134 -256h-56l335 648h-393l46 90h449z" />
    <glyph glyph-name="eight.op" horiz-adv-x="533" 
d="M486 185c0 -105 -96 -195 -220 -195c-120 0 -221 77 -221 186c0 89 64 141 151 185v25c-67 51 -124 109 -124 192c0 100 86 187 196 187c112 0 200 -72 200 -174c0 -84 -53 -134 -130 -174v-22c77 -56 148 -118 148 -210zM152 606c0 -77 74 -130 152 -186
c47 43 83 102 83 171c0 81 -47 134 -119 134s-116 -58 -116 -119zM130 184c0 -92 66 -156 140 -156c77 0 128 55 128 136c0 83 -84 137 -167 197c-66 -45 -101 -98 -101 -177z" />
    <glyph glyph-name="nine.op" horiz-adv-x="549" 
d="M267 492c135 0 232 -124 232 -276c0 -235 -222 -446 -469 -482c157 90 305 208 356 379h-23c-35 -24 -71 -42 -125 -42c-114 0 -192 91 -192 198c0 122 97 223 221 223zM135 298c0 -107 77 -173 168 -173c39 0 73 15 94 30c5 28 8 57 8 88c0 124 -57 209 -145 209
c-71 0 -125 -64 -125 -154z" />
    <glyph glyph-name="zero.sc" horiz-adv-x="542" 
d="M271 560c111 0 215 -131 215 -285s-104 -285 -215 -285s-215 131 -215 285s104 285 215 285zM271 26c66 0 116 113 116 249s-50 249 -116 249s-116 -113 -116 -249s50 -249 116 -249z" />
    <glyph glyph-name="one.sc" horiz-adv-x="407" 
d="M259 558v-515h102v-43h-295v43h102v382h-134z" />
    <glyph glyph-name="two.sc" horiz-adv-x="462" 
d="M368 0h-349c151 159 277 259 277 359c0 67 -39 111 -109 111c-68 0 -110 -34 -149 -85c28 108 100 175 195 175c91 0 149 -68 149 -152c0 -107 -104 -204 -226 -300v-12h272z" />
    <glyph glyph-name="three.sc" horiz-adv-x="439" 
d="M181 23c56 10 124 48 124 116c0 84 -78 121 -200 121c100 51 161 92 161 152c0 45 -33 69 -80 69c-52 0 -93 -30 -123 -62c22 70 85 141 176 141c72 0 119 -48 119 -102c0 -65 -50 -114 -116 -138v-10c89 -14 149 -53 149 -124c0 -106 -127 -196 -251 -196
c-55 0 -92 27 -92 65c0 25 17 49 41 58z" />
    <glyph glyph-name="four.sc" horiz-adv-x="534" 
d="M437 0h-245v40h80v130h-252l337 388v-335h157l-39 -53h-118v-130h80v-40zM272 223v184l-160 -184h160z" />
    <glyph glyph-name="five.sc" horiz-adv-x="449" 
d="M141 359c131 11 243 -39 243 -156c0 -122 -120 -213 -246 -213c-57 0 -95 28 -95 68c0 25 14 50 39 60l95 -94c59 12 126 51 126 126c0 89 -72 136 -209 123l52 277h248l-38 -100h-199z" />
    <glyph glyph-name="six.sc" horiz-adv-x="498" 
d="M254 -10c-112 0 -198 104 -198 226c0 177 165 332 402 340c-152 -63 -255 -147 -292 -260h13c27 23 58 40 102 40c93 0 158 -71 158 -160c0 -100 -80 -186 -185 -186zM150 194c0 -98 44 -170 111 -170c55 0 92 46 92 115c0 84 -60 146 -133 146c-24 0 -46 -6 -61 -15
c-6 -24 -9 -49 -9 -76z" />
    <glyph glyph-name="seven.sc" horiz-adv-x="451" 
d="M185 0h-65l231 450h-331l47 100h364z" />
    <glyph glyph-name="eight.sc" horiz-adv-x="482" 
d="M432 151c0 -79 -85 -161 -192 -161c-105 0 -190 63 -190 139c0 60 51 99 121 125v19c-54 33 -99 72 -99 133c0 80 73 154 171 154c96 0 171 -56 171 -132c0 -55 -44 -90 -105 -111v-18c64 -36 123 -78 123 -148zM150 443c0 -56 61 -90 127 -126c39 30 63 65 63 114
c0 58 -38 94 -97 94c-58 0 -93 -35 -93 -82zM128 136c0 -67 52 -111 114 -111c63 0 103 42 103 92c0 64 -72 99 -142 138c-51 -31 -75 -67 -75 -119z" />
    <glyph glyph-name="nine.sc" horiz-adv-x="498" 
d="M244 560c112 0 198 -104 198 -226c0 -177 -165 -332 -402 -340c152 63 255 147 292 260h-13c-27 -23 -58 -40 -102 -40c-93 0 -158 71 -158 160c0 100 80 186 185 186zM348 356c0 98 -44 170 -111 170c-55 0 -92 -46 -92 -115c0 -84 60 -146 133 -146c24 0 46 6 61 15
c6 24 9 49 9 76z" />
    <glyph glyph-name="zero.lt" 
d="M556 345c0 -188 -122 -355 -256 -355s-256 167 -256 355s122 355 256 355s256 -167 256 -355zM459 345c0 160 -69 312 -159 312s-159 -152 -159 -312c0 -159 69 -312 159 -312s159 153 159 312z" />
    <glyph glyph-name="one.lt" 
d="M279 568h-211l301 132v-654h171v-46h-432v46h171v522z" />
    <glyph glyph-name="two.lt" 
d="M465 0h-430c175 172 353 338 353 471c0 85 -49 143 -140 143s-144 -59 -191 -130c31 123 118 216 239 216c112 0 185 -84 185 -191c0 -137 -137 -263 -293 -404v-15h349z" />
    <glyph glyph-name="three.lt" 
d="M245 29c79 11 173 71 173 164c0 98 -105 152 -265 152c133 71 222 109 222 190c0 58 -42 89 -104 89c-68 0 -128 -45 -167 -92c24 82 104 168 214 168c90 0 152 -56 152 -126c0 -80 -74 -126 -153 -164v-12c113 -21 193 -70 193 -159c0 -131 -153 -249 -312 -249
c-67 0 -112 32 -112 76c0 24 16 51 43 63z" />
    <glyph glyph-name="four.lt" 
d="M508 0h-292v44h103v180h-305l391 476v-426h180l-41 -50h-139v-180h103v-44zM319 274v261l-212 -261h212z" />
    <glyph glyph-name="five.lt" 
d="M189 446c165 16 305 -56 305 -191c0 -148 -146 -265 -305 -265c-66 0 -109 32 -109 76c0 24 17 51 43 63l114 -98c80 12 174 65 174 178s-86 177 -271 159l50 322h305l-46 -90h-238z" />
    <glyph glyph-name="six.lt" 
d="M310 -10c-135 0 -240 119 -240 272c0 213 196 424 499 438c-196 -67 -332 -176 -380 -332h20c35 24 73 44 128 44c117 0 196 -91 196 -198c0 -122 -95 -224 -223 -224zM170 236c0 -117 56 -206 144 -206c75 0 127 64 127 154c0 107 -78 173 -171 173
c-37 0 -70 -14 -91 -27c-6 -30 -9 -61 -9 -94z" />
    <glyph glyph-name="seven.lt" 
d="M232 0h-73l284 600h-411l46 90h453z" />
    <glyph glyph-name="eight.lt" 
d="M533 184c0 -97 -101 -194 -232 -194c-127 0 -233 81 -233 180c0 82 67 133 155 161v21c-68 41 -126 88 -126 163c0 102 90 185 206 185c118 0 211 -71 211 -169c0 -77 -57 -120 -133 -152v-17c79 -45 152 -95 152 -178zM181 545c0 -73 80 -117 164 -163
c49 38 83 86 83 154c0 74 -49 125 -125 125s-122 -51 -122 -116zM158 172c0 -85 69 -144 147 -144c81 0 135 57 135 131c0 78 -91 122 -180 171c-69 -40 -102 -86 -102 -158z" />
    <glyph glyph-name="nine.lt" 
d="M290 701c135 0 240 -119 240 -272c0 -213 -196 -424 -499 -438c196 67 332 176 380 332h-20c-35 -24 -73 -44 -128 -44c-117 0 -196 91 -196 198c0 122 95 224 223 224zM430 455c0 117 -56 206 -144 206c-75 0 -127 -64 -127 -154c0 -107 78 -173 171 -173
c37 0 70 14 91 27c6 30 9 61 9 94z" />
    <glyph glyph-name="zero.ot" 
d="M300 492c136 0 248 -112 248 -251s-112 -251 -248 -251s-248 112 -248 251s112 251 248 251zM300 431c-102 0 -184 -85 -184 -190s82 -190 184 -190s184 85 184 190s-82 190 -184 190z" />
    <glyph glyph-name="zero.ot.alt" 
d="M300 492c126 0 248 -110 248 -251s-122 -251 -248 -251s-248 110 -248 251s122 251 248 251zM300 450c-91 0 -154 -94 -154 -209s63 -210 154 -210s154 95 154 210s-63 209 -154 209z" />
    <glyph glyph-name="one.ot" horiz-adv-x="599" 
d="M276 360h-181l271 132v-450h151v-42h-392v42h151v318z" />
    <glyph glyph-name="one.ot.alt" 
d="M255 440h-141v42h372v-42h-141v-398h141v-42h-372v42h141v398z" />
    <glyph glyph-name="two.ot" 
d="M453 0h-370c141 130 261 225 261 318c0 55 -39 97 -101 97s-103 -30 -143 -75c25 83 92 152 187 152c90 0 150 -61 150 -136c0 -88 -67 -151 -207 -251v-15h297z" />
    <glyph glyph-name="three.ot" 
d="M248 -220c63 9 137 65 137 161c0 95 -90 162 -226 162c114 74 194 126 194 215c0 62 -43 96 -103 96c-44 0 -90 -25 -123 -59c25 74 86 137 174 137c84 0 138 -58 138 -130c0 -83 -73 -144 -139 -186v-15c94 -21 167 -80 167 -173c0 -122 -133 -254 -282 -254
c-53 0 -77 27 -77 55c0 19 10 39 31 51z" />
    <glyph glyph-name="four.ot" 
d="M423 -256h-82v256h-331l413 496v-426h170l-57 -70h-113v-256zM341 70v269l-222 -269h222z" />
    <glyph glyph-name="five.ot" 
d="M424 52c0 -183 -181 -308 -350 -318c131 55 253 161 253 307c0 103 -59 185 -182 242l109 199h248l-46 -90h-213l-33 -62c123 -66 214 -146 214 -278z" />
    <glyph glyph-name="six.ot" 
d="M312 -10c-135 0 -232 124 -232 276c0 235 222 446 469 482c-157 -90 -305 -208 -356 -379h23c35 24 71 42 125 42c114 0 192 -91 192 -198c0 -122 -97 -223 -221 -223zM444 184c0 107 -77 173 -168 173c-39 0 -73 -15 -94 -30c-5 -28 -8 -57 -8 -88
c0 -124 57 -209 145 -209c71 0 125 64 125 154z" />
    <glyph glyph-name="seven.ot" 
d="M173 -256h-56l335 648h-393l46 90h449z" />
    <glyph glyph-name="eight.ot" 
d="M521 185c0 -105 -96 -195 -220 -195c-120 0 -221 77 -221 186c0 89 64 141 151 185v25c-67 51 -124 109 -124 192c0 100 86 187 196 187c112 0 200 -72 200 -174c0 -84 -53 -134 -130 -174v-22c77 -56 148 -118 148 -210zM187 606c0 -77 74 -130 152 -186
c47 43 83 102 83 171c0 81 -47 134 -119 134s-116 -58 -116 -119zM165 184c0 -92 66 -156 140 -156c77 0 128 55 128 136c0 83 -84 137 -167 197c-66 -45 -101 -98 -101 -177z" />
    <glyph glyph-name="nine.ot" 
d="M288 492c135 0 232 -124 232 -276c0 -235 -222 -446 -469 -482c157 90 305 208 356 379h-23c-35 -24 -71 -42 -125 -42c-114 0 -192 91 -192 198c0 122 97 223 221 223zM156 298c0 -107 77 -173 168 -173c39 0 73 15 94 30c5 28 8 57 8 88c0 124 -57 209 -145 209
c-71 0 -125 -64 -125 -154z" />
    <glyph glyph-name="zero.st" 
d="M300 560c111 0 215 -131 215 -285s-104 -285 -215 -285s-215 131 -215 285s104 285 215 285zM300 26c66 0 116 113 116 249s-50 249 -116 249s-116 -113 -116 -249s50 -249 116 -249z" />
    <glyph glyph-name="one.st" 
d="M270 425h-174l265 133v-515h142v-43h-375v43h142v382z" />
    <glyph glyph-name="two.st" 
d="M444 0h-349c151 159 277 259 277 359c0 67 -39 111 -109 111c-68 0 -110 -34 -149 -85c28 108 100 175 195 175c91 0 149 -68 149 -152c0 -107 -104 -204 -226 -300v-12h272z" />
    <glyph glyph-name="three.st" 
d="M261 23c56 10 124 48 124 116c0 84 -78 121 -200 121c100 51 161 92 161 152c0 45 -33 69 -80 69c-52 0 -93 -30 -123 -62c22 70 85 141 176 141c72 0 119 -48 119 -102c0 -65 -50 -114 -116 -138v-10c89 -14 149 -53 149 -124c0 -106 -127 -196 -251 -196
c-55 0 -92 27 -92 65c0 25 17 49 41 58z" />
    <glyph glyph-name="four.st" 
d="M470 0h-245v40h80v130h-252l337 388v-335h157l-39 -53h-118v-130h80v-40zM305 223v184l-160 -184h160z" />
    <glyph glyph-name="five.st" 
d="M222 359c131 11 243 -39 243 -156c0 -122 -120 -213 -246 -213c-57 0 -95 28 -95 68c0 25 14 50 39 60l95 -94c59 12 126 51 126 126c0 89 -72 136 -209 123l52 277h248l-38 -100h-199z" />
    <glyph glyph-name="six.st" 
d="M308 -10c-112 0 -198 104 -198 226c0 177 165 332 402 340c-152 -63 -255 -147 -292 -260h13c27 23 58 40 102 40c93 0 158 -71 158 -160c0 -100 -80 -186 -185 -186zM204 194c0 -98 44 -170 111 -170c55 0 92 46 92 115c0 84 -60 146 -133 146c-24 0 -46 -6 -61 -15
c-6 -24 -9 -49 -9 -76z" />
    <glyph glyph-name="seven.st" 
d="M259 0h-65l231 450h-331l47 100h364z" />
    <glyph glyph-name="eight.st" 
d="M491 151c0 -79 -85 -161 -192 -161c-105 0 -190 63 -190 139c0 60 51 99 121 125v19c-54 33 -99 72 -99 133c0 80 73 154 171 154c96 0 171 -56 171 -132c0 -55 -44 -90 -105 -111v-18c64 -36 123 -78 123 -148zM209 443c0 -56 61 -90 127 -126c39 30 63 65 63 114
c0 58 -38 94 -97 94c-58 0 -93 -35 -93 -82zM187 136c0 -67 52 -111 114 -111c63 0 103 42 103 92c0 64 -72 99 -142 138c-51 -31 -75 -67 -75 -119z" />
    <glyph glyph-name="nine.st" 
d="M292 560c112 0 198 -104 198 -226c0 -177 -165 -332 -402 -340c152 63 255 147 292 260h-13c-27 -23 -58 -40 -102 -40c-93 0 -158 71 -158 160c0 100 80 186 185 186zM396 356c0 98 -44 170 -111 170c-55 0 -92 -46 -92 -115c0 -84 60 -146 133 -146c24 0 46 6 61 15
c6 24 9 49 9 76z" />
    <glyph glyph-name="uni2070" unicode="&#x2070;" horiz-adv-x="392" 
d="M357 495c0 -110 -77 -201 -160 -201c-84 0 -162 91 -162 201c0 109 78 201 162 201c83 0 160 -92 160 -201zM277 495c0 97 -36 172 -80 172c-45 0 -82 -75 -82 -172s37 -173 82 -173c44 0 80 76 80 173z" />
    <glyph glyph-name="onesuperior" unicode="&#xb9;" horiz-adv-x="327" 
d="M129 600h-104l182 96v-364h81v-33h-241v33h82v268z" />
    <glyph glyph-name="twosuperior" unicode="&#xb2;" horiz-adv-x="334" 
d="M271 299h-258c116 114 193 183 193 253c0 47 -29 79 -76 79c-45 0 -73 -24 -101 -60c21 78 74 125 141 125c66 0 107 -48 107 -108c0 -76 -73 -143 -154 -211v-9h192z" />
    <glyph glyph-name="threesuperior" unicode="&#xb3;" horiz-adv-x="309" 
d="M124 318c38 8 86 33 86 81c0 54 -55 84 -141 84c69 37 108 65 108 107c0 32 -24 49 -56 49s-63 -20 -84 -44c19 51 64 101 133 101c54 0 86 -34 86 -73c0 -45 -36 -75 -86 -93v-7c61 -9 110 -36 110 -91c0 -75 -95 -138 -185 -138c-41 0 -69 19 -69 46c0 17 12 35 33 41z
" />
    <glyph glyph-name="uni2074" unicode="&#x2074;" horiz-adv-x="382" 
d="M317 299h-182v33h56v78h-181l252 286v-249h110l-33 -37h-77v-78h55v-33zM191 447v126l-110 -126h110z" />
    <glyph glyph-name="uni2075" unicode="&#x2075;" horiz-adv-x="313" 
d="M101 556c93 8 174 -28 174 -111c0 -87 -90 -151 -181 -151c-42 0 -71 20 -71 48c0 18 12 36 33 43l67 -67c40 7 85 33 85 89c0 64 -56 98 -148 87l45 196h171l-28 -72h-134z" />
    <glyph glyph-name="uni2076" unicode="&#x2076;" horiz-adv-x="356" 
d="M181 294c-82 0 -145 73 -145 161c0 125 124 235 288 241c-106 -45 -175 -105 -200 -184h9c18 15 40 27 71 27c66 0 113 -50 113 -113c0 -71 -59 -132 -136 -132zM113 440c0 -65 30 -118 75 -118c38 0 60 31 60 77c0 60 -40 104 -91 104c-15 0 -28 -4 -38 -9
c-4 -17 -6 -35 -6 -54z" />
    <glyph glyph-name="uni2077" unicode="&#x2077;" horiz-adv-x="343" 
d="M143 300h-55l172 318h-238l41 72h260z" />
    <glyph glyph-name="uni2078" unicode="&#x2078;" horiz-adv-x="345" 
d="M312 408c0 -56 -63 -114 -141 -114c-76 0 -138 45 -138 98c0 43 34 70 85 90v11c-38 23 -71 50 -71 93c0 57 54 110 127 110c70 0 124 -40 124 -94c0 -39 -30 -64 -74 -78v-12c46 -25 88 -54 88 -104zM111 611c0 -39 44 -62 91 -87c26 21 39 44 39 78c0 41 -26 68 -67 68
c-38 0 -63 -25 -63 -59zM94 400c0 -47 34 -80 77 -80c44 0 71 31 71 67c0 44 -52 67 -103 94c-31 -22 -45 -44 -45 -81z" />
    <glyph glyph-name="uni2079" unicode="&#x2079;" horiz-adv-x="356" 
d="M175 696c83 0 145 -73 145 -161c0 -124 -123 -235 -288 -241c106 45 175 105 200 185h-8c-19 -16 -41 -28 -72 -28c-65 0 -113 50 -113 113c0 71 60 132 136 132zM108 591c0 -60 40 -104 92 -104c14 0 27 4 37 9c4 18 6 36 6 55c0 65 -30 117 -75 117
c-37 0 -60 -31 -60 -77z" />
    <glyph glyph-name="zero.dnom" horiz-adv-x="392" 
d="M357 196c0 -110 -77 -201 -160 -201c-84 0 -162 91 -162 201c0 109 78 201 162 201c83 0 160 -92 160 -201zM277 196c0 97 -36 172 -80 172c-45 0 -82 -75 -82 -172s37 -173 82 -173c44 0 80 76 80 173z" />
    <glyph glyph-name="one.dnom" horiz-adv-x="327" 
d="M129 301h-104l182 96v-364h81v-33h-241v33h82v268z" />
    <glyph glyph-name="two.dnom" horiz-adv-x="334" 
d="M271 0h-258c116 114 193 183 193 253c0 47 -29 79 -76 79c-45 0 -73 -24 -101 -60c21 78 74 125 141 125c66 0 107 -48 107 -108c0 -76 -73 -143 -154 -211v-9h192z" />
    <glyph glyph-name="three.dnom" horiz-adv-x="309" 
d="M124 19c38 8 86 33 86 81c0 54 -55 84 -141 84c69 37 108 65 108 107c0 32 -24 49 -56 49s-63 -20 -84 -44c19 51 64 101 133 101c54 0 86 -34 86 -73c0 -45 -36 -75 -86 -93v-7c61 -9 110 -36 110 -91c0 -75 -95 -138 -185 -138c-41 0 -69 19 -69 46c0 17 12 35 33 41z
" />
    <glyph glyph-name="four.dnom" horiz-adv-x="382" 
d="M317 0h-182v33h56v78h-181l252 286v-249h110l-33 -37h-77v-78h55v-33zM191 148v126l-110 -126h110z" />
    <glyph glyph-name="five.dnom" horiz-adv-x="313" 
d="M101 257c93 8 174 -28 174 -111c0 -87 -90 -151 -181 -151c-42 0 -71 20 -71 48c0 18 12 36 33 43l67 -67c40 7 85 33 85 89c0 64 -56 98 -148 87l45 196h171l-28 -72h-134z" />
    <glyph glyph-name="six.dnom" horiz-adv-x="356" 
d="M181 -5c-82 0 -145 73 -145 161c0 125 124 235 288 241c-106 -45 -175 -105 -200 -184h9c18 15 40 27 71 27c66 0 113 -50 113 -113c0 -71 -59 -132 -136 -132zM113 141c0 -65 30 -118 75 -118c38 0 60 31 60 77c0 60 -40 104 -91 104c-15 0 -28 -4 -38 -9
c-4 -17 -6 -35 -6 -54z" />
    <glyph glyph-name="seven.dnom" horiz-adv-x="343" 
d="M143 0h-55l172 318h-238l41 72h260z" />
    <glyph glyph-name="eight.dnom" horiz-adv-x="345" 
d="M312 109c0 -56 -63 -114 -141 -114c-76 0 -138 45 -138 98c0 43 34 70 85 90v11c-38 23 -71 50 -71 93c0 57 54 110 127 110c70 0 124 -40 124 -94c0 -39 -30 -64 -74 -78v-12c46 -25 88 -54 88 -104zM111 312c0 -39 44 -62 91 -87c26 21 39 44 39 78c0 41 -26 68 -67 68
c-38 0 -63 -25 -63 -59zM94 101c0 -47 34 -80 77 -80c44 0 71 31 71 67c0 44 -52 67 -103 94c-31 -22 -45 -44 -45 -81z" />
    <glyph glyph-name="nine.dnom" horiz-adv-x="356" 
d="M175 397c83 0 145 -73 145 -161c0 -124 -123 -235 -288 -241c106 45 175 105 200 185h-8c-19 -16 -41 -28 -72 -28c-65 0 -113 50 -113 113c0 71 60 132 136 132zM108 292c0 -60 40 -104 92 -104c14 0 27 4 37 9c4 18 6 36 6 55c0 65 -30 117 -75 117
c-37 0 -60 -31 -60 -77z" />
    <glyph glyph-name="uni2080" unicode="&#x2080;" horiz-adv-x="392" 
d="M357 45c0 -110 -77 -201 -160 -201c-84 0 -162 91 -162 201c0 109 78 201 162 201c83 0 160 -92 160 -201zM277 45c0 97 -36 172 -80 172c-45 0 -82 -75 -82 -172s37 -173 82 -173c44 0 80 76 80 173z" />
    <glyph glyph-name="uni2081" unicode="&#x2081;" horiz-adv-x="327" 
d="M129 150h-104l182 96v-364h81v-33h-241v33h82v268z" />
    <glyph glyph-name="uni2082" unicode="&#x2082;" horiz-adv-x="334" 
d="M271 -151h-258c116 114 193 183 193 253c0 47 -29 79 -76 79c-45 0 -73 -24 -101 -60c21 78 74 125 141 125c66 0 107 -48 107 -108c0 -76 -73 -143 -154 -211v-9h192z" />
    <glyph glyph-name="uni2083" unicode="&#x2083;" horiz-adv-x="309" 
d="M124 -132c38 8 86 33 86 81c0 54 -55 84 -141 84c69 37 108 65 108 107c0 32 -24 49 -56 49s-63 -20 -84 -44c19 51 64 101 133 101c54 0 86 -34 86 -73c0 -45 -36 -75 -86 -93v-7c61 -9 110 -36 110 -91c0 -75 -95 -138 -185 -138c-41 0 -69 19 -69 46c0 17 12 35 33 41
z" />
    <glyph glyph-name="uni2084" unicode="&#x2084;" horiz-adv-x="382" 
d="M317 -151h-182v33h56v78h-181l252 286v-249h110l-33 -37h-77v-78h55v-33zM191 -3v126l-110 -126h110z" />
    <glyph glyph-name="uni2085" unicode="&#x2085;" horiz-adv-x="313" 
d="M101 106c93 8 174 -28 174 -111c0 -87 -90 -151 -181 -151c-42 0 -71 20 -71 48c0 18 12 36 33 43l67 -67c40 7 85 33 85 89c0 64 -56 98 -148 87l45 196h171l-28 -72h-134z" />
    <glyph glyph-name="uni2086" unicode="&#x2086;" horiz-adv-x="356" 
d="M181 -156c-82 0 -145 73 -145 161c0 125 124 235 288 241c-106 -45 -175 -105 -200 -184h9c18 15 40 27 71 27c66 0 113 -50 113 -113c0 -71 -59 -132 -136 -132zM113 -10c0 -65 30 -118 75 -118c38 0 60 31 60 77c0 60 -40 104 -91 104c-15 0 -28 -4 -38 -9
c-4 -17 -6 -35 -6 -54z" />
    <glyph glyph-name="uni2087" unicode="&#x2087;" horiz-adv-x="343" 
d="M143 -150h-55l172 318h-238l41 72h260z" />
    <glyph glyph-name="uni2088" unicode="&#x2088;" horiz-adv-x="345" 
d="M312 -42c0 -56 -63 -114 -141 -114c-76 0 -138 45 -138 98c0 43 34 70 85 90v11c-38 23 -71 50 -71 93c0 57 54 110 127 110c70 0 124 -40 124 -94c0 -39 -30 -64 -74 -78v-12c46 -25 88 -54 88 -104zM111 161c0 -39 44 -62 91 -87c26 21 39 44 39 78c0 41 -26 68 -67 68
c-38 0 -63 -25 -63 -59zM94 -50c0 -47 34 -80 77 -80c44 0 71 31 71 67c0 44 -52 67 -103 94c-31 -22 -45 -44 -45 -81z" />
    <glyph glyph-name="uni2089" unicode="&#x2089;" horiz-adv-x="356" 
d="M175 246c83 0 145 -73 145 -161c0 -124 -123 -235 -288 -241c106 45 175 105 200 185h-8c-19 -16 -41 -28 -72 -28c-65 0 -113 50 -113 113c0 71 60 132 136 132zM108 141c0 -60 40 -104 92 -104c14 0 27 4 37 9c4 18 6 36 6 55c0 65 -30 117 -75 117
c-37 0 -60 -31 -60 -77z" />
    <glyph glyph-name="fraction" unicode="&#x2044;" horiz-adv-x="169" 
d="M353 690l-452 -643l-15 -47h-70l452 643l15 47h70z" />
    <glyph glyph-name="onehalf" unicode="&#xbd;" horiz-adv-x="798" 
d="M129 600h-104l182 96v-364h81v-33h-241v33h82v268zM675 690l-452 -643l-15 -47h-70l452 643l15 47h70zM735 0h-258c116 114 193 183 193 253c0 47 -29 79 -76 79c-45 0 -73 -24 -101 -60c21 78 74 125 141 125c66 0 107 -48 107 -108c0 -76 -73 -143 -154 -211v-9h192z
" />
    <glyph glyph-name="onequarter" unicode="&#xbc;" horiz-adv-x="762" 
d="M675 690l-452 -643l-15 -47h-70l452 643l15 47h70zM129 600h-104l182 96v-364h81v-33h-241v33h82v268zM697 0h-182v33h56v78h-181l252 286v-249h110l-33 -37h-77v-78h55v-33zM571 148v126l-110 -126h110z" />
    </font>
</defs>
</svg>
